<svg width="26" height="26" viewBox="0 0 26 26" fill="none" xmlns="http://www.w3.org/2000/svg">
<path fill-rule="evenodd" clip-rule="evenodd" d="M25.6 12.7823C25.6 13.6479 25.5119 14.5123 25.3388 15.355C25.17 16.1776 24.92 16.9852 24.5925 17.7572C24.2725 18.5156 23.8756 19.2464 23.4118 19.9279C22.9549 20.6052 22.4286 21.2405 21.8505 21.8197C21.2711 22.3964 20.6335 22.9212 19.9566 23.38C19.2729 23.8406 18.541 24.2369 17.7822 24.5584C17.009 24.8842 16.1995 25.1338 15.3776 25.3023C14.5339 25.4759 13.6663 25.5645 12.7994 25.5645C11.9319 25.5645 11.0643 25.4759 10.2218 25.3023C9.39865 25.1338 8.58923 24.8842 7.81668 24.5584C7.05791 24.2369 6.32534 23.8406 5.64157 23.38C4.96466 22.9213 4.32713 22.3964 3.74897 21.8197C3.17021 21.2405 2.6439 20.6052 2.18639 19.9279C1.72511 19.2464 1.32756 18.5155 1.00632 17.7572C0.678762 16.9852 0.428159 16.1775 0.258769 15.355C0.0875256 14.5123 0 13.6479 0 12.7823C0 11.916 0.0874754 11.0497 0.258819 10.2089C0.428209 9.38629 0.678812 8.57743 1.00637 7.80665C1.32761 7.04772 1.72516 6.31626 2.18644 5.63468C2.64395 4.95689 3.17026 4.32274 3.74902 3.74291C4.32718 3.16618 4.96471 2.64259 5.64162 2.18448C6.32539 1.72197 7.05796 1.3257 7.81673 1.00362C8.58928 0.677132 9.39865 0.426891 10.2219 0.259646C11.0644 0.0873993 11.9319 0 12.7995 0C13.6664 0 14.5339 0.0873993 15.3777 0.259646C16.1996 0.426941 17.009 0.677182 17.7822 1.00362C18.541 1.32565 19.2729 1.72197 19.9567 2.18448C20.6336 2.64259 21.2712 3.16618 21.8505 3.74291C22.4287 4.32274 22.955 4.95689 23.4119 5.63468C23.8756 6.31626 24.2725 7.04777 24.5925 7.80665C24.92 8.57743 25.17 9.38629 25.3388 10.2089C25.5119 11.0497 25.6 11.916 25.6 12.7823ZM8.13542 2.90909C5.0871 4.3465 2.81199 7.15133 2.10257 10.5316L2.11307 10.5317C2.48665 10.5352 7.00118 10.5769 12.1944 9.19909C10.3024 5.84249 8.28106 3.10325 8.13542 2.90909ZM1.87696 12.434C2.0707 12.4415 7.47164 12.5625 13.1 10.8799C13.4132 11.4928 13.7126 12.1145 13.987 12.7348C13.8432 12.776 13.6982 12.8185 13.5557 12.8659C7.65666 14.7707 4.66521 20.0702 4.66897 20.0759C2.92762 18.1429 1.8682 15.5864 1.8682 12.7823C1.8682 12.7013 1.87087 12.6222 1.87356 12.5423L1.87356 12.5423L1.87356 12.5423L1.87356 12.5423L1.87356 12.5423L1.87356 12.5423C1.87477 12.5064 1.87599 12.4704 1.87696 12.434ZM20.0186 4.58989C18.094 2.89533 15.5671 1.86745 12.7994 1.86745C11.9112 1.86745 11.0493 1.97481 10.2237 2.17327L10.2414 2.19706L10.2414 2.19707L10.2414 2.19708L10.2415 2.19709C10.5004 2.54343 12.4922 5.20738 14.3101 8.54061C18.401 7.00917 19.966 4.66847 20.0176 4.59133L20.0186 4.58989ZM14.7054 14.552L14.732 14.5435C16.2702 18.5355 16.9052 21.8783 17.0671 22.832C15.7552 23.3893 14.3132 23.6971 12.7994 23.6971C10.2643 23.6971 7.93667 22.8276 6.08091 21.3865C6.1037 21.3371 8.2099 16.8124 14.6595 14.5673C14.6746 14.5617 14.69 14.5569 14.7054 14.552ZM18.9079 21.8347C21.3624 20.1807 23.1055 17.5544 23.5918 14.5123C23.3668 14.4399 20.3085 13.4731 16.7802 14.038C18.214 17.9725 18.7966 21.1768 18.9079 21.8347ZM15.8777 11.7499C15.6508 11.2175 15.4052 10.6877 15.1514 10.1671C19.4396 8.41835 21.1979 5.90989 21.2405 5.84902L21.2412 5.84815C22.7749 7.70739 23.7019 10.0822 23.7269 12.6698C23.7239 12.6692 23.7195 12.6683 23.7139 12.6672C23.427 12.6075 19.7973 11.8526 16.114 12.3154C16.0371 12.1282 15.9584 11.9409 15.8777 11.7499Z" fill="#C4C4C4"/>
</svg>
