<svg width="27" height="26" viewBox="0 0 27 26" fill="none" xmlns="http://www.w3.org/2000/svg">
<path d="M13.4685 0.445312C6.3818 0.445312 0.635193 6.05509 0.635193 12.9757C0.635193 18.512 4.31233 23.209 9.41141 24.8659C10.0528 24.9818 10.2882 24.594 10.2882 24.2631C10.2882 23.9643 10.2763 22.9772 10.2708 21.9301C6.70058 22.6881 5.94721 20.4517 5.94721 20.4517C5.36343 19.0033 4.5223 18.6182 4.5223 18.6182C3.35793 17.8405 4.61007 17.8565 4.61007 17.8565C5.89876 17.9447 6.57732 19.1478 6.57732 19.1478C7.72192 21.0634 9.57951 20.5096 10.3118 20.1894C10.427 19.3797 10.7596 18.8265 11.1266 18.5138C8.27616 18.197 5.2797 17.1226 5.2797 12.3212C5.2797 10.9531 5.78102 9.83534 6.60197 8.95782C6.46872 8.642 6.02945 7.36774 6.72629 5.64175C6.72629 5.64175 7.80395 5.30498 10.2564 6.92618C11.2801 6.64854 12.3779 6.50931 13.4685 6.50454C14.5592 6.50931 15.6579 6.64854 16.6835 6.92618C19.1329 5.30498 20.2091 5.64175 20.2091 5.64175C20.9076 7.36774 20.4681 8.642 20.3349 8.95782C21.1577 9.83534 21.6557 10.9531 21.6557 12.3212C21.6557 17.134 18.6535 18.1937 15.7958 18.5039C16.2561 18.8927 16.6662 19.6553 16.6662 20.8244C16.6662 22.5008 16.6514 23.8501 16.6514 24.2631C16.6514 24.5965 16.8824 24.9872 17.5329 24.8642C22.6292 23.2054 26.3017 18.5101 26.3017 12.9757C26.3017 6.05509 20.5559 0.445312 13.4685 0.445312" fill="#C4C4C4"/>
<path d="M5.49582 18.437C5.46756 18.4995 5.36725 18.518 5.27587 18.4752C5.18279 18.4343 5.13051 18.3492 5.16069 18.2867C5.18831 18.2224 5.28883 18.2047 5.3817 18.2474C5.475 18.2885 5.52813 18.3744 5.49582 18.437" fill="#C4C4C4"/>
<path d="M6.01564 19.0034C5.95444 19.0589 5.83479 19.0331 5.75361 18.9454C5.66967 18.8579 5.65395 18.7408 5.716 18.6845C5.77912 18.629 5.89515 18.655 5.9793 18.7425C6.06325 18.831 6.07961 18.9473 6.01564 19.0034" fill="#C4C4C4"/>
<path d="M6.52159 19.7245C6.44296 19.7779 6.31439 19.7279 6.23491 19.6164C6.15628 19.5049 6.15628 19.3712 6.23661 19.3176C6.3163 19.264 6.44296 19.3122 6.52351 19.4229C6.60192 19.536 6.60192 19.6699 6.52159 19.7245" fill="#C4C4C4"/>
<path d="M7.21492 20.4224C7.14458 20.4983 6.99476 20.4779 6.8851 20.3744C6.77289 20.2731 6.74165 20.1295 6.81221 20.0536C6.8834 19.9775 7.03407 19.9989 7.14458 20.1016C7.25594 20.2027 7.28994 20.3474 7.21492 20.4224" fill="#C4C4C4"/>
<path d="M8.17121 20.8269C8.14018 20.9253 7.99588 20.97 7.85052 20.9282C7.70538 20.8852 7.61038 20.77 7.63971 20.6706C7.66989 20.5716 7.81482 20.5251 7.96124 20.5698C8.10618 20.6126 8.20139 20.7269 8.17121 20.8269" fill="#C4C4C4"/>
<path d="M9.22149 20.9017C9.2251 21.0053 9.10184 21.0911 8.94926 21.0928C8.79582 21.0963 8.67171 21.0126 8.67001 20.9107C8.67001 20.8061 8.79051 20.7211 8.94395 20.7186C9.09653 20.7157 9.22149 20.7988 9.22149 20.9017" fill="#C4C4C4"/>
<path d="M10.1988 20.7393C10.2171 20.8403 10.111 20.944 9.95949 20.9715C9.81052 20.9983 9.6726 20.9359 9.65368 20.8357C9.63519 20.7322 9.74315 20.6284 9.89191 20.6016C10.0436 20.5758 10.1794 20.6365 10.1988 20.7393" fill="#C4C4C4"/>
</svg>
