<svg width="25" height="26" viewBox="0 0 25 26" fill="none" xmlns="http://www.w3.org/2000/svg">
<g clip-path="url(#clip0)">
<path d="M12.343 25.1618C9.03659 25.1618 8.59459 25.1474 7.25443 25.0863C6.23088 25.065 5.2182 24.8717 4.25876 24.5145C3.43545 24.204 2.68953 23.7182 2.07273 23.0907C1.44429 22.4743 0.958334 21.7279 0.648972 20.9038C0.290636 19.9447 0.0966463 18.9319 0.0751642 17.9082C0.0141614 16.6059 0 16.171 0 12.8191C0 9.46718 0.0141614 9.03117 0.0743472 7.73023C0.0958708 6.70652 0.28986 5.69377 0.648155 4.73456C0.957489 3.91054 1.44345 3.16421 2.07192 2.54799C2.68841 1.92011 3.43442 1.43423 4.25794 1.12423C5.21715 0.765954 6.22991 0.571966 7.25362 0.550421C8.55592 0.490236 8.99083 0.476074 12.3438 0.476074C15.6717 0.476074 16.1107 0.490236 17.4335 0.550421C18.4572 0.571644 19.47 0.765642 20.4291 1.12423C21.2529 1.43381 21.999 1.91974 22.6152 2.54799C23.2427 3.16479 23.7285 3.91071 24.0389 4.73402C24.3965 5.69335 24.5899 6.70609 24.6108 7.72969C24.671 9.0516 24.6852 9.49006 24.6852 12.8182C24.6852 16.1464 24.671 16.5833 24.6108 17.9068C24.5904 18.9305 24.397 19.9433 24.0389 20.9025C23.7219 21.7228 23.2369 22.4678 22.6151 23.0897C21.9933 23.7115 21.2483 24.1966 20.428 24.5136C19.4687 24.8713 18.456 25.0646 17.4324 25.0855C16.1137 25.1476 15.6755 25.1618 12.343 25.1618ZM12.343 2.69968C9.02515 2.69968 8.63925 2.71221 7.35683 2.77103C6.57423 2.77962 5.79901 2.92344 5.06541 3.19615C4.52884 3.39308 4.04351 3.70835 3.64546 4.11854C3.23617 4.51754 2.92073 5.00257 2.72198 5.53849C2.451 6.27281 2.3076 7.04806 2.29795 7.83073C2.23804 9.15182 2.22551 9.54643 2.22551 12.8188C2.22551 16.1181 2.23804 16.5081 2.29795 17.8069C2.30653 18.5896 2.44997 19.3651 2.72198 20.0991C2.9197 20.635 3.2353 21.1196 3.64546 21.5171C4.04403 21.927 4.52917 22.2426 5.06541 22.4409C5.79947 22.7129 6.57485 22.8567 7.35765 22.866C8.63762 22.9251 9.02515 22.9374 12.3438 22.9374C15.6625 22.9374 16.0503 22.9248 17.3319 22.866C18.1147 22.8567 18.8901 22.7129 19.6241 22.4409C20.1562 22.2354 20.6395 21.9209 21.0428 21.5176C21.4462 21.1142 21.7607 20.631 21.9662 20.0988C22.2374 19.3646 22.3809 18.5893 22.3902 17.8066C22.4501 16.5067 22.4627 16.1165 22.4627 12.8185C22.4627 9.52056 22.4501 9.1303 22.3902 7.83045C22.3816 7.04769 22.2382 6.27225 21.9662 5.53822C21.7685 5.00177 21.4529 4.51653 21.0427 4.11827C20.6441 3.70876 20.1589 3.3936 19.6228 3.19587C18.8884 2.92485 18.1132 2.78109 17.3305 2.77076C16.0277 2.71221 15.6369 2.69968 12.343 2.69968ZM12.343 19.1566C11.0896 19.1562 9.8645 18.7843 8.82252 18.0877C7.78054 17.3911 6.96851 16.4012 6.48909 15.2432C6.00967 14.0851 5.8844 12.8109 6.12912 11.5817C6.37383 10.3524 6.97755 9.22336 7.86393 8.33721C8.75031 7.45106 9.87954 6.84764 11.1088 6.60324C12.3382 6.35884 13.6123 6.48444 14.7703 6.96415C15.9282 7.44387 16.9179 8.25616 17.6142 9.29832C18.3105 10.3405 18.6821 11.5657 18.6821 12.8191C18.68 14.4995 18.0114 16.1105 16.823 17.2986C15.6346 18.4867 14.0234 19.1549 12.343 19.1566ZM12.343 8.7041C11.5293 8.70421 10.7339 8.94559 10.0573 9.39773C9.38082 9.84987 8.85355 10.4925 8.5422 11.2443C8.23086 11.996 8.14943 12.8233 8.3082 13.6213C8.46697 14.4194 8.85882 15.1525 9.4342 15.7279C10.0096 16.3032 10.7427 16.6951 11.5407 16.8539C12.3388 17.0126 13.166 16.9312 13.9178 16.6199C14.6696 16.3085 15.3122 15.7812 15.7643 15.1047C16.2165 14.4282 16.4579 13.6328 16.458 12.8191C16.4569 11.728 16.0231 10.6819 15.2516 9.91046C14.4801 9.13897 13.434 8.70511 12.343 8.7041ZM18.9335 7.71117C18.6406 7.71133 18.3542 7.62461 18.1105 7.46197C17.8669 7.29934 17.677 7.06809 17.5648 6.7975C17.4527 6.52691 17.4233 6.22913 17.4804 5.94183C17.5375 5.65453 17.6785 5.39062 17.8857 5.18349C18.0928 4.97637 18.3567 4.83533 18.644 4.77822C18.9313 4.72112 19.2291 4.75051 19.4997 4.86268C19.7703 4.97485 20.0015 5.16476 20.1641 5.40838C20.3268 5.652 20.4135 5.93839 20.4133 6.23131C20.4124 6.6235 20.2562 6.99937 19.9789 7.2767C19.7015 7.55402 19.3257 7.71024 18.9335 7.71117Z" fill="#C4C4C4"/>
</g>
<defs>
<clipPath id="clip0">
<rect y="0.353027" width="24.6857" height="24.6857" fill="white"/>
</clipPath>
</defs>
</svg>
