<svg width="25" height="26" viewBox="0 0 25 26" fill="none" xmlns="http://www.w3.org/2000/svg">
<path d="M5.78037 8.38208H0.489273V25.038H5.78037V8.38208Z" fill="#C4C4C4"/>
<path d="M6.12893 3.23004C6.09458 1.59692 4.97992 0.353027 3.16987 0.353027C1.35982 0.353027 0.176468 1.59692 0.176468 3.23004C0.176468 4.82934 1.32484 6.10905 3.10118 6.10905H3.135C4.97992 6.10905 6.12893 4.82934 6.12893 3.23004Z" fill="#C4C4C4"/>
<path d="M24.8621 15.4882C24.8621 10.3723 22.2518 7.99121 18.7701 7.99121C15.9608 7.99121 14.7031 9.60784 14.0008 10.7419V8.38277H8.70911C8.77885 9.94567 8.70911 25.0387 8.70911 25.0387H14.0008V15.7366C14.0008 15.2389 14.0352 14.7423 14.1751 14.3859C14.5575 13.3914 15.4282 12.3618 16.8899 12.3618C18.8053 12.3618 19.571 13.8891 19.571 16.1273V25.0382H24.8619L24.8621 15.4882Z" fill="#C4C4C4"/>
</svg>
