<svg width="334" height="301" viewBox="0 0 334 301" fill="none" xmlns="http://www.w3.org/2000/svg">
<path d="M1.2337 0.5625L333.933 1.76937L332.916 300.618L0.216561 299.411L1.2337 0.5625Z" fill="#CFCBCB" fill-opacity="0.3"/>
<path d="M80.8753 76.957C81.262 76.957 81.5999 76.8398 81.889 76.6055C82.178 76.3711 82.3382 76.0781 82.3695 75.7266H83.3948C83.3753 76.0898 83.2503 76.4355 83.0198 76.7637C82.7894 77.0918 82.4808 77.3535 82.0941 77.5488C81.7113 77.7441 81.305 77.8418 80.8753 77.8418C80.012 77.8418 79.3245 77.5547 78.8128 76.9805C78.305 76.4023 78.0511 75.6133 78.0511 74.6133V74.4316C78.0511 73.8145 78.1644 73.2656 78.3909 72.7852C78.6175 72.3047 78.9417 71.9316 79.3636 71.666C79.7894 71.4004 80.2913 71.2676 80.8695 71.2676C81.5804 71.2676 82.1702 71.4805 82.639 71.9062C83.1116 72.332 83.3636 72.8848 83.3948 73.5645H82.3695C82.3382 73.1543 82.182 72.8184 81.9007 72.5566C81.6234 72.291 81.2796 72.1582 80.8695 72.1582C80.3187 72.1582 79.8909 72.3574 79.5863 72.7559C79.2855 73.1504 79.1351 73.7227 79.1351 74.4727V74.6777C79.1351 75.4082 79.2855 75.9707 79.5863 76.3652C79.887 76.7598 80.3167 76.957 80.8753 76.957ZM85.7913 77.7246H84.7073V68.7246H85.7913V77.7246ZM87.2445 74.4961C87.2445 73.875 87.3655 73.3164 87.6077 72.8203C87.8538 72.3242 88.1937 71.9414 88.6273 71.6719C89.0648 71.4023 89.5628 71.2676 90.1214 71.2676C90.9847 71.2676 91.682 71.5664 92.2132 72.1641C92.7484 72.7617 93.0159 73.5566 93.0159 74.5488V74.625C93.0159 75.2422 92.8968 75.7969 92.6585 76.2891C92.4241 76.7773 92.0863 77.1582 91.6448 77.4316C91.2073 77.7051 90.7034 77.8418 90.1331 77.8418C89.2738 77.8418 88.5765 77.543 88.0413 76.9453C87.5101 76.3477 87.2445 75.5566 87.2445 74.5723V74.4961ZM88.3343 74.625C88.3343 75.3281 88.4964 75.8926 88.8206 76.3184C89.1488 76.7441 89.5863 76.957 90.1331 76.957C90.6839 76.957 91.1214 76.7422 91.4456 76.3125C91.7698 75.8789 91.932 75.2734 91.932 74.4961C91.932 73.8008 91.7659 73.2383 91.4339 72.8086C91.1058 72.375 90.6683 72.1582 90.1214 72.1582C89.5863 72.1582 89.1546 72.3711 88.8265 72.7969C88.4984 73.2227 88.3343 73.832 88.3343 74.625ZM98.2894 77.0977C97.8675 77.5938 97.2484 77.8418 96.432 77.8418C95.7562 77.8418 95.2405 77.6465 94.8851 77.2559C94.5335 76.8613 94.3558 76.2793 94.3519 75.5098V71.3848H95.4359V75.4805C95.4359 76.4414 95.8265 76.9219 96.6077 76.9219C97.4359 76.9219 97.9866 76.6133 98.2601 75.9961V71.3848H99.3441V77.7246H98.3128L98.2894 77.0977ZM100.733 74.502C100.733 73.5293 100.963 72.748 101.424 72.1582C101.885 71.5645 102.489 71.2676 103.235 71.2676C103.977 71.2676 104.565 71.5215 104.998 72.0293V68.7246H106.082V77.7246H105.086L105.034 77.0449C104.6 77.5762 103.996 77.8418 103.223 77.8418C102.489 77.8418 101.889 77.541 101.424 76.9395C100.963 76.3379 100.733 75.5527 100.733 74.584V74.502ZM101.817 74.625C101.817 75.3438 101.965 75.9062 102.262 76.3125C102.559 76.7188 102.969 76.9219 103.493 76.9219C104.18 76.9219 104.682 76.6133 104.998 75.9961V73.084C104.674 72.4863 104.176 72.1875 103.504 72.1875C102.973 72.1875 102.559 72.3926 102.262 72.8027C101.965 73.2129 101.817 73.8203 101.817 74.625ZM76.5921 94.043C76.5921 93.75 76.4808 93.5234 76.2581 93.3633C76.0394 93.1992 75.6546 93.0586 75.1038 92.9414C74.557 92.8242 74.1214 92.6836 73.7972 92.5195C73.4769 92.3555 73.2386 92.1602 73.0823 91.9336C72.93 91.707 72.8538 91.4375 72.8538 91.125C72.8538 90.6055 73.0726 90.166 73.5101 89.8066C73.9515 89.4473 74.514 89.2676 75.1976 89.2676C75.9163 89.2676 76.4984 89.4531 76.9437 89.8242C77.3929 90.1953 77.6175 90.6699 77.6175 91.248H76.5277C76.5277 90.9512 76.4007 90.6953 76.1468 90.4805C75.8968 90.2656 75.5804 90.1582 75.1976 90.1582C74.803 90.1582 74.4945 90.2441 74.2718 90.416C74.0491 90.5879 73.9378 90.8125 73.9378 91.0898C73.9378 91.3516 74.0413 91.5488 74.2484 91.6816C74.4554 91.8145 74.8284 91.9414 75.3675 92.0625C75.9105 92.1836 76.3499 92.3281 76.6859 92.4961C77.0218 92.6641 77.2698 92.8672 77.43 93.1055C77.5941 93.3398 77.6761 93.627 77.6761 93.9668C77.6761 94.5332 77.4495 94.9883 76.9964 95.332C76.5433 95.6719 75.9554 95.8418 75.2327 95.8418C74.7249 95.8418 74.2757 95.752 73.8851 95.5723C73.4945 95.3926 73.1878 95.1426 72.9652 94.8223C72.7464 94.498 72.637 94.1484 72.637 93.7734H73.721C73.7405 94.1367 73.8851 94.4258 74.1546 94.6406C74.428 94.8516 74.7874 94.957 75.2327 94.957C75.6429 94.957 75.971 94.875 76.2171 94.7109C76.4671 94.543 76.5921 94.3203 76.5921 94.043ZM80.5589 87.8496V89.3848H81.7425V90.2227H80.5589V94.1543C80.5589 94.4082 80.6116 94.5996 80.7171 94.7285C80.8226 94.8535 81.0023 94.916 81.2562 94.916C81.3812 94.916 81.553 94.8926 81.7718 94.8457V95.7246C81.4866 95.8027 81.2093 95.8418 80.9398 95.8418C80.4554 95.8418 80.0902 95.6953 79.8441 95.4023C79.598 95.1094 79.4749 94.6934 79.4749 94.1543V90.2227H78.3206V89.3848H79.4749V87.8496H80.5589ZM82.6097 92.4961C82.6097 91.875 82.7308 91.3164 82.973 90.8203C83.2191 90.3242 83.5589 89.9414 83.9925 89.6719C84.43 89.4023 84.928 89.2676 85.4866 89.2676C86.3499 89.2676 87.0472 89.5664 87.5784 90.1641C88.1136 90.7617 88.3812 91.5566 88.3812 92.5488V92.625C88.3812 93.2422 88.262 93.7969 88.0238 94.2891C87.7894 94.7773 87.4515 95.1582 87.0101 95.4316C86.5726 95.7051 86.0687 95.8418 85.4984 95.8418C84.639 95.8418 83.9417 95.543 83.4066 94.9453C82.8753 94.3477 82.6097 93.5566 82.6097 92.5723V92.4961ZM83.6995 92.625C83.6995 93.3281 83.8616 93.8926 84.1859 94.3184C84.514 94.7441 84.9515 94.957 85.4984 94.957C86.0491 94.957 86.4866 94.7422 86.8109 94.3125C87.1351 93.8789 87.2972 93.2734 87.2972 92.4961C87.2972 91.8008 87.1312 91.2383 86.7991 90.8086C86.471 90.375 86.0335 90.1582 85.4866 90.1582C84.9515 90.1582 84.5198 90.3711 84.1917 90.7969C83.8636 91.2227 83.6995 91.832 83.6995 92.625ZM92.805 90.3574C92.6409 90.3301 92.4632 90.3164 92.2718 90.3164C91.5609 90.3164 91.0784 90.6191 90.8245 91.2246V95.7246H89.7405V89.3848H90.7952L90.8128 90.1172C91.1683 89.5508 91.6722 89.2676 92.3245 89.2676C92.5355 89.2676 92.6956 89.2949 92.805 89.3496V90.3574ZM97.4866 95.7246C97.4241 95.5996 97.3734 95.377 97.3343 95.0566C96.8304 95.5801 96.2288 95.8418 95.5296 95.8418C94.9046 95.8418 94.3909 95.666 93.9886 95.3145C93.5902 94.959 93.3909 94.5098 93.3909 93.9668C93.3909 93.3066 93.6409 92.7949 94.1409 92.4316C94.6448 92.0645 95.3519 91.8809 96.262 91.8809H97.3167V91.3828C97.3167 91.0039 97.2034 90.7031 96.9769 90.4805C96.7503 90.2539 96.4163 90.1406 95.9749 90.1406C95.5882 90.1406 95.264 90.2383 95.0023 90.4336C94.7405 90.6289 94.6097 90.8652 94.6097 91.1426H93.5198C93.5198 90.8262 93.6312 90.5215 93.8538 90.2285C94.0804 89.9316 94.3851 89.6973 94.7679 89.5254C95.1546 89.3535 95.5784 89.2676 96.0394 89.2676C96.7698 89.2676 97.3421 89.4512 97.7562 89.8184C98.1702 90.1816 98.3851 90.6836 98.4007 91.3242V94.2422C98.4007 94.8242 98.4749 95.2871 98.6234 95.6309V95.7246H97.4866ZM95.6878 94.8984C96.0277 94.8984 96.3499 94.8105 96.6546 94.6348C96.9593 94.459 97.18 94.2305 97.3167 93.9492V92.6484H96.4671C95.139 92.6484 94.4749 93.0371 94.4749 93.8145C94.4749 94.1543 94.5882 94.4199 94.8148 94.6113C95.0413 94.8027 95.3323 94.8984 95.6878 94.8984ZM99.8421 92.502C99.8421 91.5137 100.071 90.7285 100.528 90.1465C100.985 89.5605 101.59 89.2676 102.344 89.2676C103.118 89.2676 103.721 89.541 104.155 90.0879L104.207 89.3848H105.198V95.5723C105.198 96.3926 104.953 97.0391 104.465 97.5117C103.981 97.9844 103.328 98.2207 102.508 98.2207C102.051 98.2207 101.604 98.123 101.166 97.9277C100.729 97.7324 100.395 97.4648 100.164 97.125L100.727 96.4746C101.192 97.0488 101.76 97.3359 102.432 97.3359C102.959 97.3359 103.369 97.1875 103.662 96.8906C103.959 96.5938 104.108 96.1758 104.108 95.6367V95.0918C103.674 95.5918 103.082 95.8418 102.332 95.8418C101.59 95.8418 100.989 95.543 100.528 94.9453C100.071 94.3477 99.8421 93.5332 99.8421 92.502ZM100.932 92.625C100.932 93.3398 101.078 93.9023 101.371 94.3125C101.664 94.7188 102.075 94.9219 102.602 94.9219C103.285 94.9219 103.787 94.6113 104.108 93.9902V91.0957C103.776 90.4902 103.278 90.1875 102.614 90.1875C102.086 90.1875 101.674 90.3926 101.377 90.8027C101.08 91.2129 100.932 91.8203 100.932 92.625ZM109.469 95.8418C108.61 95.8418 107.91 95.5605 107.371 94.998C106.832 94.4316 106.563 93.6758 106.563 92.7305V92.5312C106.563 91.9023 106.682 91.3418 106.92 90.8496C107.162 90.3535 107.498 89.9668 107.928 89.6895C108.362 89.4082 108.83 89.2676 109.334 89.2676C110.159 89.2676 110.799 89.5391 111.256 90.082C111.713 90.625 111.942 91.4023 111.942 92.4141V92.8652H107.647C107.662 93.4902 107.844 93.9961 108.192 94.3828C108.543 94.7656 108.989 94.957 109.528 94.957C109.91 94.957 110.235 94.8789 110.5 94.7227C110.766 94.5664 110.998 94.3594 111.198 94.1016L111.86 94.6172C111.328 95.4336 110.532 95.8418 109.469 95.8418ZM109.334 90.1582C108.897 90.1582 108.53 90.3184 108.233 90.6387C107.936 90.9551 107.752 91.4004 107.682 91.9746H110.858V91.8926C110.826 91.3418 110.678 90.916 110.412 90.6152C110.147 90.3105 109.787 90.1582 109.334 90.1582ZM78.9945 113.098C78.5726 113.594 77.9534 113.842 77.137 113.842C76.4613 113.842 75.9456 113.646 75.5902 113.256C75.2386 112.861 75.0609 112.279 75.057 111.51V107.385H76.1409V111.48C76.1409 112.441 76.5316 112.922 77.3128 112.922C78.1409 112.922 78.6917 112.613 78.9652 111.996V107.385H80.0491V113.725H79.0179L78.9945 113.098ZM82.7269 107.385L82.762 108.182C83.2464 107.572 83.8792 107.268 84.6605 107.268C86.0003 107.268 86.6761 108.023 86.6878 109.535V113.725H85.6038V109.529C85.5999 109.072 85.4945 108.734 85.2874 108.516C85.0843 108.297 84.7659 108.188 84.3323 108.188C83.9808 108.188 83.6722 108.281 83.4066 108.469C83.1409 108.656 82.9339 108.902 82.7855 109.207V113.725H81.7015V107.385H82.7269ZM89.5003 113.725H88.4163V107.385H89.5003V113.725ZM88.3284 105.703C88.3284 105.527 88.3812 105.379 88.4866 105.258C88.596 105.137 88.7562 105.076 88.9671 105.076C89.178 105.076 89.3382 105.137 89.4476 105.258C89.557 105.379 89.6116 105.527 89.6116 105.703C89.6116 105.879 89.557 106.025 89.4476 106.143C89.3382 106.26 89.178 106.318 88.9671 106.318C88.7562 106.318 88.596 106.26 88.4866 106.143C88.3812 106.025 88.3284 105.879 88.3284 105.703ZM91.6038 113.725V108.223H90.6019V107.385H91.6038V106.846C91.6038 106.139 91.805 105.588 92.2073 105.193C92.6136 104.799 93.1859 104.602 93.9241 104.602C94.3616 104.602 94.9144 104.721 95.5823 104.959L95.4007 105.873C94.9124 105.678 94.4476 105.58 94.0062 105.58C93.5413 105.58 93.2054 105.686 92.9984 105.896C92.7952 106.104 92.6937 106.416 92.6937 106.834V107.385H93.9886V108.223H92.6937V113.725H91.6038ZM96.1214 113.725H95.0316V107.385H96.1214V113.725ZM100.516 113.842C99.6566 113.842 98.9573 113.561 98.4183 112.998C97.8792 112.432 97.6097 111.676 97.6097 110.73V110.531C97.6097 109.902 97.7288 109.342 97.9671 108.85C98.2093 108.354 98.5452 107.967 98.9749 107.689C99.4085 107.408 99.8773 107.268 100.381 107.268C101.205 107.268 101.846 107.539 102.303 108.082C102.76 108.625 102.989 109.402 102.989 110.414V110.865H98.6937C98.7093 111.49 98.8909 111.996 99.2386 112.383C99.5902 112.766 100.035 112.957 100.575 112.957C100.957 112.957 101.282 112.879 101.547 112.723C101.813 112.566 102.045 112.359 102.244 112.102L102.907 112.617C102.375 113.434 101.578 113.842 100.516 113.842ZM100.381 108.158C99.9437 108.158 99.5765 108.318 99.2796 108.639C98.9827 108.955 98.7991 109.4 98.7288 109.975H101.905V109.893C101.873 109.342 101.725 108.916 101.459 108.615C101.194 108.311 100.834 108.158 100.381 108.158ZM103.985 110.502C103.985 109.529 104.215 108.748 104.676 108.158C105.137 107.564 105.741 107.268 106.487 107.268C107.229 107.268 107.817 107.521 108.25 108.029V104.725H109.334V113.725H108.338L108.285 113.045C107.852 113.576 107.248 113.842 106.475 113.842C105.741 113.842 105.141 113.541 104.676 112.939C104.215 112.338 103.985 111.553 103.985 110.584V110.502ZM105.069 110.625C105.069 111.344 105.217 111.906 105.514 112.312C105.811 112.719 106.221 112.922 106.744 112.922C107.432 112.922 107.934 112.613 108.25 111.996V109.084C107.926 108.486 107.428 108.188 106.756 108.188C106.225 108.188 105.811 108.393 105.514 108.803C105.217 109.213 105.069 109.82 105.069 110.625ZM74.5648 130.957C74.9515 130.957 75.2894 130.84 75.5784 130.605C75.8675 130.371 76.0277 130.078 76.0589 129.727H77.0843C77.0648 130.09 76.9398 130.436 76.7093 130.764C76.4788 131.092 76.1702 131.354 75.7835 131.549C75.4007 131.744 74.9945 131.842 74.5648 131.842C73.7015 131.842 73.014 131.555 72.5023 130.98C71.9945 130.402 71.7405 129.613 71.7405 128.613V128.432C71.7405 127.814 71.8538 127.266 72.0804 126.785C72.307 126.305 72.6312 125.932 73.053 125.666C73.4788 125.4 73.9808 125.268 74.5589 125.268C75.2698 125.268 75.8597 125.48 76.3284 125.906C76.8011 126.332 77.053 126.885 77.0843 127.564H76.0589C76.0277 127.154 75.8714 126.818 75.5902 126.557C75.3128 126.291 74.9691 126.158 74.5589 126.158C74.0081 126.158 73.5804 126.357 73.2757 126.756C72.9749 127.15 72.8245 127.723 72.8245 128.473V128.678C72.8245 129.408 72.9749 129.971 73.2757 130.365C73.5765 130.76 74.0062 130.957 74.5648 130.957ZM81.3675 126.357C81.2034 126.33 81.0257 126.316 80.8343 126.316C80.1234 126.316 79.6409 126.619 79.387 127.225V131.725H78.303V125.385H79.3577L79.3753 126.117C79.7308 125.551 80.2347 125.268 80.887 125.268C81.098 125.268 81.2581 125.295 81.3675 125.35V126.357ZM84.8831 131.842C84.0238 131.842 83.3245 131.561 82.7855 130.998C82.2464 130.432 81.9769 129.676 81.9769 128.73V128.531C81.9769 127.902 82.096 127.342 82.3343 126.85C82.5765 126.354 82.9124 125.967 83.3421 125.689C83.7757 125.408 84.2445 125.268 84.7484 125.268C85.5726 125.268 86.2132 125.539 86.6702 126.082C87.1273 126.625 87.3558 127.402 87.3558 128.414V128.865H83.0609C83.0765 129.49 83.2581 129.996 83.6058 130.383C83.9573 130.766 84.4027 130.957 84.9417 130.957C85.3245 130.957 85.6488 130.879 85.9144 130.723C86.18 130.566 86.4124 130.359 86.6116 130.102L87.2738 130.617C86.7425 131.434 85.9456 131.842 84.8831 131.842ZM84.7484 126.158C84.3109 126.158 83.9437 126.318 83.6468 126.639C83.3499 126.955 83.1663 127.4 83.096 127.975H86.2718V127.893C86.2405 127.342 86.0921 126.916 85.8265 126.615C85.5609 126.311 85.2015 126.158 84.7484 126.158ZM92.5296 131.725C92.4671 131.6 92.4163 131.377 92.3773 131.057C91.8734 131.58 91.2718 131.842 90.5726 131.842C89.9476 131.842 89.4339 131.666 89.0316 131.314C88.6331 130.959 88.4339 130.51 88.4339 129.967C88.4339 129.307 88.6839 128.795 89.1839 128.432C89.6878 128.064 90.3948 127.881 91.305 127.881H92.3597V127.383C92.3597 127.004 92.2464 126.703 92.0198 126.48C91.7933 126.254 91.4593 126.141 91.0179 126.141C90.6312 126.141 90.307 126.238 90.0452 126.434C89.7835 126.629 89.6527 126.865 89.6527 127.143H88.5628C88.5628 126.826 88.6741 126.521 88.8968 126.229C89.1234 125.932 89.428 125.697 89.8109 125.525C90.1976 125.354 90.6214 125.268 91.0823 125.268C91.8128 125.268 92.3851 125.451 92.7991 125.818C93.2132 126.182 93.428 126.684 93.4437 127.324V130.242C93.4437 130.824 93.5179 131.287 93.6663 131.631V131.725H92.5296ZM90.7308 130.898C91.0706 130.898 91.3929 130.811 91.6976 130.635C92.0023 130.459 92.223 130.23 92.3597 129.949V128.648H91.5101C90.182 128.648 89.5179 129.037 89.5179 129.814C89.5179 130.154 89.6312 130.42 89.8577 130.611C90.0843 130.803 90.3753 130.898 90.7308 130.898ZM96.6136 123.85V125.385H97.7972V126.223H96.6136V130.154C96.6136 130.408 96.6663 130.6 96.7718 130.729C96.8773 130.854 97.057 130.916 97.3109 130.916C97.4359 130.916 97.6077 130.893 97.8265 130.846V131.725C97.5413 131.803 97.264 131.842 96.9945 131.842C96.5101 131.842 96.1448 131.695 95.8988 131.402C95.6527 131.109 95.5296 130.693 95.5296 130.154V126.223H94.3753V125.385H95.5296V123.85H96.6136ZM100.246 131.725H99.1624V125.385H100.246V131.725ZM99.0745 123.703C99.0745 123.527 99.1273 123.379 99.2327 123.258C99.3421 123.137 99.5023 123.076 99.7132 123.076C99.9241 123.076 100.084 123.137 100.194 123.258C100.303 123.379 100.358 123.527 100.358 123.703C100.358 123.879 100.303 124.025 100.194 124.143C100.084 124.26 99.9241 124.318 99.7132 124.318C99.5023 124.318 99.3421 124.26 99.2327 124.143C99.1273 124.025 99.0745 123.879 99.0745 123.703ZM104.078 130.254L105.649 125.385H106.756L104.483 131.725H103.657L101.36 125.385H102.467L104.078 130.254ZM110.348 131.842C109.489 131.842 108.789 131.561 108.25 130.998C107.711 130.432 107.442 129.676 107.442 128.73V128.531C107.442 127.902 107.561 127.342 107.799 126.85C108.041 126.354 108.377 125.967 108.807 125.689C109.241 125.408 109.709 125.268 110.213 125.268C111.037 125.268 111.678 125.539 112.135 126.082C112.592 126.625 112.821 127.402 112.821 128.414V128.865H108.526C108.541 129.49 108.723 129.996 109.071 130.383C109.422 130.766 109.868 130.957 110.407 130.957C110.789 130.957 111.114 130.879 111.379 130.723C111.645 130.566 111.877 130.359 112.076 130.102L112.739 130.617C112.207 131.434 111.41 131.842 110.348 131.842ZM110.213 126.158C109.776 126.158 109.409 126.318 109.112 126.639C108.815 126.955 108.631 127.4 108.561 127.975H111.737V127.893C111.705 127.342 111.557 126.916 111.291 126.615C111.026 126.311 110.666 126.158 110.213 126.158ZM78.4261 146.502C78.4261 145.506 78.6546 144.719 79.1116 144.141C79.5687 143.559 80.182 143.268 80.9515 143.268C81.7015 143.268 82.2933 143.52 82.7269 144.023L82.7738 143.385H83.7698V152.162H82.6859V149.139C82.2484 149.607 81.6663 149.842 80.9398 149.842C80.1741 149.842 79.5628 149.545 79.1058 148.951C78.6527 148.354 78.4261 147.562 78.4261 146.578V146.502ZM79.5101 146.625C79.5101 147.352 79.6624 147.922 79.9671 148.336C80.2757 148.75 80.6898 148.957 81.2093 148.957C81.8538 148.957 82.346 148.672 82.6859 148.102V144.996C82.3421 144.438 81.8538 144.158 81.221 144.158C80.6976 144.158 80.2816 144.367 79.973 144.785C79.6644 145.199 79.5101 145.812 79.5101 146.625ZM89.4241 149.098C89.0023 149.594 88.3831 149.842 87.5667 149.842C86.8909 149.842 86.3753 149.646 86.0198 149.256C85.6683 148.861 85.4905 148.279 85.4866 147.51V143.385H86.5706V147.48C86.5706 148.441 86.9613 148.922 87.7425 148.922C88.5706 148.922 89.1214 148.613 89.3948 147.996V143.385H90.4788V149.725H89.4476L89.4241 149.098ZM93.3089 149.725H92.2249V143.385H93.3089V149.725ZM92.137 141.703C92.137 141.527 92.1898 141.379 92.2952 141.258C92.4046 141.137 92.5648 141.076 92.7757 141.076C92.9866 141.076 93.1468 141.137 93.2562 141.258C93.3655 141.379 93.4202 141.527 93.4202 141.703C93.4202 141.879 93.3655 142.025 93.2562 142.143C93.1468 142.26 92.9866 142.318 92.7757 142.318C92.5648 142.318 92.4046 142.26 92.2952 142.143C92.1898 142.025 92.137 141.879 92.137 141.703ZM97.5921 148.957C97.9788 148.957 98.3167 148.84 98.6058 148.605C98.8948 148.371 99.055 148.078 99.0863 147.727H100.112C100.092 148.09 99.9671 148.436 99.7366 148.764C99.5062 149.092 99.1976 149.354 98.8109 149.549C98.428 149.744 98.0218 149.842 97.5921 149.842C96.7288 149.842 96.0413 149.555 95.5296 148.98C95.0218 148.402 94.7679 147.613 94.7679 146.613V146.432C94.7679 145.814 94.8812 145.266 95.1077 144.785C95.3343 144.305 95.6585 143.932 96.0804 143.666C96.5062 143.4 97.0081 143.268 97.5863 143.268C98.2972 143.268 98.887 143.48 99.3558 143.906C99.8284 144.332 100.08 144.885 100.112 145.564H99.0863C99.055 145.154 98.8988 144.818 98.6175 144.557C98.3402 144.291 97.9964 144.158 97.5863 144.158C97.0355 144.158 96.6077 144.357 96.303 144.756C96.0023 145.15 95.8519 145.723 95.8519 146.473V146.678C95.8519 147.408 96.0023 147.971 96.303 148.365C96.6038 148.76 97.0335 148.957 97.5921 148.957ZM103.1 146.789L102.42 147.498V149.725H101.336V140.725H102.42V146.168L103 145.471L104.975 143.385H106.293L103.826 146.033L106.58 149.725H105.309L103.1 146.789ZM81.8128 167.842C80.9534 167.842 80.2542 167.561 79.7152 166.998C79.1761 166.432 78.9066 165.676 78.9066 164.73V164.531C78.9066 163.902 79.0257 163.342 79.264 162.85C79.5062 162.354 79.8421 161.967 80.2718 161.689C80.7054 161.408 81.1741 161.268 81.678 161.268C82.5023 161.268 83.1429 161.539 83.5999 162.082C84.057 162.625 84.2855 163.402 84.2855 164.414V164.865H79.9905C80.0062 165.49 80.1878 165.996 80.5355 166.383C80.887 166.766 81.3323 166.957 81.8714 166.957C82.2542 166.957 82.5784 166.879 82.8441 166.723C83.1097 166.566 83.3421 166.359 83.5413 166.102L84.2034 166.617C83.6722 167.434 82.8753 167.842 81.8128 167.842ZM81.678 162.158C81.2405 162.158 80.8734 162.318 80.5765 162.639C80.2796 162.955 80.096 163.4 80.0257 163.975H83.2015V163.893C83.1702 163.342 83.0218 162.916 82.7562 162.615C82.4905 162.311 82.1312 162.158 81.678 162.158ZM89.4593 167.725C89.3968 167.6 89.346 167.377 89.307 167.057C88.803 167.58 88.2015 167.842 87.5023 167.842C86.8773 167.842 86.3636 167.666 85.9613 167.314C85.5628 166.959 85.3636 166.51 85.3636 165.967C85.3636 165.307 85.6136 164.795 86.1136 164.432C86.6175 164.064 87.3245 163.881 88.2347 163.881H89.2894V163.383C89.2894 163.004 89.1761 162.703 88.9495 162.48C88.723 162.254 88.389 162.141 87.9476 162.141C87.5609 162.141 87.2366 162.238 86.9749 162.434C86.7132 162.629 86.5823 162.865 86.5823 163.143H85.4925C85.4925 162.826 85.6038 162.521 85.8265 162.229C86.053 161.932 86.3577 161.697 86.7405 161.525C87.1273 161.354 87.5511 161.268 88.012 161.268C88.7425 161.268 89.3148 161.451 89.7288 161.818C90.1429 162.182 90.3577 162.684 90.3734 163.324V166.242C90.3734 166.824 90.4476 167.287 90.596 167.631V167.725H89.4593ZM87.6605 166.898C88.0003 166.898 88.3226 166.811 88.6273 166.635C88.932 166.459 89.1527 166.23 89.2894 165.949V164.648H88.4398C87.1116 164.648 86.4476 165.037 86.4476 165.814C86.4476 166.154 86.5609 166.42 86.7874 166.611C87.014 166.803 87.305 166.898 87.6605 166.898ZM95.764 166.043C95.764 165.75 95.6527 165.523 95.43 165.363C95.2113 165.199 94.8265 165.059 94.2757 164.941C93.7288 164.824 93.2933 164.684 92.9691 164.52C92.6488 164.355 92.4105 164.16 92.2542 163.934C92.1019 163.707 92.0257 163.438 92.0257 163.125C92.0257 162.605 92.2445 162.166 92.682 161.807C93.1234 161.447 93.6859 161.268 94.3695 161.268C95.0882 161.268 95.6702 161.453 96.1155 161.824C96.5648 162.195 96.7894 162.67 96.7894 163.248H95.6995C95.6995 162.951 95.5726 162.695 95.3187 162.48C95.0687 162.266 94.7523 162.158 94.3695 162.158C93.9749 162.158 93.6663 162.244 93.4437 162.416C93.221 162.588 93.1097 162.812 93.1097 163.09C93.1097 163.352 93.2132 163.549 93.4202 163.682C93.6273 163.814 94.0003 163.941 94.5394 164.062C95.0823 164.184 95.5218 164.328 95.8577 164.496C96.1937 164.664 96.4417 164.867 96.6019 165.105C96.7659 165.34 96.848 165.627 96.848 165.967C96.848 166.533 96.6214 166.988 96.1683 167.332C95.7152 167.672 95.1273 167.842 94.4046 167.842C93.8968 167.842 93.4476 167.752 93.057 167.572C92.6663 167.393 92.3597 167.143 92.137 166.822C91.9183 166.498 91.8089 166.148 91.8089 165.773H92.8929C92.9124 166.137 93.057 166.426 93.3265 166.641C93.5999 166.852 93.9593 166.957 94.4046 166.957C94.8148 166.957 95.1429 166.875 95.389 166.711C95.639 166.543 95.764 166.32 95.764 166.043ZM100.334 166.137L101.811 161.385H102.971L100.422 168.703C100.028 169.758 99.4007 170.285 98.5413 170.285L98.3363 170.268L97.932 170.191V169.312L98.2249 169.336C98.5921 169.336 98.8773 169.262 99.0804 169.113C99.2874 168.965 99.4573 168.693 99.5902 168.299L99.8304 167.654L97.5687 161.385H98.7523L100.334 166.137ZM66.8597 185.725V180.223H65.8577V179.385H66.8597V178.734C66.8597 178.055 67.0413 177.529 67.4046 177.158C67.7679 176.787 68.2816 176.602 68.9456 176.602C69.1956 176.602 69.4437 176.635 69.6898 176.701L69.6312 177.58C69.4476 177.545 69.2523 177.527 69.0452 177.527C68.6937 177.527 68.4222 177.631 68.2308 177.838C68.0394 178.041 67.9437 178.334 67.9437 178.717V179.385H69.2972V180.223H67.9437V185.725H66.8597ZM74.4124 185.098C73.9905 185.594 73.3714 185.842 72.555 185.842C71.8792 185.842 71.3636 185.646 71.0081 185.256C70.6566 184.861 70.4788 184.279 70.4749 183.51V179.385H71.5589V183.48C71.5589 184.441 71.9495 184.922 72.7308 184.922C73.5589 184.922 74.1097 184.613 74.3831 183.996V179.385H75.4671V185.725H74.4359L74.4124 185.098ZM78.1448 179.385L78.18 180.182C78.6644 179.572 79.2972 179.268 80.0784 179.268C81.4183 179.268 82.0941 180.023 82.1058 181.535V185.725H81.0218V181.529C81.0179 181.072 80.9124 180.734 80.7054 180.516C80.5023 180.297 80.1839 180.188 79.7503 180.188C79.3988 180.188 79.0902 180.281 78.8245 180.469C78.5589 180.656 78.3519 180.902 78.2034 181.207V185.725H77.1195V179.385H78.1448ZM86.2835 184.957C86.6702 184.957 87.0081 184.84 87.2972 184.605C87.5863 184.371 87.7464 184.078 87.7777 183.727H88.803C88.7835 184.09 88.6585 184.436 88.428 184.764C88.1976 185.092 87.889 185.354 87.5023 185.549C87.1195 185.744 86.7132 185.842 86.2835 185.842C85.4202 185.842 84.7327 185.555 84.221 184.98C83.7132 184.402 83.4593 183.613 83.4593 182.613V182.432C83.4593 181.814 83.5726 181.266 83.7991 180.785C84.0257 180.305 84.3499 179.932 84.7718 179.666C85.1976 179.4 85.6995 179.268 86.2777 179.268C86.9886 179.268 87.5784 179.48 88.0472 179.906C88.5198 180.332 88.7718 180.885 88.803 181.564H87.7777C87.7464 181.154 87.5902 180.818 87.3089 180.557C87.0316 180.291 86.6878 180.158 86.2777 180.158C85.7269 180.158 85.2991 180.357 84.9945 180.756C84.6937 181.15 84.5433 181.723 84.5433 182.473V182.678C84.5433 183.408 84.6937 183.971 84.9945 184.365C85.2952 184.76 85.7249 184.957 86.2835 184.957ZM91.4925 177.85V179.385H92.6761V180.223H91.4925V184.154C91.4925 184.408 91.5452 184.6 91.6507 184.729C91.7562 184.854 91.9359 184.916 92.1898 184.916C92.3148 184.916 92.4866 184.893 92.7054 184.846V185.725C92.4202 185.803 92.1429 185.842 91.8734 185.842C91.389 185.842 91.0238 185.695 90.7777 185.402C90.5316 185.109 90.4085 184.693 90.4085 184.154V180.223H89.2542V179.385H90.4085V177.85H91.4925ZM95.1253 185.725H94.0413V179.385H95.1253V185.725ZM93.9534 177.703C93.9534 177.527 94.0062 177.379 94.1116 177.258C94.221 177.137 94.3812 177.076 94.5921 177.076C94.803 177.076 94.9632 177.137 95.0726 177.258C95.182 177.379 95.2366 177.527 95.2366 177.703C95.2366 177.879 95.182 178.025 95.0726 178.143C94.9632 178.26 94.803 178.318 94.5921 178.318C94.3812 178.318 94.221 178.26 94.1116 178.143C94.0062 178.025 93.9534 177.879 93.9534 177.703ZM96.5784 182.496C96.5784 181.875 96.6995 181.316 96.9417 180.82C97.1878 180.324 97.5277 179.941 97.9613 179.672C98.3988 179.402 98.8968 179.268 99.4554 179.268C100.319 179.268 101.016 179.566 101.547 180.164C102.082 180.762 102.35 181.557 102.35 182.549V182.625C102.35 183.242 102.231 183.797 101.993 184.289C101.758 184.777 101.42 185.158 100.979 185.432C100.541 185.705 100.037 185.842 99.4671 185.842C98.6077 185.842 97.9105 185.543 97.3753 184.945C96.8441 184.348 96.5784 183.557 96.5784 182.572V182.496ZM97.6683 182.625C97.6683 183.328 97.8304 183.893 98.1546 184.318C98.4827 184.744 98.9202 184.957 99.4671 184.957C100.018 184.957 100.455 184.742 100.78 184.312C101.104 183.879 101.266 183.273 101.266 182.496C101.266 181.801 101.1 181.238 100.768 180.809C100.44 180.375 100.002 180.158 99.4554 180.158C98.9202 180.158 98.4886 180.371 98.1605 180.797C97.8323 181.223 97.6683 181.832 97.6683 182.625ZM104.735 179.385L104.77 180.182C105.254 179.572 105.887 179.268 106.668 179.268C108.008 179.268 108.684 180.023 108.696 181.535V185.725H107.612V181.529C107.608 181.072 107.502 180.734 107.295 180.516C107.092 180.297 106.774 180.188 106.34 180.188C105.989 180.188 105.68 180.281 105.414 180.469C105.149 180.656 104.942 180.902 104.793 181.207V185.725H103.709V179.385H104.735ZM114.244 185.725C114.182 185.6 114.131 185.377 114.092 185.057C113.588 185.58 112.987 185.842 112.287 185.842C111.662 185.842 111.149 185.666 110.746 185.314C110.348 184.959 110.149 184.51 110.149 183.967C110.149 183.307 110.399 182.795 110.899 182.432C111.403 182.064 112.11 181.881 113.02 181.881H114.075V181.383C114.075 181.004 113.961 180.703 113.735 180.48C113.508 180.254 113.174 180.141 112.733 180.141C112.346 180.141 112.022 180.238 111.76 180.434C111.498 180.629 111.368 180.865 111.368 181.143H110.278C110.278 180.826 110.389 180.521 110.612 180.229C110.838 179.932 111.143 179.697 111.526 179.525C111.912 179.354 112.336 179.268 112.797 179.268C113.528 179.268 114.1 179.451 114.514 179.818C114.928 180.182 115.143 180.684 115.159 181.324V184.242C115.159 184.824 115.233 185.287 115.381 185.631V185.725H114.244ZM112.446 184.898C112.785 184.898 113.108 184.811 113.412 184.635C113.717 184.459 113.938 184.23 114.075 183.949V182.648H113.225C111.897 182.648 111.233 183.037 111.233 183.814C111.233 184.154 111.346 184.42 111.573 184.611C111.799 184.803 112.09 184.898 112.446 184.898ZM118.035 185.725H116.951V176.725H118.035V185.725ZM78.9183 202.043C78.9183 201.75 78.807 201.523 78.5843 201.363C78.3655 201.199 77.9808 201.059 77.43 200.941C76.8831 200.824 76.4476 200.684 76.1234 200.52C75.803 200.355 75.5648 200.16 75.4085 199.934C75.2562 199.707 75.18 199.438 75.18 199.125C75.18 198.605 75.3988 198.166 75.8363 197.807C76.2777 197.447 76.8402 197.268 77.5238 197.268C78.2425 197.268 78.8245 197.453 79.2698 197.824C79.7191 198.195 79.9437 198.67 79.9437 199.248H78.8538C78.8538 198.951 78.7269 198.695 78.473 198.48C78.223 198.266 77.9066 198.158 77.5238 198.158C77.1292 198.158 76.8206 198.244 76.598 198.416C76.3753 198.588 76.264 198.812 76.264 199.09C76.264 199.352 76.3675 199.549 76.5745 199.682C76.7816 199.814 77.1546 199.941 77.6937 200.062C78.2366 200.184 78.6761 200.328 79.012 200.496C79.348 200.664 79.596 200.867 79.7562 201.105C79.9202 201.34 80.0023 201.627 80.0023 201.967C80.0023 202.533 79.7757 202.988 79.3226 203.332C78.8695 203.672 78.2816 203.842 77.5589 203.842C77.0511 203.842 76.6019 203.752 76.2113 203.572C75.8206 203.393 75.514 203.143 75.2913 202.822C75.0726 202.498 74.9632 202.148 74.9632 201.773H76.0472C76.0667 202.137 76.2113 202.426 76.4808 202.641C76.7542 202.852 77.1136 202.957 77.5589 202.957C77.9691 202.957 78.2972 202.875 78.5433 202.711C78.7933 202.543 78.9183 202.32 78.9183 202.043ZM82.5921 203.725H81.5081V197.385H82.5921V203.725ZM81.4202 195.703C81.4202 195.527 81.473 195.379 81.5784 195.258C81.6878 195.137 81.848 195.076 82.0589 195.076C82.2698 195.076 82.43 195.137 82.5394 195.258C82.6488 195.379 82.7034 195.527 82.7034 195.703C82.7034 195.879 82.6488 196.025 82.5394 196.143C82.43 196.26 82.2698 196.318 82.0589 196.318C81.848 196.318 81.6878 196.26 81.5784 196.143C81.473 196.025 81.4202 195.879 81.4202 195.703ZM85.3519 197.385L85.3812 198.088C85.846 197.541 86.473 197.268 87.262 197.268C88.1488 197.268 88.7523 197.607 89.0726 198.287C89.2835 197.982 89.557 197.736 89.8929 197.549C90.2327 197.361 90.6331 197.268 91.0941 197.268C92.4847 197.268 93.1917 198.004 93.2152 199.477V203.725H92.1312V199.541C92.1312 199.088 92.0277 198.75 91.8206 198.527C91.6136 198.301 91.2659 198.188 90.7777 198.188C90.3753 198.188 90.0413 198.309 89.7757 198.551C89.5101 198.789 89.3558 199.111 89.3128 199.518V203.725H88.223V199.57C88.223 198.648 87.7718 198.188 86.8695 198.188C86.1585 198.188 85.6722 198.49 85.4105 199.096V203.725H84.3265V197.385H85.3519ZM100.211 200.625C100.211 201.59 99.9905 202.367 99.5491 202.957C99.1077 203.547 98.5101 203.842 97.7562 203.842C96.9866 203.842 96.3812 203.598 95.9398 203.109V206.162H94.8558V197.385H95.846L95.8988 198.088C96.3402 197.541 96.9534 197.268 97.7386 197.268C98.5003 197.268 99.1019 197.555 99.5433 198.129C99.9886 198.703 100.211 199.502 100.211 200.525V200.625ZM99.1273 200.502C99.1273 199.787 98.9749 199.223 98.6702 198.809C98.3655 198.395 97.9476 198.188 97.4163 198.188C96.7601 198.188 96.2679 198.479 95.9398 199.061V202.09C96.264 202.668 96.7601 202.957 97.428 202.957C97.9476 202.957 98.3597 202.752 98.6644 202.342C98.973 201.928 99.1273 201.314 99.1273 200.502ZM102.772 203.725H101.688V194.725H102.772V203.725ZM107.143 203.842C106.284 203.842 105.584 203.561 105.045 202.998C104.506 202.432 104.237 201.676 104.237 200.73V200.531C104.237 199.902 104.356 199.342 104.594 198.85C104.836 198.354 105.172 197.967 105.602 197.689C106.035 197.408 106.504 197.268 107.008 197.268C107.832 197.268 108.473 197.539 108.93 198.082C109.387 198.625 109.616 199.402 109.616 200.414V200.865H105.321C105.336 201.49 105.518 201.996 105.866 202.383C106.217 202.766 106.662 202.957 107.201 202.957C107.584 202.957 107.909 202.879 108.174 202.723C108.44 202.566 108.672 202.359 108.871 202.102L109.534 202.617C109.002 203.434 108.205 203.842 107.143 203.842ZM107.008 198.158C106.571 198.158 106.203 198.318 105.907 198.639C105.61 198.955 105.426 199.4 105.356 199.975H108.532V199.893C108.5 199.342 108.352 198.916 108.086 198.615C107.821 198.311 107.461 198.158 107.008 198.158ZM61.387 220.043C61.387 219.75 61.2757 219.523 61.053 219.363C60.8343 219.199 60.4495 219.059 59.8988 218.941C59.3519 218.824 58.9163 218.684 58.5921 218.52C58.2718 218.355 58.0335 218.16 57.8773 217.934C57.7249 217.707 57.6488 217.438 57.6488 217.125C57.6488 216.605 57.8675 216.166 58.305 215.807C58.7464 215.447 59.3089 215.268 59.9925 215.268C60.7113 215.268 61.2933 215.453 61.7386 215.824C62.1878 216.195 62.4124 216.67 62.4124 217.248H61.3226C61.3226 216.951 61.1956 216.695 60.9417 216.48C60.6917 216.266 60.3753 216.158 59.9925 216.158C59.598 216.158 59.2894 216.244 59.0667 216.416C58.8441 216.588 58.7327 216.812 58.7327 217.09C58.7327 217.352 58.8363 217.549 59.0433 217.682C59.2503 217.814 59.6234 217.941 60.1624 218.062C60.7054 218.184 61.1448 218.328 61.4808 218.496C61.8167 218.664 62.0648 218.867 62.2249 219.105C62.389 219.34 62.471 219.627 62.471 219.967C62.471 220.533 62.2445 220.988 61.7913 221.332C61.3382 221.672 60.7503 221.842 60.0277 221.842C59.5198 221.842 59.0706 221.752 58.68 221.572C58.2894 221.393 57.9827 221.143 57.7601 220.822C57.5413 220.498 57.432 220.148 57.432 219.773H58.5159C58.5355 220.137 58.68 220.426 58.9495 220.641C59.223 220.852 59.5823 220.957 60.0277 220.957C60.4378 220.957 60.7659 220.875 61.012 220.711C61.262 220.543 61.387 220.32 61.387 220.043ZM65.9573 220.137L67.4339 215.385H68.5941L66.0452 222.703C65.6507 223.758 65.0238 224.285 64.1644 224.285L63.9593 224.268L63.555 224.191V223.312L63.848 223.336C64.2152 223.336 64.5003 223.262 64.7034 223.113C64.9105 222.965 65.0804 222.693 65.2132 222.299L65.4534 221.654L63.1917 215.385H64.3753L65.9573 220.137ZM70.5921 215.385L70.6273 216.182C71.1116 215.572 71.7445 215.268 72.5257 215.268C73.8655 215.268 74.5413 216.023 74.553 217.535V221.725H73.4691V217.529C73.4652 217.072 73.3597 216.734 73.1527 216.516C72.9495 216.297 72.6312 216.188 72.1976 216.188C71.846 216.188 71.5374 216.281 71.2718 216.469C71.0062 216.656 70.7991 216.902 70.6507 217.207V221.725H69.5667V215.385H70.5921ZM78.7308 220.957C79.1175 220.957 79.4554 220.84 79.7445 220.605C80.0335 220.371 80.1937 220.078 80.2249 219.727H81.2503C81.2308 220.09 81.1058 220.436 80.8753 220.764C80.6448 221.092 80.3363 221.354 79.9495 221.549C79.5667 221.744 79.1605 221.842 78.7308 221.842C77.8675 221.842 77.18 221.555 76.6683 220.98C76.1605 220.402 75.9066 219.613 75.9066 218.613V218.432C75.9066 217.814 76.0198 217.266 76.2464 216.785C76.473 216.305 76.7972 215.932 77.2191 215.666C77.6448 215.4 78.1468 215.268 78.7249 215.268C79.4359 215.268 80.0257 215.48 80.4945 215.906C80.9671 216.332 81.2191 216.885 81.2503 217.564H80.2249C80.1937 217.154 80.0374 216.818 79.7562 216.557C79.4788 216.291 79.1351 216.158 78.7249 216.158C78.1741 216.158 77.7464 216.357 77.4417 216.756C77.1409 217.15 76.9905 217.723 76.9905 218.473V218.678C76.9905 219.408 77.1409 219.971 77.4417 220.365C77.7425 220.76 78.1722 220.957 78.7308 220.957ZM83.553 216.152C84.0335 215.562 84.6585 215.268 85.428 215.268C86.7679 215.268 87.4437 216.023 87.4554 217.535V221.725H86.3714V217.529C86.3675 217.072 86.262 216.734 86.055 216.516C85.8519 216.297 85.5335 216.188 85.0999 216.188C84.7484 216.188 84.4398 216.281 84.1741 216.469C83.9085 216.656 83.7015 216.902 83.553 217.207V221.725H82.4691V212.725H83.553V216.152ZM92.1429 216.357C91.9788 216.33 91.8011 216.316 91.6097 216.316C90.8988 216.316 90.4163 216.619 90.1624 217.225V221.725H89.0784V215.385H90.1331L90.1507 216.117C90.5062 215.551 91.0101 215.268 91.6624 215.268C91.8734 215.268 92.0335 215.295 92.1429 215.35V216.357ZM92.7405 218.496C92.7405 217.875 92.8616 217.316 93.1038 216.82C93.3499 216.324 93.6898 215.941 94.1234 215.672C94.5609 215.402 95.0589 215.268 95.6175 215.268C96.4808 215.268 97.178 215.566 97.7093 216.164C98.2445 216.762 98.512 217.557 98.512 218.549V218.625C98.512 219.242 98.3929 219.797 98.1546 220.289C97.9202 220.777 97.5823 221.158 97.1409 221.432C96.7034 221.705 96.1995 221.842 95.6292 221.842C94.7698 221.842 94.0726 221.543 93.5374 220.945C93.0062 220.348 92.7405 219.557 92.7405 218.572V218.496ZM93.8304 218.625C93.8304 219.328 93.9925 219.893 94.3167 220.318C94.6448 220.744 95.0823 220.957 95.6292 220.957C96.18 220.957 96.6175 220.742 96.9417 220.312C97.2659 219.879 97.428 219.273 97.428 218.496C97.428 217.801 97.262 217.238 96.93 216.809C96.6019 216.375 96.1644 216.158 95.6175 216.158C95.0823 216.158 94.6507 216.371 94.3226 216.797C93.9945 217.223 93.8304 217.832 93.8304 218.625ZM100.897 215.385L100.932 216.182C101.416 215.572 102.049 215.268 102.83 215.268C104.17 215.268 104.846 216.023 104.858 217.535V221.725H103.774V217.529C103.77 217.072 103.664 216.734 103.457 216.516C103.254 216.297 102.936 216.188 102.502 216.188C102.151 216.188 101.842 216.281 101.576 216.469C101.311 216.656 101.104 216.902 100.955 217.207V221.725H99.8714V215.385H100.897ZM107.67 221.725H106.586V215.385H107.67V221.725ZM106.498 213.703C106.498 213.527 106.551 213.379 106.657 213.258C106.766 213.137 106.926 213.076 107.137 213.076C107.348 213.076 107.508 213.137 107.618 213.258C107.727 213.379 107.782 213.527 107.782 213.703C107.782 213.879 107.727 214.025 107.618 214.143C107.508 214.26 107.348 214.318 107.137 214.318C106.926 214.318 106.766 214.26 106.657 214.143C106.551 214.025 106.498 213.879 106.498 213.703ZM110.43 220.84H114.139V221.725H109.106V220.928L112.604 216.281H109.159V215.385H113.963V216.152L110.43 220.84ZM117.901 221.842C117.041 221.842 116.342 221.561 115.803 220.998C115.264 220.432 114.994 219.676 114.994 218.73V218.531C114.994 217.902 115.114 217.342 115.352 216.85C115.594 216.354 115.93 215.967 116.36 215.689C116.793 215.408 117.262 215.268 117.766 215.268C118.59 215.268 119.231 215.539 119.688 216.082C120.145 216.625 120.373 217.402 120.373 218.414V218.865H116.078C116.094 219.49 116.276 219.996 116.623 220.383C116.975 220.766 117.42 220.957 117.959 220.957C118.342 220.957 118.666 220.879 118.932 220.723C119.198 220.566 119.43 220.359 119.629 220.102L120.291 220.617C119.76 221.434 118.963 221.842 117.901 221.842ZM117.766 216.158C117.328 216.158 116.961 216.318 116.664 216.639C116.368 216.955 116.184 217.4 116.114 217.975H119.289V217.893C119.258 217.342 119.11 216.916 118.844 216.615C118.578 216.311 118.219 216.158 117.766 216.158ZM121.369 218.502C121.369 217.529 121.6 216.748 122.061 216.158C122.522 215.564 123.125 215.268 123.871 215.268C124.614 215.268 125.201 215.521 125.635 216.029V212.725H126.719V221.725H125.723L125.67 221.045C125.237 221.576 124.633 221.842 123.86 221.842C123.125 221.842 122.526 221.541 122.061 220.939C121.6 220.338 121.369 219.553 121.369 218.584V218.502ZM122.453 218.625C122.453 219.344 122.602 219.906 122.899 220.312C123.196 220.719 123.606 220.922 124.129 220.922C124.817 220.922 125.319 220.613 125.635 219.996V217.084C125.311 216.486 124.813 216.188 124.141 216.188C123.61 216.188 123.196 216.393 122.899 216.803C122.602 217.213 122.453 217.82 122.453 218.625ZM69.1624 238.043C69.1624 237.75 69.0511 237.523 68.8284 237.363C68.6097 237.199 68.2249 237.059 67.6741 236.941C67.1273 236.824 66.6917 236.684 66.3675 236.52C66.0472 236.355 65.8089 236.16 65.6527 235.934C65.5003 235.707 65.4241 235.438 65.4241 235.125C65.4241 234.605 65.6429 234.166 66.0804 233.807C66.5218 233.447 67.0843 233.268 67.7679 233.268C68.4866 233.268 69.0687 233.453 69.514 233.824C69.9632 234.195 70.1878 234.67 70.1878 235.248H69.098C69.098 234.951 68.971 234.695 68.7171 234.48C68.4671 234.266 68.1507 234.158 67.7679 234.158C67.3734 234.158 67.0648 234.244 66.8421 234.416C66.6195 234.588 66.5081 234.812 66.5081 235.09C66.5081 235.352 66.6116 235.549 66.8187 235.682C67.0257 235.814 67.3988 235.941 67.9378 236.062C68.4808 236.184 68.9202 236.328 69.2562 236.496C69.5921 236.664 69.8402 236.867 70.0003 237.105C70.1644 237.34 70.2464 237.627 70.2464 237.967C70.2464 238.533 70.0198 238.988 69.5667 239.332C69.1136 239.672 68.5257 239.842 67.803 239.842C67.2952 239.842 66.846 239.752 66.4554 239.572C66.0648 239.393 65.7581 239.143 65.5355 238.822C65.3167 238.498 65.2073 238.148 65.2073 237.773H66.2913C66.3109 238.137 66.4554 238.426 66.7249 238.641C66.9984 238.852 67.3577 238.957 67.803 238.957C68.2132 238.957 68.5413 238.875 68.7874 238.711C69.0374 238.543 69.1624 238.32 69.1624 238.043ZM72.7425 234.152C73.223 233.562 73.848 233.268 74.6175 233.268C75.9573 233.268 76.6331 234.023 76.6448 235.535V239.725H75.5609V235.529C75.557 235.072 75.4515 234.734 75.2445 234.516C75.0413 234.297 74.723 234.188 74.2894 234.188C73.9378 234.188 73.6292 234.281 73.3636 234.469C73.098 234.656 72.8909 234.902 72.7425 235.207V239.725H71.6585V230.725H72.7425V234.152ZM82.182 239.725C82.1195 239.6 82.0687 239.377 82.0296 239.057C81.5257 239.58 80.9241 239.842 80.2249 239.842C79.5999 239.842 79.0863 239.666 78.6839 239.314C78.2855 238.959 78.0863 238.51 78.0863 237.967C78.0863 237.307 78.3363 236.795 78.8363 236.432C79.3402 236.064 80.0472 235.881 80.9573 235.881H82.012V235.383C82.012 235.004 81.8988 234.703 81.6722 234.48C81.4456 234.254 81.1116 234.141 80.6702 234.141C80.2835 234.141 79.9593 234.238 79.6976 234.434C79.4359 234.629 79.305 234.865 79.305 235.143H78.2152C78.2152 234.826 78.3265 234.521 78.5491 234.229C78.7757 233.932 79.0804 233.697 79.4632 233.525C79.8499 233.354 80.2738 233.268 80.7347 233.268C81.4652 233.268 82.0374 233.451 82.4515 233.818C82.8655 234.182 83.0804 234.684 83.096 235.324V238.242C83.096 238.824 83.1702 239.287 83.3187 239.631V239.725H82.182ZM80.3831 238.898C80.723 238.898 81.0452 238.811 81.3499 238.635C81.6546 238.459 81.8753 238.23 82.012 237.949V236.648H81.1624C79.8343 236.648 79.1702 237.037 79.1702 237.814C79.1702 238.154 79.2835 238.42 79.5101 238.611C79.7366 238.803 80.0277 238.898 80.3831 238.898ZM87.8597 234.357C87.6956 234.33 87.5179 234.316 87.3265 234.316C86.6155 234.316 86.1331 234.619 85.8792 235.225V239.725H84.7952V233.385H85.8499L85.8675 234.117C86.223 233.551 86.7269 233.268 87.3792 233.268C87.5902 233.268 87.7503 233.295 87.8597 233.35V234.357ZM91.3753 239.842C90.5159 239.842 89.8167 239.561 89.2777 238.998C88.7386 238.432 88.4691 237.676 88.4691 236.73V236.531C88.4691 235.902 88.5882 235.342 88.8265 234.85C89.0687 234.354 89.4046 233.967 89.8343 233.689C90.2679 233.408 90.7366 233.268 91.2405 233.268C92.0648 233.268 92.7054 233.539 93.1624 234.082C93.6195 234.625 93.848 235.402 93.848 236.414V236.865H89.553C89.5687 237.49 89.7503 237.996 90.098 238.383C90.4495 238.766 90.8948 238.957 91.4339 238.957C91.8167 238.957 92.1409 238.879 92.4066 238.723C92.6722 238.566 92.9046 238.359 93.1038 238.102L93.7659 238.617C93.2347 239.434 92.4378 239.842 91.3753 239.842ZM91.2405 234.158C90.803 234.158 90.4359 234.318 90.139 234.639C89.8421 234.955 89.6585 235.4 89.5882 235.975H92.764V235.893C92.7327 235.342 92.5843 234.916 92.3187 234.615C92.053 234.311 91.6937 234.158 91.2405 234.158ZM99.0218 239.725C98.9593 239.6 98.9085 239.377 98.8695 239.057C98.3655 239.58 97.764 239.842 97.0648 239.842C96.4398 239.842 95.9261 239.666 95.5238 239.314C95.1253 238.959 94.9261 238.51 94.9261 237.967C94.9261 237.307 95.1761 236.795 95.6761 236.432C96.18 236.064 96.887 235.881 97.7972 235.881H98.8519V235.383C98.8519 235.004 98.7386 234.703 98.512 234.48C98.2855 234.254 97.9515 234.141 97.5101 234.141C97.1234 234.141 96.7991 234.238 96.5374 234.434C96.2757 234.629 96.1448 234.865 96.1448 235.143H95.055C95.055 234.826 95.1663 234.521 95.389 234.229C95.6155 233.932 95.9202 233.697 96.303 233.525C96.6898 233.354 97.1136 233.268 97.5745 233.268C98.305 233.268 98.8773 233.451 99.2913 233.818C99.7054 234.182 99.9202 234.684 99.9359 235.324V238.242C99.9359 238.824 100.01 239.287 100.159 239.631V239.725H99.0218ZM97.223 238.898C97.5628 238.898 97.8851 238.811 98.1898 238.635C98.4945 238.459 98.7152 238.23 98.8519 237.949V236.648H98.0023C96.6741 236.648 96.0101 237.037 96.0101 237.814C96.0101 238.154 96.1234 238.42 96.3499 238.611C96.5765 238.803 96.8675 238.898 97.223 238.898ZM107.002 236.625C107.002 237.594 106.78 238.373 106.334 238.963C105.889 239.549 105.291 239.842 104.541 239.842C103.741 239.842 103.121 239.559 102.684 238.992L102.631 239.725H101.635V230.725H102.719V234.082C103.157 233.539 103.76 233.268 104.53 233.268C105.299 233.268 105.903 233.559 106.34 234.141C106.782 234.723 107.002 235.52 107.002 236.531V236.625ZM105.918 236.502C105.918 235.764 105.776 235.193 105.491 234.791C105.205 234.389 104.795 234.188 104.26 234.188C103.545 234.188 103.032 234.52 102.719 235.184V237.926C103.051 238.59 103.569 238.922 104.272 238.922C104.791 238.922 105.196 238.721 105.485 238.318C105.774 237.916 105.918 237.311 105.918 236.502ZM109.551 239.725H108.467V230.725H109.551V239.725ZM113.922 239.842C113.063 239.842 112.364 239.561 111.825 238.998C111.285 238.432 111.016 237.676 111.016 236.73V236.531C111.016 235.902 111.135 235.342 111.373 234.85C111.616 234.354 111.951 233.967 112.381 233.689C112.815 233.408 113.284 233.268 113.787 233.268C114.612 233.268 115.252 233.539 115.709 234.082C116.166 234.625 116.395 235.402 116.395 236.414V236.865H112.1C112.116 237.49 112.297 237.996 112.645 238.383C112.996 238.766 113.442 238.957 113.981 238.957C114.364 238.957 114.688 238.879 114.953 238.723C115.219 238.566 115.451 238.359 115.651 238.102L116.313 238.617C115.782 239.434 114.985 239.842 113.922 239.842ZM113.787 234.158C113.35 234.158 112.983 234.318 112.686 234.639C112.389 234.955 112.205 235.4 112.135 235.975H115.311V235.893C115.28 235.342 115.131 234.916 114.866 234.615C114.6 234.311 114.241 234.158 113.787 234.158ZM69.221 257.842C68.3616 257.842 67.6624 257.561 67.1234 256.998C66.5843 256.432 66.3148 255.676 66.3148 254.73V254.531C66.3148 253.902 66.4339 253.342 66.6722 252.85C66.9144 252.354 67.2503 251.967 67.68 251.689C68.1136 251.408 68.5823 251.268 69.0863 251.268C69.9105 251.268 70.5511 251.539 71.0081 252.082C71.4652 252.625 71.6937 253.402 71.6937 254.414V254.865H67.3988C67.4144 255.49 67.596 255.996 67.9437 256.383C68.2952 256.766 68.7405 256.957 69.2796 256.957C69.6624 256.957 69.9866 256.879 70.2523 256.723C70.5179 256.566 70.7503 256.359 70.9495 256.102L71.6116 256.617C71.0804 257.434 70.2835 257.842 69.221 257.842ZM69.0863 252.158C68.6488 252.158 68.2816 252.318 67.9847 252.639C67.6878 252.955 67.5042 253.4 67.4339 253.975H70.6097V253.893C70.5784 253.342 70.43 252.916 70.1644 252.615C69.8988 252.311 69.5394 252.158 69.0863 252.158ZM73.9788 251.385L74.014 252.182C74.4984 251.572 75.1312 251.268 75.9124 251.268C77.2523 251.268 77.928 252.023 77.9398 253.535V257.725H76.8558V253.529C76.8519 253.072 76.7464 252.734 76.5394 252.516C76.3363 252.297 76.0179 252.188 75.5843 252.188C75.2327 252.188 74.9241 252.281 74.6585 252.469C74.3929 252.656 74.1859 252.902 74.0374 253.207V257.725H72.9534V251.385H73.9788ZM82.1175 256.957C82.5042 256.957 82.8421 256.84 83.1312 256.605C83.4202 256.371 83.5804 256.078 83.6116 255.727H84.637C84.6175 256.09 84.4925 256.436 84.262 256.764C84.0316 257.092 83.723 257.354 83.3363 257.549C82.9534 257.744 82.5472 257.842 82.1175 257.842C81.2542 257.842 80.5667 257.555 80.055 256.98C79.5472 256.402 79.2933 255.613 79.2933 254.613V254.432C79.2933 253.814 79.4066 253.266 79.6331 252.785C79.8597 252.305 80.1839 251.932 80.6058 251.666C81.0316 251.4 81.5335 251.268 82.1116 251.268C82.8226 251.268 83.4124 251.48 83.8812 251.906C84.3538 252.332 84.6058 252.885 84.637 253.564H83.6116C83.5804 253.154 83.4241 252.818 83.1429 252.557C82.8655 252.291 82.5218 252.158 82.1116 252.158C81.5609 252.158 81.1331 252.357 80.8284 252.756C80.5277 253.15 80.3773 253.723 80.3773 254.473V254.678C80.3773 255.408 80.5277 255.971 80.8284 256.365C81.1292 256.76 81.5589 256.957 82.1175 256.957ZM88.9202 252.357C88.7562 252.33 88.5784 252.316 88.387 252.316C87.6761 252.316 87.1937 252.619 86.9398 253.225V257.725H85.8558V251.385H86.9105L86.928 252.117C87.2835 251.551 87.7874 251.268 88.4398 251.268C88.6507 251.268 88.8109 251.295 88.9202 251.35V252.357ZM92.1019 256.137L93.5784 251.385H94.7386L92.1898 258.703C91.7952 259.758 91.1683 260.285 90.3089 260.285L90.1038 260.268L89.6995 260.191V259.312L89.9925 259.336C90.3597 259.336 90.6448 259.262 90.848 259.113C91.055 258.965 91.2249 258.693 91.3577 258.299L91.598 257.654L89.3363 251.385H90.5198L92.1019 256.137ZM101.067 254.625C101.067 255.59 100.846 256.367 100.405 256.957C99.9632 257.547 99.3655 257.842 98.6116 257.842C97.8421 257.842 97.2366 257.598 96.7952 257.109V260.162H95.7113V251.385H96.7015L96.7542 252.088C97.1956 251.541 97.8089 251.268 98.5941 251.268C99.3558 251.268 99.9573 251.555 100.399 252.129C100.844 252.703 101.067 253.502 101.067 254.525V254.625ZM99.9827 254.502C99.9827 253.787 99.8304 253.223 99.5257 252.809C99.221 252.395 98.803 252.188 98.2718 252.188C97.6155 252.188 97.1234 252.479 96.7952 253.061V256.09C97.1195 256.668 97.6155 256.957 98.2835 256.957C98.803 256.957 99.2152 256.752 99.5198 256.342C99.8284 255.928 99.9827 255.314 99.9827 254.502ZM103.92 249.85V251.385H105.104V252.223H103.92V256.154C103.92 256.408 103.973 256.6 104.078 256.729C104.184 256.854 104.364 256.916 104.618 256.916C104.743 256.916 104.914 256.893 105.133 256.846V257.725C104.848 257.803 104.571 257.842 104.301 257.842C103.817 257.842 103.451 257.695 103.205 257.402C102.959 257.109 102.836 256.693 102.836 256.154V252.223H101.682V251.385H102.836V249.85H103.92ZM109.006 257.842C108.147 257.842 107.448 257.561 106.909 256.998C106.369 256.432 106.1 255.676 106.1 254.73V254.531C106.1 253.902 106.219 253.342 106.457 252.85C106.7 252.354 107.035 251.967 107.465 251.689C107.899 251.408 108.368 251.268 108.871 251.268C109.696 251.268 110.336 251.539 110.793 252.082C111.25 252.625 111.479 253.402 111.479 254.414V254.865H107.184C107.2 255.49 107.381 255.996 107.729 256.383C108.08 256.766 108.526 256.957 109.065 256.957C109.448 256.957 109.772 256.879 110.037 256.723C110.303 256.566 110.535 256.359 110.735 256.102L111.397 256.617C110.866 257.434 110.069 257.842 109.006 257.842ZM108.871 252.158C108.434 252.158 108.067 252.318 107.77 252.639C107.473 252.955 107.289 253.4 107.219 253.975H110.395V253.893C110.364 253.342 110.215 252.916 109.95 252.615C109.684 252.311 109.325 252.158 108.871 252.158ZM112.475 254.502C112.475 253.529 112.705 252.748 113.166 252.158C113.627 251.564 114.231 251.268 114.977 251.268C115.719 251.268 116.307 251.521 116.741 252.029V248.725H117.825V257.725H116.828L116.776 257.045C116.342 257.576 115.739 257.842 114.965 257.842C114.231 257.842 113.631 257.541 113.166 256.939C112.705 256.338 112.475 255.553 112.475 254.584V254.502ZM113.559 254.625C113.559 255.344 113.707 255.906 114.004 256.312C114.301 256.719 114.711 256.922 115.235 256.922C115.922 256.922 116.424 256.613 116.741 255.996V253.084C116.416 252.486 115.918 252.188 115.246 252.188C114.715 252.188 114.301 252.393 114.004 252.803C113.707 253.213 113.559 253.82 113.559 254.625Z" fill="#444444"/>
<path d="M219.15 69.5479C218.728 70.0439 218.109 70.292 217.292 70.292C216.617 70.292 216.101 70.0967 215.746 69.7061C215.394 69.3115 215.216 68.7295 215.212 67.96V63.835H216.296V67.9307C216.296 68.8916 216.687 69.3721 217.468 69.3721C218.296 69.3721 218.847 69.0635 219.121 68.4463V63.835H220.205V70.1748H219.173L219.15 69.5479ZM225.548 68.4932C225.548 68.2002 225.437 67.9736 225.214 67.8135C224.996 67.6494 224.611 67.5088 224.06 67.3916C223.513 67.2744 223.078 67.1338 222.753 66.9697C222.433 66.8057 222.195 66.6104 222.039 66.3838C221.886 66.1572 221.81 65.8877 221.81 65.5752C221.81 65.0557 222.029 64.6162 222.466 64.2568C222.908 63.8975 223.47 63.7178 224.154 63.7178C224.873 63.7178 225.455 63.9033 225.9 64.2744C226.349 64.6455 226.574 65.1201 226.574 65.6982H225.484C225.484 65.4014 225.357 65.1455 225.103 64.9307C224.853 64.7158 224.537 64.6084 224.154 64.6084C223.759 64.6084 223.451 64.6943 223.228 64.8662C223.005 65.0381 222.894 65.2627 222.894 65.54C222.894 65.8018 222.998 65.999 223.205 66.1318C223.412 66.2646 223.785 66.3916 224.324 66.5127C224.867 66.6338 225.306 66.7783 225.642 66.9463C225.978 67.1143 226.226 67.3174 226.386 67.5557C226.55 67.79 226.632 68.0771 226.632 68.417C226.632 68.9834 226.406 69.4385 225.953 69.7822C225.499 70.1221 224.912 70.292 224.189 70.292C223.681 70.292 223.232 70.2021 222.841 70.0225C222.451 69.8428 222.144 69.5928 221.921 69.2725C221.703 68.9482 221.593 68.5986 221.593 68.2236H222.677C222.697 68.5869 222.841 68.876 223.111 69.0908C223.384 69.3018 223.744 69.4072 224.189 69.4072C224.599 69.4072 224.927 69.3252 225.173 69.1611C225.423 68.9932 225.548 68.7705 225.548 68.4932ZM230.675 70.292C229.816 70.292 229.117 70.0107 228.578 69.4482C228.039 68.8818 227.769 68.126 227.769 67.1807V66.9814C227.769 66.3525 227.888 65.792 228.126 65.2998C228.369 64.8037 228.705 64.417 229.134 64.1396C229.568 63.8584 230.037 63.7178 230.54 63.7178C231.365 63.7178 232.005 63.9893 232.462 64.5322C232.919 65.0752 233.148 65.8525 233.148 66.8643V67.3154H228.853C228.869 67.9404 229.05 68.4463 229.398 68.833C229.749 69.2158 230.195 69.4072 230.734 69.4072C231.117 69.4072 231.441 69.3291 231.706 69.1729C231.972 69.0166 232.205 68.8096 232.404 68.5518L233.066 69.0674C232.535 69.8838 231.738 70.292 230.675 70.292ZM230.54 64.6084C230.103 64.6084 229.736 64.7686 229.439 65.0889C229.142 65.4053 228.958 65.8506 228.888 66.4248H232.064V66.3428C232.033 65.792 231.884 65.3662 231.619 65.0654C231.353 64.7607 230.994 64.6084 230.54 64.6084ZM237.472 64.8076C237.308 64.7803 237.13 64.7666 236.939 64.7666C236.228 64.7666 235.746 65.0693 235.492 65.6748V70.1748H234.408V63.835H235.462L235.48 64.5674C235.835 64.001 236.339 63.7178 236.992 63.7178C237.203 63.7178 237.363 63.7451 237.472 63.7998V64.8076ZM240.73 66.9932H237.871V66.1084H240.73V66.9932ZM247.158 67.0752C247.158 68.0439 246.935 68.8232 246.49 69.4131C246.044 69.999 245.447 70.292 244.697 70.292C243.896 70.292 243.277 70.0088 242.839 69.4424L242.787 70.1748H241.79V61.1748H242.874V64.5322C243.312 63.9893 243.915 63.7178 244.685 63.7178C245.455 63.7178 246.058 64.0088 246.496 64.5908C246.937 65.1729 247.158 65.9697 247.158 66.9814V67.0752ZM246.074 66.9521C246.074 66.2139 245.931 65.6436 245.646 65.2412C245.361 64.8389 244.951 64.6377 244.415 64.6377C243.701 64.6377 243.187 64.9697 242.874 65.6338V68.376C243.206 69.04 243.724 69.3721 244.427 69.3721C244.947 69.3721 245.351 69.1709 245.64 68.7686C245.929 68.3662 246.074 67.7607 246.074 66.9521ZM252.443 70.1748C252.38 70.0498 252.33 69.8271 252.29 69.5068C251.787 70.0303 251.185 70.292 250.486 70.292C249.861 70.292 249.347 70.1162 248.945 69.7646C248.546 69.4092 248.347 68.96 248.347 68.417C248.347 67.7568 248.597 67.2451 249.097 66.8818C249.601 66.5146 250.308 66.3311 251.218 66.3311H252.273V65.833C252.273 65.4541 252.16 65.1533 251.933 64.9307C251.706 64.7041 251.373 64.5908 250.931 64.5908C250.544 64.5908 250.22 64.6885 249.958 64.8838C249.697 65.0791 249.566 65.3154 249.566 65.5928H248.476C248.476 65.2764 248.587 64.9717 248.81 64.6787C249.037 64.3818 249.341 64.1475 249.724 63.9756C250.111 63.8037 250.535 63.7178 250.996 63.7178C251.726 63.7178 252.298 63.9014 252.712 64.2686C253.126 64.6318 253.341 65.1338 253.357 65.7744V68.6924C253.357 69.2744 253.431 69.7373 253.58 70.0811V70.1748H252.443ZM250.644 69.3486C250.984 69.3486 251.306 69.2607 251.611 69.085C251.915 68.9092 252.136 68.6807 252.273 68.3994V67.0986H251.423C250.095 67.0986 249.431 67.4873 249.431 68.2646C249.431 68.6045 249.544 68.8701 249.771 69.0615C249.998 69.2529 250.289 69.3486 250.644 69.3486ZM258.748 68.4932C258.748 68.2002 258.636 67.9736 258.414 67.8135C258.195 67.6494 257.81 67.5088 257.259 67.3916C256.712 67.2744 256.277 67.1338 255.953 66.9697C255.632 66.8057 255.394 66.6104 255.238 66.3838C255.085 66.1572 255.009 65.8877 255.009 65.5752C255.009 65.0557 255.228 64.6162 255.665 64.2568C256.107 63.8975 256.669 63.7178 257.353 63.7178C258.072 63.7178 258.654 63.9033 259.099 64.2744C259.548 64.6455 259.773 65.1201 259.773 65.6982H258.683C258.683 65.4014 258.556 65.1455 258.302 64.9307C258.052 64.7158 257.736 64.6084 257.353 64.6084C256.958 64.6084 256.65 64.6943 256.427 64.8662C256.205 65.0381 256.093 65.2627 256.093 65.54C256.093 65.8018 256.197 65.999 256.404 66.1318C256.611 66.2646 256.984 66.3916 257.523 66.5127C258.066 66.6338 258.505 66.7783 258.841 66.9463C259.177 67.1143 259.425 67.3174 259.585 67.5557C259.749 67.79 259.831 68.0771 259.831 68.417C259.831 68.9834 259.605 69.4385 259.152 69.7822C258.699 70.1221 258.111 70.292 257.388 70.292C256.88 70.292 256.431 70.2021 256.04 70.0225C255.65 69.8428 255.343 69.5928 255.121 69.2725C254.902 68.9482 254.792 68.5986 254.792 68.2236H255.876C255.896 68.5869 256.04 68.876 256.31 69.0908C256.583 69.3018 256.943 69.4072 257.388 69.4072C257.798 69.4072 258.126 69.3252 258.373 69.1611C258.623 68.9932 258.748 68.7705 258.748 68.4932ZM263.874 70.292C263.015 70.292 262.316 70.0107 261.777 69.4482C261.238 68.8818 260.968 68.126 260.968 67.1807V66.9814C260.968 66.3525 261.087 65.792 261.326 65.2998C261.568 64.8037 261.904 64.417 262.333 64.1396C262.767 63.8584 263.236 63.7178 263.74 63.7178C264.564 63.7178 265.205 63.9893 265.662 64.5322C266.119 65.0752 266.347 65.8525 266.347 66.8643V67.3154H262.052C262.068 67.9404 262.249 68.4463 262.597 68.833C262.949 69.2158 263.394 69.4072 263.933 69.4072C264.316 69.4072 264.64 69.3291 264.906 69.1729C265.171 69.0166 265.404 68.8096 265.603 68.5518L266.265 69.0674C265.734 69.8838 264.937 70.292 263.874 70.292ZM263.74 64.6084C263.302 64.6084 262.935 64.7686 262.638 65.0889C262.341 65.4053 262.158 65.8506 262.087 66.4248H265.263V66.3428C265.232 65.792 265.083 65.3662 264.818 65.0654C264.552 64.7607 264.193 64.6084 263.74 64.6084ZM229.351 88.1748H228.267V79.1748H229.351V88.1748ZM235.005 88.1748C234.943 88.0498 234.892 87.8271 234.853 87.5068C234.349 88.0303 233.748 88.292 233.048 88.292C232.423 88.292 231.91 88.1162 231.507 87.7646C231.109 87.4092 230.91 86.96 230.91 86.417C230.91 85.7568 231.16 85.2451 231.66 84.8818C232.164 84.5146 232.871 84.3311 233.781 84.3311H234.835V83.833C234.835 83.4541 234.722 83.1533 234.496 82.9307C234.269 82.7041 233.935 82.5908 233.494 82.5908C233.107 82.5908 232.783 82.6885 232.521 82.8838C232.259 83.0791 232.128 83.3154 232.128 83.5928H231.039C231.039 83.2764 231.15 82.9717 231.373 82.6787C231.599 82.3818 231.904 82.1475 232.287 81.9756C232.673 81.8037 233.097 81.7178 233.558 81.7178C234.289 81.7178 234.861 81.9014 235.275 82.2686C235.689 82.6318 235.904 83.1338 235.919 83.7744V86.6924C235.919 87.2744 235.994 87.7373 236.142 88.0811V88.1748H235.005ZM233.206 87.3486C233.546 87.3486 233.869 87.2607 234.173 87.085C234.478 86.9092 234.699 86.6807 234.835 86.3994V85.0986H233.986C232.658 85.0986 231.994 85.4873 231.994 86.2646C231.994 86.6045 232.107 86.8701 232.333 87.0615C232.56 87.2529 232.851 87.3486 233.206 87.3486ZM240.683 82.8076C240.519 82.7803 240.341 82.7666 240.15 82.7666C239.439 82.7666 238.956 83.0693 238.703 83.6748V88.1748H237.619V81.835H238.673L238.691 82.5674C239.046 82.001 239.55 81.7178 240.203 81.7178C240.414 81.7178 240.574 81.7451 240.683 81.7998V82.8076ZM241.31 84.9521C241.31 83.9639 241.539 83.1787 241.996 82.5967C242.453 82.0107 243.058 81.7178 243.812 81.7178C244.585 81.7178 245.189 81.9912 245.623 82.5381L245.675 81.835H246.665V88.0225C246.665 88.8428 246.421 89.4893 245.933 89.9619C245.449 90.4346 244.796 90.6709 243.976 90.6709C243.519 90.6709 243.072 90.5732 242.634 90.3779C242.197 90.1826 241.863 89.915 241.632 89.5752L242.195 88.9248C242.66 89.499 243.228 89.7861 243.9 89.7861C244.427 89.7861 244.837 89.6377 245.13 89.3408C245.427 89.0439 245.576 88.626 245.576 88.0869V87.542C245.142 88.042 244.55 88.292 243.8 88.292C243.058 88.292 242.456 87.9932 241.996 87.3955C241.539 86.7979 241.31 85.9834 241.31 84.9521ZM242.4 85.0752C242.4 85.79 242.546 86.3525 242.839 86.7627C243.132 87.1689 243.542 87.3721 244.07 87.3721C244.753 87.3721 245.255 87.0615 245.576 86.4404V83.5459C245.244 82.9404 244.746 82.6377 244.081 82.6377C243.554 82.6377 243.142 82.8428 242.845 83.2529C242.548 83.6631 242.4 84.2705 242.4 85.0752ZM250.937 88.292C250.078 88.292 249.378 88.0107 248.839 87.4482C248.3 86.8818 248.031 86.126 248.031 85.1807V84.9814C248.031 84.3525 248.15 83.792 248.388 83.2998C248.63 82.8037 248.966 82.417 249.396 82.1396C249.83 81.8584 250.298 81.7178 250.802 81.7178C251.626 81.7178 252.267 81.9893 252.724 82.5322C253.181 83.0752 253.41 83.8525 253.41 84.8643V85.3154H249.115C249.13 85.9404 249.312 86.4463 249.66 86.833C250.011 87.2158 250.456 87.4072 250.996 87.4072C251.378 87.4072 251.703 87.3291 251.968 87.1729C252.234 87.0166 252.466 86.8096 252.665 86.5518L253.328 87.0674C252.796 87.8838 251.999 88.292 250.937 88.292ZM250.802 82.6084C250.365 82.6084 249.998 82.7686 249.701 83.0889C249.404 83.4053 249.22 83.8506 249.15 84.4248H252.326V84.3428C252.294 83.792 252.146 83.3662 251.88 83.0654C251.615 82.7607 251.255 82.6084 250.802 82.6084ZM209.201 106.175H208.117V99.835H209.201V106.175ZM208.029 98.1533C208.029 97.9775 208.081 97.8291 208.187 97.708C208.296 97.5869 208.456 97.5264 208.667 97.5264C208.878 97.5264 209.039 97.5869 209.148 97.708C209.257 97.8291 209.312 97.9775 209.312 98.1533C209.312 98.3291 209.257 98.4756 209.148 98.5928C209.039 98.71 208.878 98.7686 208.667 98.7686C208.456 98.7686 208.296 98.71 208.187 98.5928C208.081 98.4756 208.029 98.3291 208.029 98.1533ZM211.966 99.835L212.001 100.632C212.486 100.022 213.119 99.7178 213.9 99.7178C215.24 99.7178 215.915 100.474 215.927 101.985V106.175H214.843V101.979C214.839 101.522 214.734 101.185 214.527 100.966C214.324 100.747 214.005 100.638 213.572 100.638C213.22 100.638 212.912 100.731 212.646 100.919C212.38 101.106 212.173 101.353 212.025 101.657V106.175H210.941V99.835H211.966ZM219.033 98.2998V99.835H220.216V100.673H219.033V104.604C219.033 104.858 219.085 105.05 219.191 105.179C219.296 105.304 219.476 105.366 219.73 105.366C219.855 105.366 220.027 105.343 220.246 105.296V106.175C219.96 106.253 219.683 106.292 219.414 106.292C218.929 106.292 218.564 106.146 218.318 105.853C218.072 105.56 217.949 105.144 217.949 104.604V100.673H216.794V99.835H217.949V98.2998H219.033ZM224.119 106.292C223.259 106.292 222.56 106.011 222.021 105.448C221.482 104.882 221.212 104.126 221.212 103.181V102.981C221.212 102.353 221.331 101.792 221.57 101.3C221.812 100.804 222.148 100.417 222.578 100.14C223.011 99.8584 223.48 99.7178 223.984 99.7178C224.808 99.7178 225.449 99.9893 225.906 100.532C226.363 101.075 226.591 101.853 226.591 102.864V103.315H222.296C222.312 103.94 222.494 104.446 222.841 104.833C223.193 105.216 223.638 105.407 224.177 105.407C224.56 105.407 224.884 105.329 225.15 105.173C225.415 105.017 225.648 104.81 225.847 104.552L226.509 105.067C225.978 105.884 225.181 106.292 224.119 106.292ZM223.984 100.608C223.546 100.608 223.179 100.769 222.882 101.089C222.585 101.405 222.402 101.851 222.331 102.425H225.507V102.343C225.476 101.792 225.328 101.366 225.062 101.065C224.796 100.761 224.437 100.608 223.984 100.608ZM230.915 100.808C230.751 100.78 230.574 100.767 230.382 100.767C229.671 100.767 229.189 101.069 228.935 101.675V106.175H227.851V99.835H228.906L228.923 100.567C229.279 100.001 229.783 99.7178 230.435 99.7178C230.646 99.7178 230.806 99.7451 230.915 99.7998V100.808ZM232.943 99.835L232.978 100.632C233.462 100.022 234.095 99.7178 234.876 99.7178C236.216 99.7178 236.892 100.474 236.904 101.985V106.175H235.82V101.979C235.816 101.522 235.71 101.185 235.503 100.966C235.3 100.747 234.982 100.638 234.548 100.638C234.197 100.638 233.888 100.731 233.623 100.919C233.357 101.106 233.15 101.353 233.001 101.657V106.175H231.917V99.835H232.943ZM242.453 106.175C242.39 106.05 242.339 105.827 242.3 105.507C241.796 106.03 241.195 106.292 240.496 106.292C239.871 106.292 239.357 106.116 238.955 105.765C238.556 105.409 238.357 104.96 238.357 104.417C238.357 103.757 238.607 103.245 239.107 102.882C239.611 102.515 240.318 102.331 241.228 102.331H242.283V101.833C242.283 101.454 242.169 101.153 241.943 100.931C241.716 100.704 241.382 100.591 240.941 100.591C240.554 100.591 240.23 100.688 239.968 100.884C239.706 101.079 239.576 101.315 239.576 101.593H238.486C238.486 101.276 238.597 100.972 238.82 100.679C239.046 100.382 239.351 100.147 239.734 99.9756C240.121 99.8037 240.544 99.7178 241.005 99.7178C241.736 99.7178 242.308 99.9014 242.722 100.269C243.136 100.632 243.351 101.134 243.367 101.774V104.692C243.367 105.274 243.441 105.737 243.589 106.081V106.175H242.453ZM240.654 105.349C240.994 105.349 241.316 105.261 241.621 105.085C241.925 104.909 242.146 104.681 242.283 104.399V103.099H241.433C240.105 103.099 239.441 103.487 239.441 104.265C239.441 104.604 239.554 104.87 239.781 105.062C240.007 105.253 240.298 105.349 240.654 105.349ZM246.537 98.2998V99.835H247.72V100.673H246.537V104.604C246.537 104.858 246.589 105.05 246.695 105.179C246.8 105.304 246.98 105.366 247.234 105.366C247.359 105.366 247.531 105.343 247.749 105.296V106.175C247.464 106.253 247.187 106.292 246.917 106.292C246.433 106.292 246.068 106.146 245.822 105.853C245.576 105.56 245.453 105.144 245.453 104.604V100.673H244.298V99.835H245.453V98.2998H246.537ZM250.169 106.175H249.085V99.835H250.169V106.175ZM248.998 98.1533C248.998 97.9775 249.05 97.8291 249.156 97.708C249.265 97.5869 249.425 97.5264 249.636 97.5264C249.847 97.5264 250.007 97.5869 250.117 97.708C250.226 97.8291 250.281 97.9775 250.281 98.1533C250.281 98.3291 250.226 98.4756 250.117 98.5928C250.007 98.71 249.847 98.7686 249.636 98.7686C249.425 98.7686 249.265 98.71 249.156 98.5928C249.05 98.4756 248.998 98.3291 248.998 98.1533ZM251.623 102.946C251.623 102.325 251.744 101.767 251.986 101.271C252.232 100.774 252.572 100.392 253.005 100.122C253.443 99.8525 253.941 99.7178 254.499 99.7178C255.363 99.7178 256.06 100.017 256.591 100.614C257.126 101.212 257.394 102.007 257.394 102.999V103.075C257.394 103.692 257.275 104.247 257.037 104.739C256.802 105.228 256.464 105.608 256.023 105.882C255.585 106.155 255.081 106.292 254.511 106.292C253.652 106.292 252.955 105.993 252.419 105.396C251.888 104.798 251.623 104.007 251.623 103.022V102.946ZM252.712 103.075C252.712 103.778 252.874 104.343 253.199 104.769C253.527 105.194 253.964 105.407 254.511 105.407C255.062 105.407 255.499 105.192 255.824 104.763C256.148 104.329 256.31 103.724 256.31 102.946C256.31 102.251 256.144 101.688 255.812 101.259C255.484 100.825 255.046 100.608 254.499 100.608C253.964 100.608 253.533 100.821 253.205 101.247C252.876 101.673 252.712 102.282 252.712 103.075ZM259.779 99.835L259.814 100.632C260.298 100.022 260.931 99.7178 261.712 99.7178C263.052 99.7178 263.728 100.474 263.74 101.985V106.175H262.656V101.979C262.652 101.522 262.546 101.185 262.339 100.966C262.136 100.747 261.818 100.638 261.384 100.638C261.033 100.638 260.724 100.731 260.458 100.919C260.193 101.106 259.986 101.353 259.837 101.657V106.175H258.753V99.835H259.779ZM269.289 106.175C269.226 106.05 269.175 105.827 269.136 105.507C268.632 106.03 268.031 106.292 267.331 106.292C266.706 106.292 266.193 106.116 265.79 105.765C265.392 105.409 265.193 104.96 265.193 104.417C265.193 103.757 265.443 103.245 265.943 102.882C266.447 102.515 267.154 102.331 268.064 102.331H269.119V101.833C269.119 101.454 269.005 101.153 268.779 100.931C268.552 100.704 268.218 100.591 267.777 100.591C267.39 100.591 267.066 100.688 266.804 100.884C266.542 101.079 266.412 101.315 266.412 101.593H265.322C265.322 101.276 265.433 100.972 265.656 100.679C265.882 100.382 266.187 100.147 266.57 99.9756C266.956 99.8037 267.38 99.7178 267.841 99.7178C268.572 99.7178 269.144 99.9014 269.558 100.269C269.972 100.632 270.187 101.134 270.203 101.774V104.692C270.203 105.274 270.277 105.737 270.425 106.081V106.175H269.289ZM267.49 105.349C267.83 105.349 268.152 105.261 268.456 105.085C268.761 104.909 268.982 104.681 269.119 104.399V103.099H268.269C266.941 103.099 266.277 103.487 266.277 104.265C266.277 104.604 266.39 104.87 266.617 105.062C266.843 105.253 267.134 105.349 267.49 105.349ZM273.08 106.175H271.996V97.1748H273.08V106.175ZM215.845 120.946C215.845 120.325 215.966 119.767 216.208 119.271C216.455 118.774 216.794 118.392 217.228 118.122C217.665 117.853 218.164 117.718 218.722 117.718C219.585 117.718 220.283 118.017 220.814 118.614C221.349 119.212 221.617 120.007 221.617 120.999V121.075C221.617 121.692 221.498 122.247 221.259 122.739C221.025 123.228 220.687 123.608 220.246 123.882C219.808 124.155 219.304 124.292 218.734 124.292C217.874 124.292 217.177 123.993 216.642 123.396C216.111 122.798 215.845 122.007 215.845 121.022V120.946ZM216.935 121.075C216.935 121.778 217.097 122.343 217.421 122.769C217.749 123.194 218.187 123.407 218.734 123.407C219.285 123.407 219.722 123.192 220.046 122.763C220.371 122.329 220.533 121.724 220.533 120.946C220.533 120.251 220.367 119.688 220.035 119.259C219.706 118.825 219.269 118.608 218.722 118.608C218.187 118.608 217.755 118.821 217.427 119.247C217.099 119.673 216.935 120.282 216.935 121.075ZM224.001 117.835L224.037 118.632C224.521 118.022 225.154 117.718 225.935 117.718C227.275 117.718 227.951 118.474 227.962 119.985V124.175H226.878V119.979C226.874 119.522 226.769 119.185 226.562 118.966C226.359 118.747 226.04 118.638 225.607 118.638C225.255 118.638 224.947 118.731 224.681 118.919C224.415 119.106 224.208 119.353 224.06 119.657V124.175H222.976V117.835H224.001ZM231.853 120.993H228.994V120.108H231.853V120.993ZM234.384 116.3V117.835H235.568V118.673H234.384V122.604C234.384 122.858 234.437 123.05 234.542 123.179C234.648 123.304 234.828 123.366 235.081 123.366C235.206 123.366 235.378 123.343 235.597 123.296V124.175C235.312 124.253 235.035 124.292 234.765 124.292C234.281 124.292 233.915 124.146 233.669 123.853C233.423 123.56 233.3 123.144 233.3 122.604V118.673H232.146V117.835H233.3V116.3H234.384ZM237.923 118.603C238.404 118.013 239.029 117.718 239.798 117.718C241.138 117.718 241.814 118.474 241.826 119.985V124.175H240.742V119.979C240.738 119.522 240.632 119.185 240.425 118.966C240.222 118.747 239.904 118.638 239.47 118.638C239.119 118.638 238.81 118.731 238.544 118.919C238.279 119.106 238.072 119.353 237.923 119.657V124.175H236.839V115.175H237.923V118.603ZM246.08 124.292C245.22 124.292 244.521 124.011 243.982 123.448C243.443 122.882 243.173 122.126 243.173 121.181V120.981C243.173 120.353 243.292 119.792 243.531 119.3C243.773 118.804 244.109 118.417 244.539 118.14C244.972 117.858 245.441 117.718 245.945 117.718C246.769 117.718 247.41 117.989 247.867 118.532C248.324 119.075 248.552 119.853 248.552 120.864V121.315H244.257C244.273 121.94 244.455 122.446 244.802 122.833C245.154 123.216 245.599 123.407 246.138 123.407C246.521 123.407 246.845 123.329 247.111 123.173C247.376 123.017 247.609 122.81 247.808 122.552L248.47 123.067C247.939 123.884 247.142 124.292 246.08 124.292ZM245.945 118.608C245.507 118.608 245.14 118.769 244.843 119.089C244.546 119.405 244.363 119.851 244.292 120.425H247.468V120.343C247.437 119.792 247.289 119.366 247.023 119.065C246.757 118.761 246.398 118.608 245.945 118.608ZM252.068 120.993H249.208V120.108H252.068V120.993ZM252.871 120.952C252.871 119.964 253.099 119.179 253.556 118.597C254.013 118.011 254.619 117.718 255.373 117.718C256.146 117.718 256.749 117.991 257.183 118.538L257.236 117.835H258.226V124.022C258.226 124.843 257.982 125.489 257.494 125.962C257.009 126.435 256.357 126.671 255.537 126.671C255.08 126.671 254.632 126.573 254.195 126.378C253.757 126.183 253.423 125.915 253.193 125.575L253.755 124.925C254.22 125.499 254.789 125.786 255.46 125.786C255.988 125.786 256.398 125.638 256.691 125.341C256.988 125.044 257.136 124.626 257.136 124.087V123.542C256.703 124.042 256.111 124.292 255.361 124.292C254.619 124.292 254.017 123.993 253.556 123.396C253.099 122.798 252.871 121.983 252.871 120.952ZM253.96 121.075C253.96 121.79 254.107 122.353 254.4 122.763C254.693 123.169 255.103 123.372 255.63 123.372C256.314 123.372 256.816 123.062 257.136 122.44V119.546C256.804 118.94 256.306 118.638 255.642 118.638C255.115 118.638 254.703 118.843 254.406 119.253C254.109 119.663 253.96 120.271 253.96 121.075ZM259.58 120.946C259.58 120.325 259.701 119.767 259.943 119.271C260.189 118.774 260.529 118.392 260.962 118.122C261.4 117.853 261.898 117.718 262.456 117.718C263.32 117.718 264.017 118.017 264.548 118.614C265.083 119.212 265.351 120.007 265.351 120.999V121.075C265.351 121.692 265.232 122.247 264.994 122.739C264.759 123.228 264.421 123.608 263.98 123.882C263.542 124.155 263.039 124.292 262.468 124.292C261.609 124.292 260.912 123.993 260.376 123.396C259.845 122.798 259.58 122.007 259.58 121.022V120.946ZM260.669 121.075C260.669 121.778 260.831 122.343 261.156 122.769C261.484 123.194 261.921 123.407 262.468 123.407C263.019 123.407 263.456 123.192 263.781 122.763C264.105 122.329 264.267 121.724 264.267 120.946C264.267 120.251 264.101 119.688 263.769 119.259C263.441 118.825 263.003 118.608 262.456 118.608C261.921 118.608 261.49 118.821 261.162 119.247C260.833 119.673 260.669 120.282 260.669 121.075ZM213.994 141.407C214.38 141.407 214.718 141.29 215.007 141.056C215.296 140.821 215.456 140.528 215.488 140.177H216.513C216.494 140.54 216.369 140.886 216.138 141.214C215.908 141.542 215.599 141.804 215.212 141.999C214.83 142.194 214.423 142.292 213.994 142.292C213.13 142.292 212.443 142.005 211.931 141.431C211.423 140.853 211.169 140.063 211.169 139.063V138.882C211.169 138.265 211.283 137.716 211.509 137.235C211.736 136.755 212.06 136.382 212.482 136.116C212.908 135.851 213.41 135.718 213.988 135.718C214.699 135.718 215.289 135.931 215.757 136.356C216.23 136.782 216.482 137.335 216.513 138.015H215.488C215.456 137.604 215.3 137.269 215.019 137.007C214.742 136.741 214.398 136.608 213.988 136.608C213.437 136.608 213.009 136.808 212.705 137.206C212.404 137.601 212.253 138.173 212.253 138.923V139.128C212.253 139.858 212.404 140.421 212.705 140.815C213.005 141.21 213.435 141.407 213.994 141.407ZM217.445 138.946C217.445 138.325 217.566 137.767 217.808 137.271C218.054 136.774 218.394 136.392 218.828 136.122C219.265 135.853 219.763 135.718 220.322 135.718C221.185 135.718 221.882 136.017 222.414 136.614C222.949 137.212 223.216 138.007 223.216 138.999V139.075C223.216 139.692 223.097 140.247 222.859 140.739C222.624 141.228 222.287 141.608 221.845 141.882C221.408 142.155 220.904 142.292 220.333 142.292C219.474 142.292 218.777 141.993 218.242 141.396C217.71 140.798 217.445 140.007 217.445 139.022V138.946ZM218.535 139.075C218.535 139.778 218.697 140.343 219.021 140.769C219.349 141.194 219.787 141.407 220.333 141.407C220.884 141.407 221.322 141.192 221.646 140.763C221.97 140.329 222.132 139.724 222.132 138.946C222.132 138.251 221.966 137.688 221.634 137.259C221.306 136.825 220.869 136.608 220.322 136.608C219.787 136.608 219.355 136.821 219.027 137.247C218.699 137.673 218.535 138.282 218.535 139.075ZM225.595 135.835L225.624 136.538C226.089 135.991 226.716 135.718 227.505 135.718C228.392 135.718 228.996 136.058 229.316 136.737C229.527 136.433 229.8 136.187 230.136 135.999C230.476 135.812 230.876 135.718 231.337 135.718C232.728 135.718 233.435 136.454 233.458 137.927V142.175H232.374V137.991C232.374 137.538 232.271 137.2 232.064 136.978C231.857 136.751 231.509 136.638 231.021 136.638C230.619 136.638 230.285 136.759 230.019 137.001C229.753 137.239 229.599 137.562 229.556 137.968V142.175H228.466V138.021C228.466 137.099 228.015 136.638 227.113 136.638C226.402 136.638 225.915 136.94 225.654 137.546V142.175H224.57V135.835H225.595ZM236.119 135.835L236.148 136.538C236.613 135.991 237.24 135.718 238.029 135.718C238.915 135.718 239.519 136.058 239.839 136.737C240.05 136.433 240.324 136.187 240.66 135.999C240.999 135.812 241.4 135.718 241.861 135.718C243.251 135.718 243.958 136.454 243.982 137.927V142.175H242.898V137.991C242.898 137.538 242.794 137.2 242.587 136.978C242.38 136.751 242.033 136.638 241.544 136.638C241.142 136.638 240.808 136.759 240.542 137.001C240.277 137.239 240.123 137.562 240.08 137.968V142.175H238.99V138.021C238.99 137.099 238.539 136.638 237.636 136.638C236.925 136.638 236.439 136.94 236.177 137.546V142.175H235.093V135.835H236.119ZM249.537 141.548C249.115 142.044 248.496 142.292 247.679 142.292C247.003 142.292 246.488 142.097 246.132 141.706C245.781 141.312 245.603 140.729 245.599 139.96V135.835H246.683V139.931C246.683 140.892 247.074 141.372 247.855 141.372C248.683 141.372 249.234 141.063 249.507 140.446V135.835H250.591V142.175H249.56L249.537 141.548ZM253.269 135.835L253.304 136.632C253.789 136.022 254.421 135.718 255.203 135.718C256.542 135.718 257.218 136.474 257.23 137.985V142.175H256.146V137.979C256.142 137.522 256.037 137.185 255.83 136.966C255.626 136.747 255.308 136.638 254.874 136.638C254.523 136.638 254.214 136.731 253.949 136.919C253.683 137.106 253.476 137.353 253.328 137.657V142.175H252.244V135.835H253.269ZM260.042 142.175H258.958V135.835H260.042V142.175ZM258.871 134.153C258.871 133.978 258.923 133.829 259.029 133.708C259.138 133.587 259.298 133.526 259.509 133.526C259.72 133.526 259.88 133.587 259.99 133.708C260.099 133.829 260.154 133.978 260.154 134.153C260.154 134.329 260.099 134.476 259.99 134.593C259.88 134.71 259.72 134.769 259.509 134.769C259.298 134.769 259.138 134.71 259.029 134.593C258.923 134.476 258.871 134.329 258.871 134.153ZM263.253 134.3V135.835H264.437V136.673H263.253V140.604C263.253 140.858 263.306 141.05 263.412 141.179C263.517 141.304 263.697 141.366 263.951 141.366C264.076 141.366 264.248 141.343 264.466 141.296V142.175C264.181 142.253 263.904 142.292 263.634 142.292C263.15 142.292 262.785 142.146 262.539 141.853C262.292 141.56 262.169 141.144 262.169 140.604V136.673H261.015V135.835H262.169V134.3H263.253ZM267.783 140.587L269.259 135.835H270.419L267.871 143.153C267.476 144.208 266.849 144.735 265.99 144.735L265.785 144.718L265.38 144.642V143.763L265.673 143.786C266.04 143.786 266.326 143.712 266.529 143.563C266.736 143.415 266.906 143.144 267.039 142.749L267.279 142.104L265.017 135.835H266.201L267.783 140.587Z" fill="#444444"/>
<line x1="26.6719" y1="42.4731" x2="309.61" y2="42.4731" stroke="#303030"/>
<path d="M72.2897 28.9702V20.439H75.278C76.3132 20.439 77.0983 20.6382 77.6335 21.0366C78.1686 21.4312 78.4362 22.0112 78.4362 22.7769C78.4362 23.1948 78.3288 23.564 78.114 23.8843C77.8991 24.2007 77.6003 24.4331 77.2175 24.5815C77.655 24.6909 77.9987 24.9116 78.2487 25.2437C78.5026 25.5757 78.6296 25.9819 78.6296 26.4624C78.6296 27.2827 78.3679 27.9038 77.8444 28.3257C77.321 28.7476 76.5749 28.9624 75.6061 28.9702H72.2897ZM74.0475 25.2554V27.5581H75.5534C75.9675 27.5581 76.2897 27.4604 76.5202 27.2651C76.7546 27.0659 76.8718 26.7925 76.8718 26.4448C76.8718 25.6636 76.4675 25.2671 75.6589 25.2554H74.0475ZM74.0475 24.0132H75.3483C76.235 23.9976 76.6784 23.644 76.6784 22.9526C76.6784 22.5659 76.5651 22.2886 76.3386 22.1206C76.1159 21.9487 75.7624 21.8628 75.278 21.8628H74.0475V24.0132ZM83.405 24.2183C83.1745 24.187 82.9714 24.1714 82.7956 24.1714C82.155 24.1714 81.735 24.3882 81.5358 24.8218V28.9702H79.8425V22.6304H81.4421L81.489 23.3862C81.8288 22.8042 82.2995 22.5132 82.9011 22.5132C83.0886 22.5132 83.2643 22.5386 83.4284 22.5894L83.405 24.2183ZM86.0124 28.9702H84.3132V22.6304H86.0124V28.9702ZM84.2136 20.9897C84.2136 20.7358 84.2975 20.5269 84.4655 20.3628C84.6374 20.1987 84.8698 20.1167 85.1628 20.1167C85.4518 20.1167 85.6823 20.1987 85.8542 20.3628C86.0261 20.5269 86.112 20.7358 86.112 20.9897C86.112 21.2476 86.0241 21.4585 85.8483 21.6226C85.6765 21.7866 85.4479 21.8687 85.1628 21.8687C84.8776 21.8687 84.6472 21.7866 84.4714 21.6226C84.2995 21.4585 84.2136 21.2476 84.2136 20.9897ZM87.1491 25.7534C87.1491 24.7651 87.3698 23.978 87.8112 23.3921C88.2565 22.8062 88.864 22.5132 89.6335 22.5132C90.2507 22.5132 90.7604 22.7437 91.1628 23.2046V19.9702H92.862V28.9702H91.3327L91.2507 28.2964C90.8288 28.8237 90.2858 29.0874 89.6218 29.0874C88.8757 29.0874 88.2761 28.7944 87.8229 28.2085C87.3737 27.6187 87.1491 26.8003 87.1491 25.7534ZM88.8425 25.8765C88.8425 26.4702 88.946 26.9253 89.153 27.2417C89.36 27.5581 89.6608 27.7163 90.0554 27.7163C90.5788 27.7163 90.9479 27.4956 91.1628 27.0542V24.5522C90.9518 24.1108 90.5866 23.8901 90.0671 23.8901C89.2507 23.8901 88.8425 24.5522 88.8425 25.8765ZM93.9284 25.7534C93.9284 24.7808 94.1589 23.9976 94.6198 23.4038C95.0847 22.8101 95.7097 22.5132 96.4948 22.5132C97.1901 22.5132 97.7311 22.7515 98.1179 23.228L98.1882 22.6304H99.7233V28.7593C99.7233 29.314 99.5964 29.7964 99.3425 30.2065C99.0925 30.6167 98.739 30.9292 98.2819 31.144C97.8249 31.3589 97.2897 31.4663 96.6765 31.4663C96.2116 31.4663 95.7585 31.3726 95.3171 31.1851C94.8757 31.0015 94.5417 30.7632 94.3151 30.4702L95.0651 29.439C95.487 29.9116 95.9987 30.1479 96.6003 30.1479C97.0495 30.1479 97.3991 30.0269 97.6491 29.7847C97.8991 29.5464 98.0241 29.2065 98.0241 28.7651V28.4253C97.6335 28.8667 97.1198 29.0874 96.4831 29.0874C95.7214 29.0874 95.1042 28.7905 94.6315 28.1968C94.1628 27.5991 93.9284 26.8081 93.9284 25.8237V25.7534ZM95.6218 25.8765C95.6218 26.4507 95.737 26.9019 95.9675 27.23C96.1979 27.5542 96.5143 27.7163 96.9167 27.7163C97.4323 27.7163 97.8015 27.5229 98.0241 27.1362V24.4702C97.7975 24.0835 97.4323 23.8901 96.9284 23.8901C96.5222 23.8901 96.2018 24.0562 95.9675 24.3882C95.737 24.7202 95.6218 25.2163 95.6218 25.8765ZM103.948 29.0874C103.018 29.0874 102.26 28.8022 101.674 28.2319C101.092 27.6616 100.801 26.9019 100.801 25.9526V25.7886C100.801 25.1519 100.924 24.5835 101.171 24.0835C101.417 23.5796 101.764 23.1929 102.214 22.9233C102.667 22.6499 103.182 22.5132 103.76 22.5132C104.628 22.5132 105.309 22.7866 105.805 23.3335C106.305 23.8804 106.555 24.6558 106.555 25.6597V26.3511H102.518C102.573 26.7651 102.737 27.0972 103.01 27.3472C103.288 27.5972 103.637 27.7222 104.059 27.7222C104.712 27.7222 105.221 27.4858 105.589 27.0132L106.421 27.9448C106.167 28.3042 105.823 28.5854 105.389 28.7886C104.956 28.9878 104.475 29.0874 103.948 29.0874ZM103.755 23.8843C103.419 23.8843 103.145 23.9976 102.934 24.2241C102.727 24.4507 102.594 24.7749 102.536 25.1968H104.891V25.062C104.883 24.687 104.782 24.3979 104.587 24.1948C104.391 23.9878 104.114 23.8843 103.755 23.8843Z" fill="#444444"/>
<path d="M220.117 25.9644V28.9702H218.36V20.439H221.688C222.328 20.439 222.891 20.5562 223.375 20.7905C223.864 21.0249 224.239 21.3589 224.5 21.7925C224.762 22.2222 224.893 22.7124 224.893 23.2632C224.893 24.0991 224.606 24.7593 224.031 25.2437C223.461 25.7241 222.67 25.9644 221.658 25.9644H220.117ZM220.117 24.5405H221.688C222.153 24.5405 222.506 24.4312 222.748 24.2124C222.994 23.9937 223.117 23.6812 223.117 23.2749C223.117 22.8569 222.994 22.519 222.748 22.2612C222.502 22.0034 222.162 21.8706 221.729 21.8628H220.117V24.5405ZM228.83 29.0874C227.901 29.0874 227.143 28.8022 226.557 28.2319C225.975 27.6616 225.684 26.9019 225.684 25.9526V25.7886C225.684 25.1519 225.807 24.5835 226.053 24.0835C226.299 23.5796 226.647 23.1929 227.096 22.9233C227.549 22.6499 228.065 22.5132 228.643 22.5132C229.51 22.5132 230.192 22.7866 230.688 23.3335C231.188 23.8804 231.438 24.6558 231.438 25.6597V26.3511H227.401C227.455 26.7651 227.619 27.0972 227.893 27.3472C228.17 27.5972 228.52 27.7222 228.942 27.7222C229.594 27.7222 230.104 27.4858 230.471 27.0132L231.303 27.9448C231.049 28.3042 230.705 28.5854 230.272 28.7886C229.838 28.9878 229.358 29.0874 228.83 29.0874ZM228.637 23.8843C228.301 23.8843 228.028 23.9976 227.817 24.2241C227.61 24.4507 227.477 24.7749 227.418 25.1968H229.774V25.062C229.766 24.687 229.664 24.3979 229.469 24.1948C229.274 23.9878 228.996 23.8843 228.637 23.8843ZM232.141 25.7417C232.141 25.1128 232.262 24.5522 232.504 24.0601C232.746 23.5679 233.094 23.187 233.547 22.9175C234.004 22.6479 234.533 22.5132 235.135 22.5132C235.99 22.5132 236.688 22.7749 237.227 23.2983C237.77 23.8218 238.073 24.5327 238.135 25.4312L238.147 25.8647C238.147 26.8374 237.875 27.6187 237.332 28.2085C236.789 28.7944 236.061 29.0874 235.147 29.0874C234.233 29.0874 233.502 28.7944 232.955 28.2085C232.412 27.6226 232.141 26.8257 232.141 25.8179V25.7417ZM233.834 25.8647C233.834 26.4663 233.948 26.9272 234.174 27.2476C234.401 27.564 234.725 27.7222 235.147 27.7222C235.557 27.7222 235.877 27.5659 236.108 27.2534C236.338 26.937 236.453 26.4331 236.453 25.7417C236.453 25.1519 236.338 24.6948 236.108 24.3706C235.877 24.0464 235.553 23.8843 235.135 23.8843C234.721 23.8843 234.401 24.0464 234.174 24.3706C233.948 24.6909 233.834 25.189 233.834 25.8647ZM244.897 25.8589C244.897 26.8354 244.674 27.6187 244.229 28.2085C243.787 28.7944 243.19 29.0874 242.436 29.0874C241.795 29.0874 241.278 28.8647 240.883 28.4194V31.4077H239.19V22.6304H240.76L240.819 23.2515C241.229 22.7593 241.764 22.5132 242.424 22.5132C243.205 22.5132 243.813 22.8022 244.246 23.3804C244.68 23.9585 244.897 24.7554 244.897 25.771V25.8589ZM243.203 25.7358C243.203 25.146 243.098 24.6909 242.887 24.3706C242.68 24.0503 242.377 23.8901 241.979 23.8901C241.448 23.8901 241.082 24.0933 240.883 24.4995V27.0952C241.09 27.5132 241.459 27.7222 241.99 27.7222C242.799 27.7222 243.203 27.0601 243.203 25.7358ZM247.739 28.9702H246.039V19.9702H247.739V28.9702ZM252.057 29.0874C251.127 29.0874 250.369 28.8022 249.783 28.2319C249.201 27.6616 248.91 26.9019 248.91 25.9526V25.7886C248.91 25.1519 249.033 24.5835 249.28 24.0835C249.526 23.5796 249.873 23.1929 250.323 22.9233C250.776 22.6499 251.291 22.5132 251.869 22.5132C252.737 22.5132 253.418 22.7866 253.914 23.3335C254.414 23.8804 254.664 24.6558 254.664 25.6597V26.3511H250.627C250.682 26.7651 250.846 27.0972 251.119 27.3472C251.397 27.5972 251.746 27.7222 252.168 27.7222C252.821 27.7222 253.33 27.4858 253.698 27.0132L254.53 27.9448C254.276 28.3042 253.932 28.5854 253.498 28.7886C253.065 28.9878 252.584 29.0874 252.057 29.0874ZM251.864 23.8843C251.528 23.8843 251.254 23.9976 251.043 24.2241C250.836 24.4507 250.703 24.7749 250.645 25.1968H253V25.062C252.992 24.687 252.891 24.3979 252.696 24.1948C252.5 23.9878 252.223 23.8843 251.864 23.8843Z" fill="#444444"/>
<line x1="166.423" y1="281.201" x2="166.423" y2="20.1156" stroke="#303030"/>
</svg>
