<svg width="314" height="313" viewBox="0 0 314 313" fill="none" xmlns="http://www.w3.org/2000/svg">
<path d="M4.36 293.415H13.215C17.555 293.415 21.16 291.035 21.16 286.38C21.16 283.615 19.69 281.165 17.1 280.395V280.325C18.99 279.345 20.18 277.42 20.18 275.005C20.18 271.015 17.17 268.705 13.005 268.705H4.36V293.415ZM7.825 279.1V271.715H12.935C15.315 271.715 16.645 273.185 16.645 275.355C16.645 277.525 15.245 279.1 13.005 279.1H7.825ZM7.825 290.405V281.97H13.355C15.945 281.97 17.625 283.685 17.625 286.205C17.625 288.725 16.05 290.405 13.39 290.405H7.825ZM26.5426 293.415H30.0076V283.58H35.2926L40.5076 293.415H44.4276L39.1776 283.825C38.7226 283.02 38.4426 282.705 38.4426 282.705V282.635C41.1376 281.76 42.8876 279.1 42.8876 275.95C42.8876 272.695 41.2426 270.21 38.7226 269.265C37.7776 268.915 36.6926 268.705 34.1026 268.705H26.5426V293.415ZM30.0076 280.57V271.715H33.9976C35.9226 271.715 36.7276 271.925 37.3926 272.275C38.6526 272.975 39.3526 274.27 39.3526 276.09C39.3526 278.855 37.6726 280.57 34.9776 280.57H30.0076ZM48.9645 293.415H52.4295V268.705H48.9645V293.415ZM59.15 293.415H67.34C74.9 293.415 79.87 288.865 79.87 281.025C79.87 273.22 74.9 268.705 67.34 268.705H59.15V293.415ZM62.615 290.405V271.715H67.095C72.625 271.715 76.3 274.97 76.3 281.025C76.3 287.115 72.66 290.405 67.095 290.405H62.615ZM83.4132 281.025C83.4132 288.585 88.9082 293.835 95.5582 293.835C100.458 293.835 103.153 290.825 103.153 290.825H103.223C103.223 290.825 103.188 291.35 103.188 291.875V293.415H106.233V280.99H99.0582V284H103.083V287.57C103.083 287.57 100.353 290.65 96.0832 290.65C90.9032 290.65 86.9832 286.695 86.9832 280.955C86.9832 275.67 90.4832 271.435 96.2932 271.435C100.493 271.435 103.258 273.85 103.258 273.85L105.008 271.26C105.008 271.26 101.928 268.285 96.0132 268.285C88.8032 268.285 83.4132 273.885 83.4132 281.025ZM111.65 293.415H126.595V290.405H115.115V282.46H123.97V279.45H115.115V271.715H126V268.705H111.65V293.415Z" fill="#4066B0"/>
<path d="M4.36 293.415H3.86V293.915H4.36V293.415ZM17.1 280.395H16.6V280.768L16.9575 280.874L17.1 280.395ZM17.1 280.325L16.8698 279.881L16.6 280.021V280.325H17.1ZM4.36 268.705V268.205H3.86V268.705H4.36ZM7.825 279.1H7.325V279.6H7.825V279.1ZM7.825 271.715V271.215H7.325V271.715H7.825ZM7.825 290.405H7.325V290.905H7.825V290.405ZM7.825 281.97V281.47H7.325V281.97H7.825ZM4.36 293.915H13.215V292.915H4.36V293.915ZM13.215 293.915C15.4706 293.915 17.5775 293.297 19.1309 292.031C20.697 290.754 21.66 288.85 21.66 286.38H20.66C20.66 288.565 19.8205 290.178 18.4991 291.256C17.165 292.343 15.2994 292.915 13.215 292.915V293.915ZM21.66 286.38C21.66 283.446 20.0909 280.763 17.2425 279.916L16.9575 280.874C19.2891 281.567 20.66 283.784 20.66 286.38H21.66ZM17.6 280.395V280.325H16.6V280.395H17.6ZM17.3302 280.769C19.3953 279.698 20.68 277.596 20.68 275.005H19.68C19.68 277.244 18.5847 278.992 16.8698 279.881L17.3302 280.769ZM20.68 275.005C20.68 272.874 19.8707 271.155 18.4772 269.977C17.0933 268.807 15.1758 268.205 13.005 268.205V269.205C14.9992 269.205 16.6692 269.758 17.8316 270.741C18.9843 271.715 19.68 273.146 19.68 275.005H20.68ZM13.005 268.205H4.36V269.205H13.005V268.205ZM3.86 268.705V293.415H4.86V268.705H3.86ZM8.325 279.1V271.715H7.325V279.1H8.325ZM7.825 272.215H12.935V271.215H7.825V272.215ZM12.935 272.215C14.0202 272.215 14.8091 272.548 15.3265 273.072C15.8455 273.599 16.145 274.372 16.145 275.355H17.145C17.145 274.168 16.7795 273.121 16.0385 272.37C15.2959 271.617 14.2298 271.215 12.935 271.215V272.215ZM16.145 275.355C16.145 276.332 15.831 277.139 15.302 277.697C14.7761 278.253 14.0024 278.6 13.005 278.6V279.6C14.2476 279.6 15.2939 279.16 16.028 278.385C16.759 277.614 17.145 276.548 17.145 275.355H16.145ZM13.005 278.6H7.825V279.6H13.005V278.6ZM8.325 290.405V281.97H7.325V290.405H8.325ZM7.825 282.47H13.355V281.47H7.825V282.47ZM13.355 282.47C14.537 282.47 15.4707 282.859 16.1077 283.496C16.7449 284.133 17.125 285.058 17.125 286.205H18.125C18.125 284.832 17.6651 283.639 16.8148 282.789C15.9643 281.938 14.763 281.47 13.355 281.47V282.47ZM17.125 286.205C17.125 287.36 16.7659 288.275 16.1493 288.899C15.534 289.521 14.6126 289.905 13.39 289.905V290.905C14.8274 290.905 16.0235 290.449 16.8607 289.601C17.6967 288.755 18.125 287.57 18.125 286.205H17.125ZM13.39 289.905H7.825V290.905H13.39V289.905ZM26.5426 293.415H26.0426V293.915H26.5426V293.415ZM30.0076 293.415V293.915H30.5076V293.415H30.0076ZM30.0076 283.58V283.08H29.5076V283.58H30.0076ZM35.2926 283.58L35.7344 283.346L35.5934 283.08H35.2926V283.58ZM40.5076 293.415L40.0659 293.649L40.2068 293.915H40.5076V293.415ZM44.4276 293.415V293.915H45.2714L44.8662 293.175L44.4276 293.415ZM39.1776 283.825L39.6162 283.585L39.6129 283.579L39.1776 283.825ZM38.4426 282.705H37.9426V282.895L38.0689 283.037L38.4426 282.705ZM38.4426 282.635L38.2882 282.159L37.9426 282.272V282.635H38.4426ZM38.7226 269.265L38.8982 268.797L38.8963 268.796L38.7226 269.265ZM26.5426 268.705V268.205H26.0426V268.705H26.5426ZM30.0076 280.57H29.5076V281.07H30.0076V280.57ZM30.0076 271.715V271.215H29.5076V271.715H30.0076ZM37.3926 272.275L37.6355 271.838L37.6255 271.833L37.3926 272.275ZM26.5426 293.915H30.0076V292.915H26.5426V293.915ZM30.5076 293.415V283.58H29.5076V293.415H30.5076ZM30.0076 284.08H35.2926V283.08H30.0076V284.08ZM34.8509 283.814L40.0659 293.649L40.9494 293.181L35.7344 283.346L34.8509 283.814ZM40.5076 293.915H44.4276V292.915H40.5076V293.915ZM44.8662 293.175L39.6162 283.585L38.739 284.065L43.989 293.655L44.8662 293.175ZM39.6129 283.579C39.3775 283.163 39.1848 282.868 39.0477 282.674C38.9791 282.578 38.9245 282.506 38.8854 282.456C38.8658 282.432 38.8502 282.413 38.8386 282.399C38.8328 282.392 38.828 282.386 38.8243 282.382C38.8225 282.38 38.8209 282.378 38.8195 282.376C38.8189 282.376 38.8183 282.375 38.8177 282.374C38.8175 282.374 38.8172 282.374 38.817 282.374C38.8169 282.373 38.8167 282.373 38.8166 282.373C38.8166 282.373 38.8165 282.373 38.8165 282.373C38.8164 282.373 38.8163 282.373 38.4426 282.705C38.0689 283.037 38.0688 283.037 38.0688 283.037C38.0687 283.037 38.0687 283.037 38.0686 283.037C38.0685 283.037 38.0684 283.037 38.0684 283.037C38.0682 283.036 38.0681 283.036 38.0679 283.036C38.0677 283.036 38.0675 283.036 38.0673 283.035C38.0671 283.035 38.0671 283.035 38.0674 283.036C38.068 283.036 38.0697 283.038 38.0725 283.042C38.078 283.048 38.0878 283.06 38.1016 283.077C38.1292 283.112 38.173 283.169 38.2313 283.252C38.3479 283.417 38.5227 283.682 38.7423 284.071L39.6129 283.579ZM38.9426 282.705V282.635H37.9426V282.705H38.9426ZM38.597 283.111C41.5308 282.158 43.3876 279.28 43.3876 275.95H42.3876C42.3876 278.92 40.7444 281.362 38.2882 282.159L38.597 283.111ZM43.3876 275.95C43.3876 272.521 41.6437 269.826 38.8982 268.797L38.5471 269.733C40.8415 270.594 42.3876 272.869 42.3876 275.95H43.3876ZM38.8963 268.796C37.8716 268.417 36.7191 268.205 34.1026 268.205V269.205C36.6661 269.205 37.6837 269.413 38.549 269.734L38.8963 268.796ZM34.1026 268.205H26.5426V269.205H34.1026V268.205ZM26.0426 268.705V293.415H27.0426V268.705H26.0426ZM30.5076 280.57V271.715H29.5076V280.57H30.5076ZM30.0076 272.215H33.9976V271.215H30.0076V272.215ZM33.9976 272.215C35.8884 272.215 36.599 272.422 37.1597 272.717L37.6255 271.833C36.8563 271.428 35.9568 271.215 33.9976 271.215V272.215ZM37.1498 272.712C38.2175 273.305 38.8526 274.41 38.8526 276.09H39.8526C39.8526 274.13 39.0877 272.645 37.6354 271.838L37.1498 272.712ZM38.8526 276.09C38.8526 277.371 38.4652 278.355 37.8182 279.017C37.1724 279.678 36.2169 280.07 34.9776 280.07V281.07C36.4333 281.07 37.6654 280.604 38.5333 279.716C39.4 278.83 39.8526 277.574 39.8526 276.09H38.8526ZM34.9776 280.07H30.0076V281.07H34.9776V280.07ZM48.9645 293.415H48.4645V293.915H48.9645V293.415ZM52.4295 293.415V293.915H52.9295V293.415H52.4295ZM52.4295 268.705H52.9295V268.205H52.4295V268.705ZM48.9645 268.705V268.205H48.4645V268.705H48.9645ZM48.9645 293.915H52.4295V292.915H48.9645V293.915ZM52.9295 293.415V268.705H51.9295V293.415H52.9295ZM52.4295 268.205H48.9645V269.205H52.4295V268.205ZM48.4645 268.705V293.415H49.4645V268.705H48.4645ZM59.15 293.415H58.65V293.915H59.15V293.415ZM59.15 268.705V268.205H58.65V268.705H59.15ZM62.615 290.405H62.115V290.905H62.615V290.405ZM62.615 271.715V271.215H62.115V271.715H62.615ZM59.15 293.915H67.34V292.915H59.15V293.915ZM67.34 293.915C71.2198 293.915 74.4875 292.746 76.7878 290.519C79.0905 288.29 80.37 285.053 80.37 281.025H79.37C79.37 284.837 78.1646 287.795 76.0923 289.801C74.0176 291.809 71.0203 292.915 67.34 292.915V293.915ZM80.37 281.025C80.37 277.014 79.09 273.794 76.7867 271.578C74.4861 269.365 71.2187 268.205 67.34 268.205V269.205C71.0213 269.205 74.019 270.303 76.0934 272.298C78.1651 274.291 79.37 277.232 79.37 281.025H80.37ZM67.34 268.205H59.15V269.205H67.34V268.205ZM58.65 268.705V293.415H59.65V268.705H58.65ZM63.115 290.405V271.715H62.115V290.405H63.115ZM62.615 272.215H67.095V271.215H62.615V272.215ZM67.095 272.215C69.7632 272.215 71.9271 272.999 73.4221 274.457C74.9149 275.914 75.8 278.1 75.8 281.025H76.8C76.8 277.895 75.8477 275.427 74.1204 273.742C72.3955 272.059 69.9569 271.215 67.095 271.215V272.215ZM75.8 281.025C75.8 283.97 74.9223 286.174 73.4333 287.643C71.9428 289.113 69.7799 289.905 67.095 289.905V290.905C69.9752 290.905 72.4148 290.052 74.1355 288.355C75.8578 286.656 76.8 284.17 76.8 281.025H75.8ZM67.095 289.905H62.615V290.905H67.095V289.905ZM103.153 290.825V290.325H102.93L102.781 290.492L103.153 290.825ZM103.223 290.825L103.722 290.858L103.758 290.325H103.223V290.825ZM103.188 293.415H102.688V293.915H103.188V293.415ZM106.233 293.415V293.915H106.733V293.415H106.233ZM106.233 280.99H106.733V280.49H106.233V280.99ZM99.0582 280.99V280.49H98.5582V280.99H99.0582ZM99.0582 284H98.5582V284.5H99.0582V284ZM103.083 284H103.583V283.5H103.083V284ZM103.083 287.57L103.457 287.902L103.583 287.76V287.57H103.083ZM103.258 273.85L102.929 274.227L103.356 274.599L103.673 274.13L103.258 273.85ZM105.008 271.26L105.423 271.54L105.658 271.192L105.356 270.9L105.008 271.26ZM82.9132 281.025C82.9132 288.85 88.6211 294.335 95.5582 294.335V293.335C89.1954 293.335 83.9132 288.32 83.9132 281.025H82.9132ZM95.5582 294.335C98.1144 294.335 100.099 293.549 101.446 292.762C102.118 292.368 102.633 291.974 102.981 291.675C103.155 291.526 103.288 291.4 103.379 291.31C103.425 291.265 103.46 291.229 103.484 291.203C103.497 291.19 103.506 291.18 103.513 291.173C103.516 291.169 103.519 291.166 103.521 291.163C103.522 291.162 103.523 291.161 103.524 291.16C103.524 291.16 103.525 291.16 103.525 291.159C103.525 291.159 103.525 291.159 103.525 291.159C103.526 291.159 103.526 291.159 103.153 290.825C102.781 290.492 102.781 290.491 102.781 290.491C102.781 290.491 102.781 290.491 102.781 290.491C102.781 290.491 102.781 290.491 102.781 290.491C102.781 290.491 102.781 290.491 102.781 290.491C102.781 290.492 102.779 290.493 102.778 290.495C102.774 290.499 102.768 290.505 102.759 290.515C102.742 290.533 102.714 290.561 102.676 290.599C102.601 290.673 102.485 290.783 102.33 290.916C102.02 291.182 101.554 291.54 100.941 291.898C99.7146 292.616 97.9021 293.335 95.5582 293.335V294.335ZM103.153 291.325H103.223V290.325H103.153V291.325ZM103.223 290.825C102.724 290.792 102.724 290.792 102.724 290.792C102.724 290.792 102.724 290.792 102.724 290.792C102.724 290.792 102.724 290.792 102.724 290.792C102.724 290.792 102.724 290.792 102.724 290.792C102.724 290.793 102.724 290.793 102.724 290.794C102.724 290.795 102.724 290.797 102.724 290.799C102.724 290.803 102.723 290.809 102.723 290.818C102.722 290.834 102.72 290.857 102.719 290.887C102.715 290.946 102.711 291.03 102.706 291.131C102.697 291.332 102.688 291.602 102.688 291.875H103.688C103.688 291.623 103.697 291.368 103.705 291.175C103.71 291.079 103.714 290.999 103.717 290.944C103.719 290.916 103.72 290.894 103.721 290.88C103.721 290.872 103.722 290.867 103.722 290.863C103.722 290.861 103.722 290.86 103.722 290.859C103.722 290.859 103.722 290.859 103.722 290.858C103.722 290.858 103.722 290.858 103.722 290.858C103.722 290.858 103.722 290.858 103.722 290.858C103.722 290.858 103.722 290.858 103.722 290.858C103.722 290.858 103.722 290.858 103.223 290.825ZM102.688 291.875V293.415H103.688V291.875H102.688ZM103.188 293.915H106.233V292.915H103.188V293.915ZM106.733 293.415V280.99H105.733V293.415H106.733ZM106.233 280.49H99.0582V281.49H106.233V280.49ZM98.5582 280.99V284H99.5582V280.99H98.5582ZM99.0582 284.5H103.083V283.5H99.0582V284.5ZM102.583 284V287.57H103.583V284H102.583ZM103.083 287.57C102.709 287.238 102.709 287.238 102.709 287.238C102.709 287.238 102.709 287.238 102.709 287.238C102.71 287.238 102.71 287.238 102.71 287.238C102.71 287.238 102.709 287.238 102.709 287.238C102.708 287.239 102.707 287.24 102.705 287.243C102.701 287.247 102.695 287.254 102.686 287.264C102.668 287.283 102.64 287.313 102.601 287.351C102.525 287.429 102.409 287.542 102.257 287.679C101.95 287.953 101.498 288.32 100.917 288.688C99.7537 289.424 98.0959 290.15 96.0832 290.15V291.15C98.3406 291.15 100.183 290.336 101.452 289.532C102.088 289.13 102.584 288.727 102.923 288.424C103.093 288.272 103.224 288.144 103.314 288.053C103.359 288.008 103.393 287.971 103.417 287.946C103.429 287.933 103.439 287.923 103.445 287.915C103.449 287.911 103.451 287.908 103.453 287.906C103.454 287.905 103.455 287.904 103.456 287.903C103.456 287.903 103.457 287.903 103.457 287.902C103.457 287.902 103.457 287.902 103.457 287.902C103.457 287.902 103.457 287.902 103.083 287.57ZM96.0832 290.15C91.2014 290.15 87.4832 286.441 87.4832 280.955H86.4832C86.4832 286.949 90.6051 291.15 96.0832 291.15V290.15ZM87.4832 280.955C87.4832 278.422 88.3212 276.169 89.8254 274.554C91.3253 272.943 93.5168 271.935 96.2932 271.935V270.935C93.2597 270.935 90.7962 272.044 89.0936 273.872C87.3953 275.696 86.4832 278.203 86.4832 280.955H87.4832ZM96.2932 271.935C98.2969 271.935 99.9617 272.511 101.128 273.09C101.711 273.38 102.167 273.668 102.475 273.883C102.629 273.99 102.745 274.079 102.822 274.139C102.86 274.169 102.888 274.192 102.907 274.207C102.916 274.215 102.922 274.22 102.926 274.224C102.928 274.225 102.929 274.226 102.93 274.227C102.93 274.227 102.93 274.227 102.93 274.227C102.93 274.227 102.93 274.227 102.93 274.227C102.93 274.227 102.93 274.227 102.93 274.227C102.929 274.227 102.929 274.227 103.258 273.85C103.587 273.473 103.587 273.473 103.587 273.473C103.587 273.473 103.587 273.473 103.586 273.473C103.586 273.473 103.586 273.472 103.586 273.472C103.585 273.471 103.584 273.471 103.583 273.47C103.581 273.468 103.578 273.466 103.575 273.463C103.568 273.457 103.558 273.449 103.546 273.438C103.521 273.418 103.486 273.389 103.441 273.354C103.35 273.282 103.218 273.182 103.046 273.062C102.705 272.824 102.207 272.509 101.573 272.195C100.307 271.566 98.4896 270.935 96.2932 270.935V271.935ZM103.673 274.13L105.423 271.54L104.594 270.98L102.844 273.57L103.673 274.13ZM105.008 271.26C105.356 270.9 105.355 270.9 105.355 270.9C105.355 270.9 105.355 270.9 105.355 270.9C105.354 270.899 105.354 270.899 105.354 270.899C105.353 270.898 105.352 270.897 105.351 270.896C105.348 270.893 105.345 270.89 105.341 270.887C105.333 270.879 105.322 270.869 105.308 270.856C105.28 270.831 105.24 270.795 105.188 270.751C105.084 270.662 104.931 270.539 104.73 270.392C104.328 270.098 103.734 269.71 102.95 269.324C101.381 268.551 99.0573 267.785 96.0132 267.785V268.785C98.8841 268.785 101.058 269.506 102.508 270.221C103.234 270.579 103.779 270.935 104.139 271.199C104.32 271.331 104.454 271.439 104.541 271.513C104.584 271.55 104.616 271.579 104.636 271.597C104.646 271.606 104.653 271.613 104.657 271.616C104.659 271.618 104.661 271.62 104.661 271.62C104.662 271.62 104.662 271.621 104.662 271.62C104.662 271.62 104.662 271.62 104.661 271.62C104.661 271.62 104.661 271.62 104.661 271.62C104.661 271.62 104.661 271.62 105.008 271.26ZM96.0132 267.785C88.5181 267.785 82.9132 273.618 82.9132 281.025H83.9132C83.9132 274.152 89.0884 268.785 96.0132 268.785V267.785ZM111.65 293.415H111.15V293.915H111.65V293.415ZM126.595 293.415V293.915H127.095V293.415H126.595ZM126.595 290.405H127.095V289.905H126.595V290.405ZM115.115 290.405H114.615V290.905H115.115V290.405ZM115.115 282.46V281.96H114.615V282.46H115.115ZM123.97 282.46V282.96H124.47V282.46H123.97ZM123.97 279.45H124.47V278.95H123.97V279.45ZM115.115 279.45H114.615V279.95H115.115V279.45ZM115.115 271.715V271.215H114.615V271.715H115.115ZM126 271.715V272.215H126.5V271.715H126ZM126 268.705H126.5V268.205H126V268.705ZM111.65 268.705V268.205H111.15V268.705H111.65ZM111.65 293.915H126.595V292.915H111.65V293.915ZM127.095 293.415V290.405H126.095V293.415H127.095ZM126.595 289.905H115.115V290.905H126.595V289.905ZM115.615 290.405V282.46H114.615V290.405H115.615ZM115.115 282.96H123.97V281.96H115.115V282.96ZM124.47 282.46V279.45H123.47V282.46H124.47ZM123.97 278.95H115.115V279.95H123.97V278.95ZM115.615 279.45V271.715H114.615V279.45H115.615ZM115.115 272.215H126V271.215H115.115V272.215ZM126.5 271.715V268.705H125.5V271.715H126.5ZM126 268.205H111.65V269.205H126V268.205ZM111.15 268.705V293.415H112.15V268.705H111.15Z" fill="#4066B0"/>
<path d="M6.21299 250.586C5.93493 244.123 6.3851 237.649 7.55499 231.286C9.18999 222.398 10.616 213.844 17.072 205.586C20.2554 201.46 24.224 198.005 28.749 195.419C37.03 190.765 44.807 190.597 49.587 190.535C54.639 190.472 73.716 189.361 84.323 202.966C93.823 215.146 94.742 222.693 96.398 231.853C97.5742 238.394 97.8983 245.06 97.362 251.684C105.495 245.94 113.622 240.189 121.742 234.431C122.475 225.277 121.545 216.065 118.996 207.242C116.522 198.731 113.629 190.513 106.145 183.05C95.077 171.999 76.252 173.236 74.889 173.278C71.489 173.362 54.01 173.886 43.025 186.317C37.637 192.417 35.751 199.105 34.158 204.765C32.9182 209.539 32.0628 214.404 31.6 219.314C30.929 225.014 30.7 229.859 30.615 233.38C22.4597 239.082 14.3257 244.818 6.21299 250.586Z" stroke="black" stroke-width="5" stroke-miterlimit="10"/>
<path d="M98.109 122.736H106.964C111.304 122.736 114.909 120.356 114.909 115.701C114.909 112.936 113.439 110.486 110.849 109.716V109.646C112.739 108.666 113.929 106.741 113.929 104.326C113.929 100.336 110.919 98.0258 106.754 98.0258H98.109V122.736ZM101.574 108.421V101.036H106.684C109.064 101.036 110.394 102.506 110.394 104.676C110.394 106.846 108.994 108.421 106.754 108.421H101.574ZM101.574 119.726V111.291H107.104C109.694 111.291 111.374 113.006 111.374 115.526C111.374 118.046 109.799 119.726 107.139 119.726H101.574ZM120.292 122.736H123.757V112.901H129.042L134.257 122.736H138.177L132.927 113.146C132.472 112.341 132.192 112.026 132.192 112.026V111.956C134.887 111.081 136.637 108.421 136.637 105.271C136.637 102.016 134.992 99.5308 132.472 98.5858C131.527 98.2358 130.442 98.0258 127.852 98.0258H120.292V122.736ZM123.757 109.891V101.036H127.747C129.672 101.036 130.477 101.246 131.142 101.596C132.402 102.296 133.102 103.591 133.102 105.411C133.102 108.176 131.422 109.891 128.727 109.891H123.757ZM142.714 122.736H146.179V98.0258H142.714V122.736ZM152.899 122.736H161.089C168.649 122.736 173.619 118.186 173.619 110.346C173.619 102.541 168.649 98.0258 161.089 98.0258H152.899V122.736ZM156.364 119.726V101.036H160.844C166.374 101.036 170.049 104.291 170.049 110.346C170.049 116.436 166.409 119.726 160.844 119.726H156.364ZM177.162 110.346C177.162 117.906 182.657 123.156 189.307 123.156C194.207 123.156 196.902 120.146 196.902 120.146H196.972C196.972 120.146 196.937 120.671 196.937 121.196V122.736H199.982V110.311H192.807V113.321H196.832V116.891C196.832 116.891 194.102 119.971 189.832 119.971C184.652 119.971 180.732 116.016 180.732 110.276C180.732 104.991 184.232 100.756 190.042 100.756C194.242 100.756 197.007 103.171 197.007 103.171L198.757 100.581C198.757 100.581 195.677 97.6058 189.762 97.6058C182.552 97.6058 177.162 103.206 177.162 110.346ZM205.399 122.736H220.344V119.726H208.864V111.781H217.719V108.771H208.864V101.036H219.749V98.0258H205.399V122.736Z" fill="black"/>
<path d="M98.109 122.736H97.609V123.236H98.109V122.736ZM110.849 109.716H110.349V110.089L110.707 110.195L110.849 109.716ZM110.849 109.646L110.619 109.202L110.349 109.342V109.646H110.849ZM98.109 98.0258V97.5258H97.609V98.0258H98.109ZM101.574 108.421H101.074V108.921H101.574V108.421ZM101.574 101.036V100.536H101.074V101.036H101.574ZM101.574 119.726H101.074V120.226H101.574V119.726ZM101.574 111.291V110.791H101.074V111.291H101.574ZM98.109 123.236H106.964V122.236H98.109V123.236ZM106.964 123.236C109.22 123.236 111.326 122.618 112.88 121.352C114.446 120.075 115.409 118.171 115.409 115.701H114.409C114.409 117.886 113.569 119.499 112.248 120.576C110.914 121.664 109.048 122.236 106.964 122.236V123.236ZM115.409 115.701C115.409 112.767 113.84 110.083 110.992 109.237L110.707 110.195C113.038 110.888 114.409 113.105 114.409 115.701H115.409ZM111.349 109.716V109.646H110.349V109.716H111.349ZM111.079 110.09C113.144 109.019 114.429 106.917 114.429 104.326H113.429C113.429 106.565 112.334 108.313 110.619 109.202L111.079 110.09ZM114.429 104.326C114.429 102.195 113.62 100.476 112.226 99.2977C110.842 98.1279 108.925 97.5258 106.754 97.5258V98.5258C108.748 98.5258 110.418 99.0788 111.581 100.061C112.733 101.036 113.429 102.467 113.429 104.326H114.429ZM106.754 97.5258H98.109V98.5258H106.754V97.5258ZM97.609 98.0258V122.736H98.609V98.0258H97.609ZM102.074 108.421V101.036H101.074V108.421H102.074ZM101.574 101.536H106.684V100.536H101.574V101.536ZM106.684 101.536C107.769 101.536 108.558 101.869 109.076 102.393C109.595 102.919 109.894 103.693 109.894 104.676H110.894C110.894 103.489 110.529 102.442 109.788 101.691C109.045 100.938 107.979 100.536 106.684 100.536V101.536ZM109.894 104.676C109.894 105.653 109.58 106.46 109.051 107.018C108.525 107.573 107.751 107.921 106.754 107.921V108.921C107.997 108.921 109.043 108.481 109.777 107.706C110.508 106.934 110.894 105.868 110.894 104.676H109.894ZM106.754 107.921H101.574V108.921H106.754V107.921ZM102.074 119.726V111.291H101.074V119.726H102.074ZM101.574 111.791H107.104V110.791H101.574V111.791ZM107.104 111.791C108.286 111.791 109.22 112.18 109.857 112.817C110.494 113.454 110.874 114.379 110.874 115.526H111.874C111.874 114.152 111.414 112.96 110.564 112.11C109.713 111.259 108.512 110.791 107.104 110.791V111.791ZM110.874 115.526C110.874 116.681 110.515 117.595 109.898 118.219C109.283 118.842 108.362 119.226 107.139 119.226V120.226C108.576 120.226 109.773 119.769 110.61 118.922C111.446 118.076 111.874 116.891 111.874 115.526H110.874ZM107.139 119.226H101.574V120.226H107.139V119.226ZM120.292 122.736H119.792V123.236H120.292V122.736ZM123.757 122.736V123.236H124.257V122.736H123.757ZM123.757 112.901V112.401H123.257V112.901H123.757ZM129.042 112.901L129.483 112.667L129.342 112.401H129.042V112.901ZM134.257 122.736L133.815 122.97L133.956 123.236H134.257V122.736ZM138.177 122.736V123.236H139.02L138.615 122.496L138.177 122.736ZM132.927 113.146L133.365 112.906L133.362 112.9L132.927 113.146ZM132.192 112.026H131.692V112.216L131.818 112.358L132.192 112.026ZM132.192 111.956L132.037 111.48L131.692 111.592V111.956H132.192ZM132.472 98.5858L132.647 98.1177L132.645 98.117L132.472 98.5858ZM120.292 98.0258V97.5258H119.792V98.0258H120.292ZM123.757 109.891H123.257V110.391H123.757V109.891ZM123.757 101.036V100.536H123.257V101.036H123.757ZM131.142 101.596L131.385 101.159L131.375 101.153L131.142 101.596ZM120.292 123.236H123.757V122.236H120.292V123.236ZM124.257 122.736V112.901H123.257V122.736H124.257ZM123.757 113.401H129.042V112.401H123.757V113.401ZM128.6 113.135L133.815 122.97L134.698 122.502L129.483 112.667L128.6 113.135ZM134.257 123.236H138.177V122.236H134.257V123.236ZM138.615 122.496L133.365 112.906L132.488 113.386L137.738 122.976L138.615 122.496ZM133.362 112.9C133.127 112.483 132.934 112.189 132.797 111.995C132.728 111.898 132.674 111.827 132.634 111.777C132.615 111.752 132.599 111.733 132.588 111.72C132.582 111.713 132.577 111.707 132.573 111.703C132.571 111.701 132.57 111.699 132.569 111.697C132.568 111.697 132.567 111.696 132.567 111.695C132.566 111.695 132.566 111.695 132.566 111.694C132.566 111.694 132.566 111.694 132.566 111.694C132.566 111.694 132.566 111.694 132.565 111.694C132.565 111.694 132.565 111.694 132.192 112.026C131.818 112.358 131.818 112.358 131.818 112.358C131.818 112.358 131.818 112.358 131.818 112.358C131.818 112.358 131.817 112.357 131.817 112.357C131.817 112.357 131.817 112.357 131.817 112.357C131.817 112.357 131.816 112.356 131.816 112.356C131.816 112.356 131.816 112.356 131.816 112.356C131.817 112.357 131.819 112.359 131.822 112.362C131.827 112.369 131.837 112.381 131.851 112.398C131.878 112.433 131.922 112.49 131.98 112.573C132.097 112.738 132.272 113.003 132.491 113.392L133.362 112.9ZM132.692 112.026V111.956H131.692V112.026H132.692ZM132.346 112.431C135.28 111.479 137.137 108.601 137.137 105.271H136.137C136.137 108.241 134.493 110.683 132.037 111.48L132.346 112.431ZM137.137 105.271C137.137 101.842 135.393 99.1473 132.647 98.1177L132.296 99.054C134.591 99.9144 136.137 102.19 136.137 105.271H137.137ZM132.645 98.117C131.621 97.7374 130.468 97.5258 127.852 97.5258V98.5258C130.415 98.5258 131.433 98.7342 132.298 99.0547L132.645 98.117ZM127.852 97.5258H120.292V98.5258H127.852V97.5258ZM119.792 98.0258V122.736H120.792V98.0258H119.792ZM124.257 109.891V101.036H123.257V109.891H124.257ZM123.757 101.536H127.747V100.536H123.757V101.536ZM127.747 101.536C129.637 101.536 130.348 101.743 130.909 102.038L131.375 101.153C130.605 100.749 129.706 100.536 127.747 100.536V101.536ZM130.899 102.033C131.967 102.626 132.602 103.731 132.602 105.411H133.602C133.602 103.451 132.837 101.966 131.384 101.159L130.899 102.033ZM132.602 105.411C132.602 106.692 132.214 107.676 131.567 108.338C130.921 108.999 129.966 109.391 128.727 109.391V110.391C130.182 110.391 131.414 109.925 132.282 109.037C133.149 108.15 133.602 106.895 133.602 105.411H132.602ZM128.727 109.391H123.757V110.391H128.727V109.391ZM142.714 122.736H142.214V123.236H142.714V122.736ZM146.179 122.736V123.236H146.679V122.736H146.179ZM146.179 98.0258H146.679V97.5258H146.179V98.0258ZM142.714 98.0258V97.5258H142.214V98.0258H142.714ZM142.714 123.236H146.179V122.236H142.714V123.236ZM146.679 122.736V98.0258H145.679V122.736H146.679ZM146.179 97.5258H142.714V98.5258H146.179V97.5258ZM142.214 98.0258V122.736H143.214V98.0258H142.214ZM152.899 122.736H152.399V123.236H152.899V122.736ZM152.899 98.0258V97.5258H152.399V98.0258H152.899ZM156.364 119.726H155.864V120.226H156.364V119.726ZM156.364 101.036V100.536H155.864V101.036H156.364ZM152.899 123.236H161.089V122.236H152.899V123.236ZM161.089 123.236C164.969 123.236 168.237 122.067 170.537 119.84C172.84 117.611 174.119 114.374 174.119 110.346H173.119C173.119 114.158 171.914 117.116 169.841 119.122C167.767 121.13 164.769 122.236 161.089 122.236V123.236ZM174.119 110.346C174.119 106.334 172.839 103.114 170.536 100.899C168.235 98.6855 164.968 97.5258 161.089 97.5258V98.5258C164.77 98.5258 167.768 99.6237 169.842 101.619C171.914 103.612 173.119 106.552 173.119 110.346H174.119ZM161.089 97.5258H152.899V98.5258H161.089V97.5258ZM152.399 98.0258V122.736H153.399V98.0258H152.399ZM156.864 119.726V101.036H155.864V119.726H156.864ZM156.364 101.536H160.844V100.536H156.364V101.536ZM160.844 101.536C163.512 101.536 165.676 102.32 167.171 103.778C168.664 105.234 169.549 107.421 169.549 110.346H170.549C170.549 107.216 169.597 104.747 167.869 103.062C166.145 101.38 163.706 100.536 160.844 100.536V101.536ZM169.549 110.346C169.549 113.29 168.671 115.495 167.182 116.964C165.692 118.434 163.529 119.226 160.844 119.226V120.226C163.724 120.226 166.164 119.373 167.885 117.676C169.607 115.977 170.549 113.491 170.549 110.346H169.549ZM160.844 119.226H156.364V120.226H160.844V119.226ZM196.902 120.146V119.646H196.679L196.53 119.812L196.902 120.146ZM196.972 120.146L197.471 120.179L197.507 119.646H196.972V120.146ZM196.937 122.736H196.437V123.236H196.937V122.736ZM199.982 122.736V123.236H200.482V122.736H199.982ZM199.982 110.311H200.482V109.811H199.982V110.311ZM192.807 110.311V109.811H192.307V110.311H192.807ZM192.807 113.321H192.307V113.821H192.807V113.321ZM196.832 113.321H197.332V112.821H196.832V113.321ZM196.832 116.891L197.206 117.222L197.332 117.081V116.891H196.832ZM197.007 103.171L196.678 103.547L197.105 103.92L197.422 103.451L197.007 103.171ZM198.757 100.581L199.172 100.861L199.407 100.513L199.105 100.221L198.757 100.581ZM176.662 110.346C176.662 118.171 182.37 123.656 189.307 123.656V122.656C182.944 122.656 177.662 117.641 177.662 110.346H176.662ZM189.307 123.656C191.863 123.656 193.848 122.87 195.195 122.082C195.867 121.689 196.382 121.294 196.73 120.996C196.904 120.846 197.037 120.721 197.128 120.631C197.174 120.586 197.209 120.55 197.233 120.524C197.246 120.511 197.255 120.501 197.262 120.493C197.266 120.49 197.268 120.487 197.27 120.484C197.271 120.483 197.272 120.482 197.273 120.481C197.273 120.481 197.274 120.48 197.274 120.48C197.274 120.48 197.274 120.48 197.274 120.48C197.275 120.48 197.275 120.479 196.902 120.146C196.53 119.812 196.53 119.812 196.53 119.812C196.53 119.812 196.53 119.812 196.53 119.812C196.53 119.812 196.53 119.812 196.53 119.812C196.531 119.811 196.53 119.812 196.53 119.812C196.53 119.812 196.529 119.814 196.527 119.816C196.523 119.82 196.517 119.826 196.508 119.835C196.491 119.854 196.463 119.882 196.425 119.92C196.35 119.994 196.234 120.104 196.079 120.237C195.769 120.502 195.303 120.86 194.69 121.219C193.464 121.937 191.651 122.656 189.307 122.656V123.656ZM196.902 120.646H196.972V119.646H196.902V120.646ZM196.972 120.146C196.473 120.113 196.473 120.113 196.473 120.113C196.473 120.113 196.473 120.113 196.473 120.113C196.473 120.113 196.473 120.113 196.473 120.113C196.473 120.113 196.473 120.113 196.473 120.113C196.473 120.114 196.473 120.114 196.473 120.115C196.473 120.116 196.473 120.118 196.473 120.12C196.473 120.124 196.472 120.13 196.472 120.138C196.471 120.155 196.469 120.178 196.468 120.208C196.464 120.267 196.46 120.351 196.455 120.452C196.446 120.653 196.437 120.923 196.437 121.196H197.437C197.437 120.943 197.446 120.689 197.454 120.496C197.459 120.4 197.463 120.32 197.466 120.265C197.468 120.237 197.469 120.215 197.47 120.2C197.47 120.193 197.471 120.188 197.471 120.184C197.471 120.182 197.471 120.181 197.471 120.18C197.471 120.18 197.471 120.179 197.471 120.179C197.471 120.179 197.471 120.179 197.471 120.179C197.471 120.179 197.471 120.179 197.471 120.179C197.471 120.179 197.471 120.179 197.471 120.179C197.471 120.179 197.471 120.179 196.972 120.146ZM196.437 121.196V122.736H197.437V121.196H196.437ZM196.937 123.236H199.982V122.236H196.937V123.236ZM200.482 122.736V110.311H199.482V122.736H200.482ZM199.982 109.811H192.807V110.811H199.982V109.811ZM192.307 110.311V113.321H193.307V110.311H192.307ZM192.807 113.821H196.832V112.821H192.807V113.821ZM196.332 113.321V116.891H197.332V113.321H196.332ZM196.832 116.891C196.458 116.559 196.458 116.559 196.458 116.559C196.458 116.559 196.458 116.559 196.458 116.559C196.459 116.559 196.459 116.559 196.459 116.559C196.459 116.559 196.458 116.559 196.458 116.559C196.457 116.56 196.456 116.561 196.454 116.563C196.45 116.568 196.444 116.575 196.435 116.584C196.417 116.604 196.389 116.634 196.35 116.672C196.274 116.75 196.158 116.863 196.006 117C195.699 117.273 195.247 117.641 194.666 118.008C193.503 118.745 191.845 119.471 189.832 119.471V120.471C192.09 120.471 193.932 119.657 195.201 118.853C195.837 118.451 196.333 118.048 196.672 117.745C196.842 117.593 196.973 117.465 197.063 117.374C197.108 117.329 197.142 117.292 197.166 117.266C197.178 117.254 197.188 117.243 197.194 117.236C197.198 117.232 197.2 117.229 197.202 117.227C197.203 117.226 197.204 117.225 197.205 117.224C197.205 117.224 197.206 117.223 197.206 117.223C197.206 117.223 197.206 117.223 197.206 117.223C197.206 117.223 197.206 117.222 196.832 116.891ZM189.832 119.471C184.95 119.471 181.232 115.762 181.232 110.276H180.232C180.232 116.269 184.354 120.471 189.832 120.471V119.471ZM181.232 110.276C181.232 107.743 182.07 105.49 183.574 103.875C185.074 102.264 187.266 101.256 190.042 101.256V100.256C187.009 100.256 184.545 101.365 182.843 103.193C181.144 105.017 180.232 107.524 180.232 110.276H181.232ZM190.042 101.256C192.046 101.256 193.711 101.832 194.877 102.411C195.46 102.7 195.916 102.989 196.224 103.204C196.378 103.311 196.494 103.399 196.571 103.46C196.609 103.49 196.638 103.513 196.656 103.528C196.665 103.536 196.671 103.541 196.675 103.544C196.677 103.546 196.678 103.547 196.679 103.548C196.679 103.548 196.679 103.548 196.679 103.548C196.679 103.548 196.679 103.548 196.679 103.548C196.679 103.548 196.679 103.548 196.679 103.548C196.678 103.548 196.678 103.547 197.007 103.171C197.336 102.794 197.336 102.794 197.336 102.794C197.336 102.794 197.336 102.794 197.336 102.794C197.335 102.793 197.335 102.793 197.335 102.793C197.334 102.792 197.333 102.791 197.332 102.791C197.33 102.789 197.327 102.786 197.324 102.783C197.317 102.778 197.307 102.769 197.295 102.759C197.27 102.739 197.235 102.71 197.19 102.674C197.099 102.603 196.967 102.503 196.796 102.383C196.454 102.145 195.956 101.83 195.322 101.515C194.056 100.887 192.239 100.256 190.042 100.256V101.256ZM197.422 103.451L199.172 100.861L198.343 100.301L196.593 102.891L197.422 103.451ZM198.757 100.581C199.105 100.221 199.104 100.221 199.104 100.221C199.104 100.221 199.104 100.221 199.104 100.22C199.103 100.22 199.103 100.22 199.103 100.219C199.102 100.219 199.101 100.218 199.1 100.216C199.097 100.214 199.094 100.211 199.09 100.207C199.082 100.2 199.071 100.19 199.057 100.177C199.029 100.152 198.989 100.116 198.937 100.072C198.833 99.9833 198.68 99.8595 198.479 99.7125C198.077 99.4185 197.483 99.031 196.699 98.6448C195.13 97.8719 192.806 97.1058 189.762 97.1058V98.1058C192.633 98.1058 194.807 98.8273 196.257 99.5418C196.983 99.8995 197.528 100.256 197.888 100.52C198.069 100.651 198.203 100.76 198.29 100.834C198.333 100.871 198.365 100.899 198.385 100.918C198.395 100.927 198.402 100.933 198.406 100.937C198.408 100.939 198.41 100.94 198.41 100.941C198.411 100.941 198.411 100.941 198.411 100.941C198.411 100.941 198.411 100.941 198.41 100.941C198.41 100.941 198.41 100.941 198.41 100.941C198.41 100.941 198.41 100.94 198.757 100.581ZM189.762 97.1058C182.267 97.1058 176.662 102.939 176.662 110.346H177.662C177.662 103.473 182.837 98.1058 189.762 98.1058V97.1058ZM205.399 122.736H204.899V123.236H205.399V122.736ZM220.344 122.736V123.236H220.844V122.736H220.344ZM220.344 119.726H220.844V119.226H220.344V119.726ZM208.864 119.726H208.364V120.226H208.864V119.726ZM208.864 111.781V111.281H208.364V111.781H208.864ZM217.719 111.781V112.281H218.219V111.781H217.719ZM217.719 108.771H218.219V108.271H217.719V108.771ZM208.864 108.771H208.364V109.271H208.864V108.771ZM208.864 101.036V100.536H208.364V101.036H208.864ZM219.749 101.036V101.536H220.249V101.036H219.749ZM219.749 98.0258H220.249V97.5258H219.749V98.0258ZM205.399 98.0258V97.5258H204.899V98.0258H205.399ZM205.399 123.236H220.344V122.236H205.399V123.236ZM220.844 122.736V119.726H219.844V122.736H220.844ZM220.344 119.226H208.864V120.226H220.344V119.226ZM209.364 119.726V111.781H208.364V119.726H209.364ZM208.864 112.281H217.719V111.281H208.864V112.281ZM218.219 111.781V108.771H217.219V111.781H218.219ZM217.719 108.271H208.864V109.271H217.719V108.271ZM209.364 108.771V101.036H208.364V108.771H209.364ZM208.864 101.536H219.749V100.536H208.864V101.536ZM220.249 101.036V98.0258H219.249V101.036H220.249ZM219.749 97.5258H205.399V98.5258H219.749V97.5258ZM204.899 98.0258V122.736H205.899V98.0258H204.899Z" fill="black"/>
<path d="M99.961 79.912C99.6825 73.4464 100.133 66.9699 101.303 60.605C102.938 51.717 104.364 43.164 110.82 34.905C114.003 30.7767 117.972 27.3193 122.497 24.732C130.778 20.078 138.555 19.91 143.335 19.848C148.387 19.785 167.464 18.674 178.071 32.279C187.571 44.459 188.49 52.006 190.146 61.166C191.322 67.707 191.646 74.3728 191.11 80.997C199.243 75.253 207.37 69.502 215.49 63.744C216.223 54.5896 215.293 45.378 212.744 36.555C210.27 28.044 207.377 19.826 199.893 12.363C188.782 1.294 169.978 2.531 168.593 2.573C165.193 2.657 147.714 3.181 136.729 15.612C131.341 21.712 129.455 28.4 127.862 34.06C126.623 38.8346 125.768 43.7009 125.306 48.612C124.635 54.312 124.406 59.157 124.321 62.678C116.208 68.3993 108.088 74.144 99.961 79.912Z" stroke="black" stroke-width="5" stroke-miterlimit="10"/>
<path d="M187.656 293.796H196.511C200.851 293.796 204.456 291.416 204.456 286.761C204.456 283.996 202.986 281.546 200.396 280.776V280.706C202.286 279.726 203.476 277.801 203.476 275.386C203.476 271.396 200.466 269.086 196.301 269.086H187.656V293.796ZM191.121 279.481V272.096H196.231C198.611 272.096 199.941 273.566 199.941 275.736C199.941 277.906 198.541 279.481 196.301 279.481H191.121ZM191.121 290.786V282.351H196.651C199.241 282.351 200.921 284.066 200.921 286.586C200.921 289.106 199.346 290.786 196.686 290.786H191.121ZM209.839 293.796H213.304V283.961H218.589L223.804 293.796H227.724L222.474 284.206C222.019 283.401 221.739 283.086 221.739 283.086V283.016C224.434 282.141 226.184 279.481 226.184 276.331C226.184 273.076 224.539 270.591 222.019 269.646C221.074 269.296 219.989 269.086 217.399 269.086H209.839V293.796ZM213.304 280.951V272.096H217.294C219.219 272.096 220.024 272.306 220.689 272.656C221.949 273.356 222.649 274.651 222.649 276.471C222.649 279.236 220.969 280.951 218.274 280.951H213.304ZM232.261 293.796H235.726V269.086H232.261V293.796ZM242.446 293.796H250.636C258.196 293.796 263.166 289.246 263.166 281.406C263.166 273.601 258.196 269.086 250.636 269.086H242.446V293.796ZM245.911 290.786V272.096H250.391C255.921 272.096 259.596 275.351 259.596 281.406C259.596 287.496 255.956 290.786 250.391 290.786H245.911ZM266.709 281.406C266.709 288.966 272.204 294.216 278.854 294.216C283.754 294.216 286.449 291.206 286.449 291.206H286.519C286.519 291.206 286.484 291.731 286.484 292.256V293.796H289.529V281.371H282.354V284.381H286.379V287.951C286.379 287.951 283.649 291.031 279.379 291.031C274.199 291.031 270.279 287.076 270.279 281.336C270.279 276.051 273.779 271.816 279.589 271.816C283.789 271.816 286.554 274.231 286.554 274.231L288.304 271.641C288.304 271.641 285.224 268.666 279.309 268.666C272.099 268.666 266.709 274.266 266.709 281.406ZM294.946 293.796H309.891V290.786H298.411V282.841H307.266V279.831H298.411V272.096H309.296V269.086H294.946V293.796Z" fill="#F69FAC"/>
<path d="M187.656 293.796H187.156V294.296H187.656V293.796ZM200.396 280.776H199.896V281.149L200.254 281.255L200.396 280.776ZM200.396 280.706L200.166 280.262L199.896 280.402V280.706H200.396ZM187.656 269.086V268.586H187.156V269.086H187.656ZM191.121 279.481H190.621V279.981H191.121V279.481ZM191.121 272.096V271.596H190.621V272.096H191.121ZM191.121 290.786H190.621V291.286H191.121V290.786ZM191.121 282.351V281.851H190.621V282.351H191.121ZM187.656 294.296H196.511V293.296H187.656V294.296ZM196.511 294.296C198.767 294.296 200.873 293.678 202.427 292.412C203.993 291.135 204.956 289.231 204.956 286.761H203.956C203.956 288.946 203.116 290.559 201.795 291.636C200.461 292.724 198.595 293.296 196.511 293.296V294.296ZM204.956 286.761C204.956 283.827 203.387 281.143 200.539 280.297L200.254 281.255C202.585 281.948 203.956 284.165 203.956 286.761H204.956ZM200.896 280.776V280.706H199.896V280.776H200.896ZM200.626 281.15C202.691 280.079 203.976 277.977 203.976 275.386H202.976C202.976 277.625 201.881 279.373 200.166 280.262L200.626 281.15ZM203.976 275.386C203.976 273.255 203.167 271.536 201.773 270.358C200.389 269.188 198.472 268.586 196.301 268.586V269.586C198.295 269.586 199.965 270.139 201.128 271.121C202.28 272.096 202.976 273.527 202.976 275.386H203.976ZM196.301 268.586H187.656V269.586H196.301V268.586ZM187.156 269.086V293.796H188.156V269.086H187.156ZM191.621 279.481V272.096H190.621V279.481H191.621ZM191.121 272.596H196.231V271.596H191.121V272.596ZM196.231 272.596C197.316 272.596 198.105 272.929 198.623 273.453C199.142 273.979 199.441 274.753 199.441 275.736H200.441C200.441 274.549 200.076 273.502 199.335 272.751C198.592 271.998 197.526 271.596 196.231 271.596V272.596ZM199.441 275.736C199.441 276.713 199.127 277.52 198.598 278.078C198.072 278.633 197.298 278.981 196.301 278.981V279.981C197.544 279.981 198.59 279.541 199.324 278.766C200.055 277.994 200.441 276.929 200.441 275.736H199.441ZM196.301 278.981H191.121V279.981H196.301V278.981ZM191.621 290.786V282.351H190.621V290.786H191.621ZM191.121 282.851H196.651V281.851H191.121V282.851ZM196.651 282.851C197.833 282.851 198.767 283.24 199.404 283.877C200.041 284.514 200.421 285.439 200.421 286.586H201.421C201.421 285.212 200.961 284.02 200.111 283.17C199.26 282.319 198.059 281.851 196.651 281.851V282.851ZM200.421 286.586C200.421 287.741 200.062 288.656 199.445 289.279C198.83 289.902 197.909 290.286 196.686 290.286V291.286C198.123 291.286 199.32 290.83 200.157 289.982C200.993 289.136 201.421 287.951 201.421 286.586H200.421ZM196.686 290.286H191.121V291.286H196.686V290.286ZM209.839 293.796H209.339V294.296H209.839V293.796ZM213.304 293.796V294.296H213.804V293.796H213.304ZM213.304 283.961V283.461H212.804V283.961H213.304ZM218.589 283.961L219.03 283.727L218.889 283.461H218.589V283.961ZM223.804 293.796L223.362 294.03L223.503 294.296H223.804V293.796ZM227.724 293.796V294.296H228.567L228.162 293.556L227.724 293.796ZM222.474 284.206L222.912 283.966L222.909 283.96L222.474 284.206ZM221.739 283.086H221.239V283.276L221.365 283.418L221.739 283.086ZM221.739 283.016L221.584 282.54L221.239 282.653V283.016H221.739ZM222.019 269.646L222.194 269.178L222.192 269.177L222.019 269.646ZM209.839 269.086V268.586H209.339V269.086H209.839ZM213.304 280.951H212.804V281.451H213.304V280.951ZM213.304 272.096V271.596H212.804V272.096H213.304ZM220.689 272.656L220.932 272.219L220.922 272.213L220.689 272.656ZM209.839 294.296H213.304V293.296H209.839V294.296ZM213.804 293.796V283.961H212.804V293.796H213.804ZM213.304 284.461H218.589V283.461H213.304V284.461ZM218.147 284.195L223.362 294.03L224.245 293.562L219.03 283.727L218.147 284.195ZM223.804 294.296H227.724V293.296H223.804V294.296ZM228.162 293.556L222.912 283.966L222.035 284.446L227.285 294.036L228.162 293.556ZM222.909 283.96C222.674 283.543 222.481 283.249 222.344 283.055C222.275 282.958 222.221 282.887 222.181 282.837C222.162 282.813 222.146 282.793 222.135 282.78C222.129 282.773 222.124 282.767 222.12 282.763C222.118 282.761 222.117 282.759 222.116 282.757C222.115 282.757 222.114 282.756 222.114 282.755C222.113 282.755 222.113 282.755 222.113 282.754C222.113 282.754 222.113 282.754 222.113 282.754C222.113 282.754 222.113 282.754 222.112 282.754C222.112 282.754 222.112 282.754 221.739 283.086C221.365 283.418 221.365 283.418 221.365 283.418C221.365 283.418 221.365 283.418 221.365 283.418C221.365 283.418 221.364 283.418 221.364 283.417C221.364 283.417 221.364 283.417 221.364 283.417C221.364 283.417 221.363 283.416 221.363 283.416C221.363 283.416 221.363 283.416 221.363 283.416C221.364 283.417 221.366 283.419 221.369 283.422C221.374 283.429 221.384 283.441 221.398 283.458C221.425 283.493 221.469 283.55 221.527 283.633C221.644 283.798 221.819 284.063 222.038 284.452L222.909 283.96ZM222.239 283.086V283.016H221.239V283.086H222.239ZM221.893 283.491C224.827 282.539 226.684 279.661 226.684 276.331H225.684C225.684 279.301 224.04 281.743 221.584 282.54L221.893 283.491ZM226.684 276.331C226.684 272.902 224.94 270.207 222.194 269.178L221.843 270.114C224.138 270.974 225.684 273.25 225.684 276.331H226.684ZM222.192 269.177C221.168 268.798 220.015 268.586 217.399 268.586V269.586C219.962 269.586 220.98 269.794 221.845 270.115L222.192 269.177ZM217.399 268.586H209.839V269.586H217.399V268.586ZM209.339 269.086V293.796H210.339V269.086H209.339ZM213.804 280.951V272.096H212.804V280.951H213.804ZM213.304 272.596H217.294V271.596H213.304V272.596ZM217.294 272.596C219.184 272.596 219.895 272.803 220.456 273.098L220.922 272.213C220.152 271.809 219.253 271.596 217.294 271.596V272.596ZM220.446 273.093C221.514 273.686 222.149 274.791 222.149 276.471H223.149C223.149 274.511 222.384 273.026 220.931 272.219L220.446 273.093ZM222.149 276.471C222.149 277.752 221.761 278.736 221.114 279.398C220.468 280.059 219.513 280.451 218.274 280.451V281.451C219.729 281.451 220.961 280.985 221.829 280.097C222.696 279.211 223.149 277.955 223.149 276.471H222.149ZM218.274 280.451H213.304V281.451H218.274V280.451ZM232.261 293.796H231.761V294.296H232.261V293.796ZM235.726 293.796V294.296H236.226V293.796H235.726ZM235.726 269.086H236.226V268.586H235.726V269.086ZM232.261 269.086V268.586H231.761V269.086H232.261ZM232.261 294.296H235.726V293.296H232.261V294.296ZM236.226 293.796V269.086H235.226V293.796H236.226ZM235.726 268.586H232.261V269.586H235.726V268.586ZM231.761 269.086V293.796H232.761V269.086H231.761ZM242.446 293.796H241.946V294.296H242.446V293.796ZM242.446 269.086V268.586H241.946V269.086H242.446ZM245.911 290.786H245.411V291.286H245.911V290.786ZM245.911 272.096V271.596H245.411V272.096H245.911ZM242.446 294.296H250.636V293.296H242.446V294.296ZM250.636 294.296C254.516 294.296 257.783 293.127 260.084 290.9C262.387 288.671 263.666 285.434 263.666 281.406H262.666C262.666 285.218 261.461 288.176 259.388 290.182C257.314 292.19 254.316 293.296 250.636 293.296V294.296ZM263.666 281.406C263.666 277.394 262.386 274.175 260.083 271.959C257.782 269.746 254.515 268.586 250.636 268.586V269.586C254.317 269.586 257.315 270.684 259.389 272.679C261.461 274.672 262.666 277.612 262.666 281.406H263.666ZM250.636 268.586H242.446V269.586H250.636V268.586ZM241.946 269.086V293.796H242.946V269.086H241.946ZM246.411 290.786V272.096H245.411V290.786H246.411ZM245.911 272.596H250.391V271.596H245.911V272.596ZM250.391 272.596C253.059 272.596 255.223 273.38 256.718 274.838C258.211 276.294 259.096 278.481 259.096 281.406H260.096C260.096 278.276 259.144 275.807 257.416 274.122C255.692 272.44 253.253 271.596 250.391 271.596V272.596ZM259.096 281.406C259.096 284.35 258.218 286.555 256.729 288.024C255.239 289.494 253.076 290.286 250.391 290.286V291.286C253.271 291.286 255.711 290.433 257.432 288.736C259.154 287.037 260.096 284.551 260.096 281.406H259.096ZM250.391 290.286H245.911V291.286H250.391V290.286ZM286.449 291.206V290.706H286.226L286.077 290.872L286.449 291.206ZM286.519 291.206L287.018 291.239L287.054 290.706H286.519V291.206ZM286.484 293.796H285.984V294.296H286.484V293.796ZM289.529 293.796V294.296H290.029V293.796H289.529ZM289.529 281.371H290.029V280.871H289.529V281.371ZM282.354 281.371V280.871H281.854V281.371H282.354ZM282.354 284.381H281.854V284.881H282.354V284.381ZM286.379 284.381H286.879V283.881H286.379V284.381ZM286.379 287.951L286.753 288.283L286.879 288.141V287.951H286.379ZM286.554 274.231L286.225 274.607L286.652 274.98L286.969 274.511L286.554 274.231ZM288.304 271.641L288.719 271.921L288.954 271.573L288.652 271.281L288.304 271.641ZM266.209 281.406C266.209 289.231 271.917 294.716 278.854 294.716V293.716C272.491 293.716 267.209 288.701 267.209 281.406H266.209ZM278.854 294.716C281.41 294.716 283.395 293.93 284.742 293.142C285.414 292.749 285.929 292.354 286.277 292.056C286.451 291.906 286.584 291.781 286.675 291.691C286.721 291.646 286.756 291.61 286.78 291.584C286.793 291.571 286.802 291.561 286.809 291.553C286.813 291.55 286.815 291.547 286.817 291.544C286.818 291.543 286.819 291.542 286.82 291.541C286.82 291.541 286.821 291.541 286.821 291.54C286.821 291.54 286.821 291.54 286.821 291.54C286.822 291.54 286.822 291.539 286.449 291.206C286.077 290.872 286.077 290.872 286.077 290.872C286.077 290.872 286.077 290.872 286.077 290.872C286.077 290.872 286.077 290.872 286.077 290.872C286.078 290.872 286.077 290.872 286.077 290.872C286.077 290.872 286.076 290.874 286.074 290.876C286.07 290.88 286.064 290.886 286.055 290.895C286.038 290.914 286.01 290.942 285.972 290.98C285.897 291.054 285.781 291.164 285.626 291.297C285.316 291.562 284.85 291.92 284.237 292.279C283.011 292.997 281.198 293.716 278.854 293.716V294.716ZM286.449 291.706H286.519V290.706H286.449V291.706ZM286.519 291.206C286.02 291.173 286.02 291.173 286.02 291.173C286.02 291.173 286.02 291.173 286.02 291.173C286.02 291.173 286.02 291.173 286.02 291.173C286.02 291.173 286.02 291.173 286.02 291.173C286.02 291.174 286.02 291.174 286.02 291.175C286.02 291.176 286.02 291.178 286.02 291.18C286.02 291.184 286.019 291.19 286.019 291.198C286.018 291.215 286.016 291.238 286.015 291.268C286.011 291.327 286.007 291.411 286.002 291.512C285.993 291.713 285.984 291.983 285.984 292.256H286.984C286.984 292.003 286.993 291.749 287.001 291.556C287.006 291.46 287.01 291.38 287.013 291.325C287.015 291.297 287.016 291.275 287.017 291.261C287.017 291.253 287.018 291.248 287.018 291.244C287.018 291.242 287.018 291.241 287.018 291.24C287.018 291.24 287.018 291.239 287.018 291.239C287.018 291.239 287.018 291.239 287.018 291.239C287.018 291.239 287.018 291.239 287.018 291.239C287.018 291.239 287.018 291.239 287.018 291.239C287.018 291.239 287.018 291.239 286.519 291.206ZM285.984 292.256V293.796H286.984V292.256H285.984ZM286.484 294.296H289.529V293.296H286.484V294.296ZM290.029 293.796V281.371H289.029V293.796H290.029ZM289.529 280.871H282.354V281.871H289.529V280.871ZM281.854 281.371V284.381H282.854V281.371H281.854ZM282.354 284.881H286.379V283.881H282.354V284.881ZM285.879 284.381V287.951H286.879V284.381H285.879ZM286.379 287.951C286.005 287.619 286.005 287.619 286.005 287.619C286.005 287.619 286.005 287.619 286.005 287.619C286.006 287.619 286.006 287.619 286.006 287.619C286.006 287.619 286.005 287.619 286.005 287.619C286.004 287.62 286.003 287.621 286.001 287.623C285.997 287.628 285.991 287.635 285.982 287.644C285.964 287.664 285.936 287.694 285.897 287.732C285.821 287.81 285.705 287.923 285.553 288.06C285.246 288.333 284.794 288.701 284.213 289.068C283.05 289.805 281.392 290.531 279.379 290.531V291.531C281.637 291.531 283.479 290.717 284.748 289.913C285.384 289.511 285.88 289.108 286.219 288.805C286.389 288.653 286.52 288.525 286.61 288.434C286.655 288.389 286.689 288.352 286.713 288.326C286.725 288.314 286.735 288.303 286.741 288.296C286.745 288.292 286.747 288.289 286.749 288.287C286.75 288.286 286.751 288.285 286.752 288.284C286.752 288.284 286.753 288.284 286.753 288.283C286.753 288.283 286.753 288.283 286.753 288.283C286.753 288.283 286.753 288.283 286.379 287.951ZM279.379 290.531C274.497 290.531 270.779 286.822 270.779 281.336H269.779C269.779 287.33 273.901 291.531 279.379 291.531V290.531ZM270.779 281.336C270.779 278.803 271.617 276.55 273.121 274.935C274.621 273.324 276.813 272.316 279.589 272.316V271.316C276.556 271.316 274.092 272.425 272.39 274.253C270.691 276.077 269.779 278.584 269.779 281.336H270.779ZM279.589 272.316C281.593 272.316 283.258 272.892 284.424 273.471C285.007 273.761 285.463 274.049 285.771 274.264C285.925 274.371 286.041 274.459 286.118 274.52C286.156 274.55 286.185 274.573 286.203 274.588C286.212 274.596 286.218 274.601 286.222 274.604C286.224 274.606 286.225 274.607 286.226 274.608C286.226 274.608 286.226 274.608 286.226 274.608C286.226 274.608 286.226 274.608 286.226 274.608C286.226 274.608 286.226 274.608 286.226 274.608C286.225 274.608 286.225 274.607 286.554 274.231C286.883 273.854 286.883 273.854 286.883 273.854C286.883 273.854 286.883 273.854 286.882 273.854C286.882 273.853 286.882 273.853 286.882 273.853C286.881 273.852 286.88 273.852 286.879 273.851C286.877 273.849 286.874 273.846 286.871 273.843C286.864 273.838 286.854 273.829 286.842 273.819C286.817 273.799 286.782 273.77 286.737 273.734C286.646 273.663 286.514 273.563 286.343 273.443C286.001 273.205 285.503 272.89 284.869 272.576C283.603 271.947 281.786 271.316 279.589 271.316V272.316ZM286.969 274.511L288.719 271.921L287.89 271.361L286.14 273.951L286.969 274.511ZM288.304 271.641C288.652 271.281 288.651 271.281 288.651 271.281C288.651 271.281 288.651 271.281 288.651 271.28C288.65 271.28 288.65 271.28 288.65 271.279C288.649 271.279 288.648 271.278 288.647 271.276C288.644 271.274 288.641 271.271 288.637 271.267C288.629 271.26 288.618 271.25 288.604 271.237C288.576 271.212 288.536 271.176 288.484 271.132C288.38 271.043 288.227 270.92 288.026 270.773C287.624 270.479 287.03 270.091 286.246 269.705C284.677 268.932 282.353 268.166 279.309 268.166V269.166C282.18 269.166 284.354 269.887 285.804 270.602C286.53 270.96 287.075 271.316 287.435 271.58C287.616 271.711 287.75 271.82 287.837 271.894C287.88 271.931 287.912 271.959 287.932 271.978C287.942 271.987 287.949 271.993 287.953 271.997C287.955 271.999 287.957 272 287.957 272.001C287.958 272.001 287.958 272.001 287.958 272.001C287.958 272.001 287.958 272.001 287.957 272.001C287.957 272.001 287.957 272.001 287.957 272.001C287.957 272.001 287.957 272.001 288.304 271.641ZM279.309 268.166C271.814 268.166 266.209 273.999 266.209 281.406H267.209C267.209 274.533 272.384 269.166 279.309 269.166V268.166ZM294.946 293.796H294.446V294.296H294.946V293.796ZM309.891 293.796V294.296H310.391V293.796H309.891ZM309.891 290.786H310.391V290.286H309.891V290.786ZM298.411 290.786H297.911V291.286H298.411V290.786ZM298.411 282.841V282.341H297.911V282.841H298.411ZM307.266 282.841V283.341H307.766V282.841H307.266ZM307.266 279.831H307.766V279.331H307.266V279.831ZM298.411 279.831H297.911V280.331H298.411V279.831ZM298.411 272.096V271.596H297.911V272.096H298.411ZM309.296 272.096V272.596H309.796V272.096H309.296ZM309.296 269.086H309.796V268.586H309.296V269.086ZM294.946 269.086V268.586H294.446V269.086H294.946ZM294.946 294.296H309.891V293.296H294.946V294.296ZM310.391 293.796V290.786H309.391V293.796H310.391ZM309.891 290.286H298.411V291.286H309.891V290.286ZM298.911 290.786V282.841H297.911V290.786H298.911ZM298.411 283.341H307.266V282.341H298.411V283.341ZM307.766 282.841V279.831H306.766V282.841H307.766ZM307.266 279.331H298.411V280.331H307.266V279.331ZM298.911 279.831V272.096H297.911V279.831H298.911ZM298.411 272.596H309.296V271.596H298.411V272.596ZM309.796 272.096V269.086H308.796V272.096H309.796ZM309.296 268.586H294.946V269.586H309.296V268.586ZM294.446 269.086V293.796H295.446V269.086H294.446Z" fill="#F69FAC"/>
<path d="M189.517 250.969C189.238 244.504 189.689 238.027 190.859 231.662C192.494 222.774 193.92 214.221 200.376 205.962C203.559 201.836 207.528 198.381 212.053 195.795C220.334 191.141 228.111 190.973 232.891 190.911C237.943 190.848 257.02 189.737 267.627 203.342C277.127 215.522 278.046 223.069 279.702 232.229C280.878 238.77 281.202 245.436 280.666 252.06C288.799 246.316 296.926 240.565 305.046 234.807C305.779 225.653 304.849 216.441 302.3 207.618C299.826 199.107 296.933 190.889 289.449 183.426C278.38 172.378 259.555 173.615 258.193 173.657C254.793 173.741 237.314 174.265 226.329 186.696C220.941 192.796 219.055 199.484 217.461 205.144C216.221 209.918 215.366 214.783 214.903 219.693C214.232 225.393 214.003 230.238 213.918 233.759C205.763 239.46 197.63 245.197 189.517 250.969Z" stroke="black" stroke-width="5" stroke-miterlimit="10"/>
</svg>
