<svg width="31" height="35" viewBox="0 0 31 35" fill="none" xmlns="http://www.w3.org/2000/svg">
<path d="M2.85522 1.45007H9.38154V33.4743H2.85522V1.45007Z" fill="#A48863"/>
<rect y="0.628906" width="13.0526" height="1.2317" fill="#A48863"/>
<rect y="33.4742" width="31" height="1.2317" fill="#A48863"/>
<path fill-rule="evenodd" clip-rule="evenodd" d="M19.171 34.4862V34.6284H31V22.7995H29.7547C29.7157 28.8769 25.0936 33.8667 19.171 34.4862Z" fill="#A48863"/>
<path fill-rule="evenodd" clip-rule="evenodd" d="M23.4539 22.0854C27.6215 22.0854 31 18.707 31 14.5394L31 11.1698C31 7.00228 27.6215 3.62379 23.4539 3.62379C19.2864 3.62379 15.9079 7.00227 15.9079 11.1698L15.9079 14.5394C15.9079 18.707 19.2864 22.0854 23.4539 22.0854ZM23.454 21.2948C24.6798 21.2948 25.6735 20.3011 25.6735 19.0753L25.6735 6.62373C25.6735 5.39798 24.6798 4.4043 23.454 4.4043C22.2283 4.4043 21.2346 5.39798 21.2346 6.62373L21.2346 19.0753C21.2346 20.3011 22.2283 21.2948 23.454 21.2948Z" fill="#A48863"/>
</svg>
