<svg width="25" height="25" viewBox="0 0 25 25" fill="none" xmlns="http://www.w3.org/2000/svg">
<path fill-rule="evenodd" clip-rule="evenodd" d="M12.5005 0C5.59792 0 0 5.59636 0 12.5005C0 17.6177 3.07812 22.0161 7.48385 23.949C7.44843 23.0771 7.4776 22.0276 7.7 21.0781C7.94062 20.0635 9.30781 14.2677 9.30781 14.2677C9.30781 14.2677 8.90937 13.4693 8.90937 12.2891C8.90937 10.437 9.98437 9.05364 11.3208 9.05364C12.4562 9.05364 13.0062 9.90781 13.0062 10.9307C13.0062 12.0729 12.2771 13.7828 11.9021 15.3656C11.5896 16.6932 12.5667 17.7734 13.875 17.7734C16.2432 17.7734 17.8385 14.7318 17.8385 11.1276C17.8385 8.38906 15.9932 6.33855 12.6375 6.33855C8.84636 6.33855 6.48386 9.16511 6.48386 12.3229C6.48386 13.4135 6.80469 14.1807 7.30729 14.775C7.53958 15.0495 7.57031 15.1583 7.48645 15.4729C7.4276 15.701 7.28958 16.2568 7.23228 16.4755C7.14895 16.7917 6.89271 16.9063 6.60729 16.7885C4.8599 16.0755 4.04687 14.1635 4.04687 12.0125C4.04687 8.4625 7.04166 4.2026 12.9802 4.2026C17.7531 4.2026 20.8943 7.65885 20.8943 11.3641C20.8943 16.2682 18.1688 19.9318 14.1484 19.9318C12.8005 19.9318 11.5307 19.2026 11.0953 18.3745C11.0953 18.3745 10.3693 21.2547 10.2161 21.8099C9.95156 22.7734 9.43282 23.737 8.95834 24.487C10.0828 24.8193 11.2708 25 12.5005 25C19.4036 25 25 19.4036 25 12.5005C25 5.59636 19.4036 0 12.5005 0Z" fill="#CC2127"/>
</svg>
