<svg width="130" height="16" viewBox="0 0 130 16" fill="none" xmlns="http://www.w3.org/2000/svg">
<path fill-rule="evenodd" clip-rule="evenodd" d="M129.75 1.875C129.75 0.84375 128.906 0 127.875 0H112.875C111.844 0 111 0.84375 111 1.875V13.125C111 14.1562 111.844 15 112.875 15H127.875C128.906 15 129.75 14.1562 129.75 13.125V1.875ZM127.875 1.87494L120.375 6.56244L112.875 1.87494H127.875ZM120.375 8.4375L112.875 3.75V13.125H127.875V3.75L120.375 8.4375Z" fill="#C4C4C4"/>
<path d="M77.4051 4.87891H74.1901V14.9997H77.4051V4.87891Z" fill="#C4C4C4"/>
<path d="M77.6169 1.74819C77.5961 0.755835 76.9188 0 75.8189 0C74.719 0 74 0.755835 74 1.74819C74 2.71998 74.6978 3.49758 75.7772 3.49758H75.7977C76.9188 3.49758 77.6169 2.71998 77.6169 1.74819Z" fill="#C4C4C4"/>
<path d="M89 9.19672C89 6.08806 87.4139 4.64124 85.2982 4.64124C83.5912 4.64124 82.827 5.62356 82.4003 6.31268V4.87916H79.1848C79.2272 5.82884 79.1848 14.9999 79.1848 14.9999H82.4003V9.34766C82.4003 9.04518 82.4211 8.74345 82.5062 8.52688C82.7385 7.9226 83.2676 7.29696 84.1558 7.29696C85.3197 7.29696 85.7849 8.22501 85.7849 9.58505V14.9997H88.9999L89 9.19672Z" fill="#C4C4C4"/>
<path d="M44.0144 0.0560303C39.6048 0.0560303 36.0292 3.46475 36.0292 7.66995C36.0292 11.034 38.3172 13.8881 41.4899 14.8949C41.889 14.9654 42.0355 14.7297 42.0355 14.5286C42.0355 14.3471 42.0281 13.7473 42.0247 13.111C39.8032 13.5716 39.3344 12.2127 39.3344 12.2127C38.9712 11.3326 38.4478 11.0986 38.4478 11.0986C37.7233 10.626 38.5024 10.6357 38.5024 10.6357C39.3043 10.6893 39.7265 11.4204 39.7265 11.4204C40.4387 12.5844 41.5945 12.2479 42.0502 12.0533C42.1219 11.5613 42.3288 11.2252 42.5572 11.0352C40.7836 10.8426 38.9191 10.1898 38.9191 7.27228C38.9191 6.441 39.231 5.76177 39.7418 5.22856C39.6589 5.03666 39.3856 4.26237 39.8192 3.21359C39.8192 3.21359 40.4897 3.00895 42.0157 3.99406C42.6526 3.82535 43.3358 3.74075 44.0144 3.73785C44.693 3.74075 45.3766 3.82535 46.0148 3.99406C47.5389 3.00895 48.2085 3.21359 48.2085 3.21359C48.6431 4.26237 48.3697 5.03666 48.2868 5.22856C48.7988 5.76177 49.1086 6.441 49.1086 7.27228C49.1086 10.1967 47.2405 10.8406 45.4624 11.0291C45.7488 11.2654 46.004 11.7288 46.004 12.4391C46.004 13.4578 45.9948 14.2777 45.9948 14.5286C45.9948 14.7312 46.1385 14.9687 46.5433 14.8939C49.7143 13.886 51.9994 11.0329 51.9994 7.66995C51.9994 3.46475 48.4243 0.0560303 44.0144 0.0560303" fill="#C4C4C4"/>
<path d="M39.0536 10.9885C39.036 11.0265 38.9736 11.0377 38.9167 11.0117C38.8588 10.9868 38.8263 10.9352 38.845 10.8971C38.8622 10.8581 38.9248 10.8474 38.9826 10.8733C39.0406 10.8983 39.0737 10.9504 39.0536 10.9885" fill="#C4C4C4"/>
<path d="M39.3771 11.3326C39.339 11.3664 39.2645 11.3507 39.214 11.2974C39.1618 11.2442 39.152 11.1731 39.1906 11.1388C39.2299 11.1051 39.3021 11.1209 39.3544 11.1741C39.4067 11.2279 39.4169 11.2985 39.3771 11.3326" fill="#C4C4C4"/>
<path d="M39.6919 11.7709C39.6429 11.8033 39.5629 11.7729 39.5135 11.7051C39.4646 11.6374 39.4646 11.5561 39.5145 11.5236C39.5641 11.491 39.6429 11.5203 39.6931 11.5875C39.7419 11.6563 39.7419 11.7377 39.6919 11.7709" fill="#C4C4C4"/>
<path d="M40.1232 12.1949C40.0794 12.241 39.9862 12.2286 39.918 12.1657C39.8482 12.1042 39.8287 12.0169 39.8726 11.9708C39.9169 11.9246 40.0107 11.9376 40.0794 12C40.1487 12.0614 40.1699 12.1493 40.1232 12.1949" fill="#C4C4C4"/>
<path d="M40.7183 12.4407C40.699 12.5004 40.6092 12.5276 40.5188 12.5022C40.4284 12.476 40.3693 12.4061 40.3876 12.3457C40.4064 12.2855 40.4965 12.2572 40.5877 12.2844C40.6778 12.3104 40.7371 12.3799 40.7183 12.4407" fill="#C4C4C4"/>
<path d="M41.3717 12.4862C41.374 12.5491 41.2973 12.6013 41.2023 12.6023C41.1068 12.6045 41.0296 12.5536 41.0286 12.4917C41.0286 12.4281 41.1035 12.3764 41.199 12.3749C41.294 12.3732 41.3717 12.4237 41.3717 12.4862" fill="#C4C4C4"/>
<path d="M41.9799 12.3874C41.9912 12.4488 41.9252 12.5118 41.831 12.5285C41.7383 12.5448 41.6525 12.5069 41.6407 12.446C41.6292 12.3831 41.6964 12.3201 41.7889 12.3038C41.8833 12.2881 41.9678 12.325 41.9799 12.3874" fill="#C4C4C4"/>
<path d="M7.50008 15.0747C5.49098 15.0747 5.22241 15.0659 4.40808 15.0289C3.78612 15.0159 3.17078 14.8984 2.58779 14.6814C2.08751 14.4927 1.63426 14.1975 1.25947 13.8162C0.877606 13.4417 0.582321 12.9882 0.394341 12.4874C0.176602 11.9046 0.0587261 11.2892 0.0456727 10.6671C0.008605 9.8758 0 9.61153 0 7.57479C0 5.53805 0.008605 5.27312 0.0451762 4.48262C0.0582549 3.86057 0.17613 3.24518 0.393844 2.66233C0.581807 2.16162 0.877096 1.70813 1.25898 1.33368C1.63358 0.952159 2.08688 0.656921 2.58729 0.468551C3.17015 0.250849 3.78553 0.132974 4.40758 0.119883C5.19891 0.083312 5.46318 0.074707 7.50058 0.074707C9.52275 0.074707 9.78951 0.083312 10.5932 0.119883C11.2153 0.132779 11.8307 0.25066 12.4135 0.468551C12.9141 0.656663 13.3674 0.951935 13.7418 1.33368C14.1231 1.70847 14.4184 2.16172 14.607 2.662C14.8243 3.24493 14.9418 3.86031 14.9545 4.48229C14.9911 5.28553 14.9997 5.55195 14.9997 7.57429C14.9997 9.59663 14.9911 9.86206 14.9545 10.6663C14.9421 11.2883 14.8246 11.9037 14.607 12.4866C14.4144 12.985 14.1197 13.4377 13.7418 13.8156C13.364 14.1935 12.9113 14.4882 12.4129 14.6809C11.83 14.8982 11.2146 15.0157 10.5926 15.0284C9.79133 15.0661 9.52507 15.0747 7.50008 15.0747ZM7.50008 1.42586C5.48403 1.42586 5.24954 1.43347 4.4703 1.46921C3.99476 1.47443 3.5237 1.56182 3.07794 1.72753C2.7519 1.8472 2.45699 2.03876 2.21512 2.28801C1.96643 2.53046 1.77475 2.82518 1.65398 3.15083C1.48933 3.59703 1.40219 4.0681 1.39633 4.54368C1.35992 5.34643 1.35231 5.58621 1.35231 7.57462C1.35231 9.57942 1.35992 9.81639 1.39633 10.6056C1.40154 11.0812 1.4887 11.5524 1.65398 11.9984C1.77412 12.324 1.96589 12.6185 2.21512 12.8601C2.45731 13.1091 2.7521 13.3009 3.07794 13.4214C3.52399 13.5867 3.99513 13.6741 4.47079 13.6797C5.24855 13.7156 5.48403 13.7231 7.50058 13.7231C9.51713 13.7231 9.75277 13.7154 10.5315 13.6797C11.0072 13.6741 11.4783 13.5867 11.9244 13.4214C12.2477 13.2965 12.5414 13.1054 12.7865 12.8603C13.0315 12.6152 13.2227 12.3216 13.3475 11.9983C13.5123 11.5521 13.5995 11.081 13.6052 10.6054C13.6416 9.81557 13.6492 9.57843 13.6492 7.57446C13.6492 5.57049 13.6416 5.33335 13.6052 4.54351C13.6 4.06787 13.5128 3.59669 13.3475 3.15066C13.2274 2.8247 13.0356 2.52985 12.7864 2.28785C12.5442 2.03901 12.2494 1.84751 11.9235 1.72736C11.4773 1.56268 11.0063 1.47532 10.5307 1.46905C9.73904 1.43347 9.50157 1.42586 7.50008 1.42586V1.42586ZM7.50008 11.4257C6.73849 11.4255 5.99405 11.1995 5.36091 10.7762C4.72776 10.353 4.23433 9.75146 3.94302 9.04778C3.65171 8.3441 3.57559 7.56984 3.72429 6.82291C3.87299 6.07597 4.23983 5.3899 4.77843 4.85144C5.31703 4.31298 6.00319 3.94632 6.75017 3.79781C7.49714 3.6493 8.27138 3.72562 8.97498 4.01712C9.67858 4.30861 10.28 4.80219 10.7031 5.43545C11.1262 6.0687 11.352 6.8132 11.352 7.57479C11.3507 8.5959 10.9444 9.5748 10.2223 10.2967C9.5002 11.0187 8.52119 11.4247 7.50008 11.4257ZM7.50008 5.07438C7.00564 5.07444 6.52232 5.22112 6.11124 5.49585C5.70015 5.77059 5.37976 6.16106 5.19058 6.61787C5.00139 7.07469 4.95191 7.57734 5.04839 8.06228C5.14486 8.54722 5.38297 8.99266 5.73259 9.34228C6.08221 9.69191 6.52765 9.93001 7.01259 10.0265C7.49753 10.123 8.00018 10.0735 8.457 9.8843C8.91382 9.69511 9.30428 9.37472 9.57902 8.96364C9.85376 8.55255 10.0004 8.06923 10.0005 7.57479C9.99988 6.91183 9.73625 6.27619 9.26746 5.80741C8.79868 5.33862 8.16305 5.07499 7.50008 5.07438V5.07438ZM11.5047 4.47103C11.3267 4.47113 11.1527 4.41844 11.0047 4.31961C10.8566 4.22079 10.7412 4.08027 10.6731 3.91585C10.6049 3.75143 10.5871 3.57048 10.6218 3.39591C10.6565 3.22134 10.7422 3.06098 10.868 2.93512C10.9939 2.80926 11.1542 2.72356 11.3288 2.68886C11.5034 2.65416 11.6843 2.67202 11.8488 2.74018C12.0132 2.80834 12.1537 2.92373 12.2525 3.07177C12.3513 3.2198 12.404 3.39382 12.4039 3.57181C12.4034 3.81013 12.3084 4.03852 12.1399 4.20703C11.9714 4.37554 11.743 4.47047 11.5047 4.47103V4.47103Z" fill="#C4C4C4"/>
</svg>
