<svg width="84" height="17" viewBox="0 0 84 17" fill="none" xmlns="http://www.w3.org/2000/svg">
<path fill-rule="evenodd" clip-rule="evenodd" d="M82.5834 4.24967C82.5834 3.47051 81.9459 2.83301 81.1667 2.83301H69.8334C69.0542 2.83301 68.4167 3.47051 68.4167 4.24967V12.7497C68.4167 13.5288 69.0542 14.1663 69.8334 14.1663H81.1667C81.9459 14.1663 82.5834 13.5288 82.5834 12.7497V4.24967ZM81.1667 4.24967L75.5 7.79134L69.8334 4.24967H81.1667ZM75.5 9.20801L69.8334 5.66635V12.7497H81.1667V5.66635L75.5 9.20801Z" fill="#C4C4C4"/>
<path d="M47.6463 5.79199H45.1477V13.6573H47.6463V5.79199Z" fill="#C4C4C4"/>
<path d="M47.8109 3.35859C47.7947 2.58739 47.2683 2 46.4135 2C45.5588 2 45 2.58739 45 3.35859C45 4.11382 45.5423 4.71812 46.3811 4.71812H46.3971C47.2683 4.71812 47.8109 4.11382 47.8109 3.35859Z" fill="#C4C4C4"/>
<path d="M56.6571 9.14671C56.6571 6.73083 55.4245 5.60645 53.7803 5.60645C52.4537 5.60645 51.8598 6.36985 51.5282 6.9054V5.79135H49.0293C49.0622 6.52938 49.0293 13.6566 49.0293 13.6566H51.5282V9.26401C51.5282 9.02894 51.5444 8.79445 51.6105 8.62615C51.791 8.15653 52.2022 7.67032 52.8925 7.67032C53.797 7.67032 54.1585 8.39155 54.1585 9.44849V13.6564H56.657L56.6571 9.14671Z" fill="#C4C4C4"/>
<path d="M6.68604 14C5.08648 14 4.87265 13.993 4.22431 13.9635C3.72914 13.9532 3.23923 13.8596 2.77507 13.6868C2.37678 13.5367 2.01592 13.3016 1.71752 12.998C1.4135 12.6999 1.1784 12.3388 1.02874 11.9401C0.855386 11.4761 0.761538 10.9861 0.751145 10.4909C0.721634 9.86084 0.714783 9.65044 0.714783 8.02887C0.714783 6.40731 0.721634 6.19638 0.75075 5.56701C0.761163 5.07176 0.85501 4.58182 1.02835 4.11778C1.17799 3.71913 1.41309 3.35808 1.71713 3.05996C2.01537 2.75621 2.37627 2.52115 2.77468 2.37118C3.23872 2.19785 3.72867 2.10401 4.22392 2.09358C4.85394 2.06447 5.06434 2.05762 6.68644 2.05762C8.29641 2.05762 8.50879 2.06447 9.14869 2.09358C9.64396 2.10385 10.1339 2.1977 10.5979 2.37118C10.9964 2.52095 11.3574 2.75603 11.6555 3.05996C11.9591 3.35835 12.1941 3.71921 12.3443 4.11751C12.5173 4.58162 12.6108 5.07156 12.6209 5.56675C12.6501 6.20626 12.6569 6.41838 12.6569 8.02848C12.6569 9.63858 12.6501 9.84991 12.6209 10.4902C12.611 10.9854 12.5175 11.4754 12.3443 11.9394C12.1909 12.3363 11.9563 12.6967 11.6555 12.9975C11.3546 13.2984 10.9942 13.533 10.5974 13.6864C10.1333 13.8595 9.64336 13.953 9.14816 13.9631C8.51024 13.9931 8.29825 14 6.68604 14ZM6.68604 3.13335C5.08094 3.13335 4.89425 3.13941 4.27385 3.16787C3.89525 3.17202 3.52021 3.2416 3.16531 3.37353C2.90573 3.4688 2.67094 3.62132 2.47837 3.81976C2.28037 4.01279 2.12777 4.24743 2.03161 4.5067C1.90052 4.86195 1.83114 5.23699 1.82648 5.61563C1.7975 6.25474 1.79144 6.44565 1.79144 8.02874C1.79144 9.62488 1.7975 9.81355 1.82648 10.4419C1.83063 10.8205 1.90002 11.1957 2.03161 11.5508C2.12727 11.81 2.27995 12.0445 2.47837 12.2368C2.67119 12.4351 2.90589 12.5878 3.16531 12.6837C3.52044 12.8153 3.89554 12.8849 4.27424 12.8894C4.89346 12.9179 5.08094 12.9239 6.68644 12.9239C8.29193 12.9239 8.47954 12.9178 9.09955 12.8894C9.47825 12.8849 9.85336 12.8153 10.2085 12.6837C10.4659 12.5843 10.6997 12.4321 10.8948 12.237C11.09 12.0419 11.2421 11.8081 11.3415 11.5507C11.4727 11.1954 11.5421 10.8204 11.5467 10.4417C11.5756 9.81289 11.5817 9.62409 11.5817 8.02861C11.5817 6.43313 11.5756 6.24434 11.5467 5.6155C11.5425 5.23681 11.4731 4.86168 11.3415 4.50657C11.2459 4.24705 11.0932 4.0123 10.8948 3.81963C10.7019 3.62152 10.4672 3.46905 10.2078 3.37339C9.85256 3.24228 9.47754 3.17273 9.09889 3.16773C8.4686 3.13941 8.27954 3.13335 6.68604 3.13335V3.13335ZM6.68604 11.0948C6.07969 11.0946 5.487 10.9147 4.98292 10.5777C4.47883 10.2407 4.08599 9.76185 3.85405 9.20161C3.62212 8.64137 3.56152 8.02494 3.67991 7.43026C3.7983 6.83558 4.09036 6.28935 4.51917 5.86066C4.94798 5.43196 5.49428 5.14003 6.08899 5.0218C6.6837 4.90356 7.30011 4.96432 7.86029 5.1964C8.42047 5.42848 8.89926 5.82144 9.23611 6.32562C9.57297 6.82979 9.75276 7.42252 9.75276 8.02887C9.75175 8.84184 9.4283 9.6212 8.85337 10.196C8.27845 10.7708 7.499 11.094 6.68604 11.0948ZM6.68604 6.03815C6.29239 6.0382 5.90759 6.15498 5.5803 6.37371C5.25301 6.59245 4.99793 6.90332 4.84731 7.26702C4.69668 7.63071 4.65729 8.03091 4.7341 8.417C4.81091 8.80308 5.00048 9.15773 5.27883 9.43608C5.55719 9.71444 5.91183 9.904 6.29792 9.98082C6.68401 10.0576 7.0842 10.0182 7.4479 9.86761C7.8116 9.71699 8.12247 9.46191 8.3412 9.13462C8.55994 8.80733 8.67671 8.42253 8.67677 8.02887C8.67628 7.50105 8.46638 6.99499 8.09316 6.62176C7.71993 6.24853 7.21386 6.03864 6.68604 6.03815V6.03815ZM9.87436 5.55779C9.73266 5.55787 9.59411 5.51591 9.47625 5.43723C9.35839 5.35855 9.26652 5.24668 9.21225 5.11578C9.15799 4.98487 9.14377 4.84081 9.17139 4.70182C9.19902 4.56283 9.26725 4.43516 9.36746 4.33496C9.46766 4.23476 9.59533 4.16652 9.73432 4.1389C9.87331 4.11127 10.0174 4.12549 10.1483 4.17976C10.2792 4.23402 10.3911 4.32589 10.4697 4.44375C10.5484 4.56161 10.5904 4.70016 10.5903 4.84187C10.5898 5.0316 10.5143 5.21344 10.3801 5.3476C10.2459 5.48177 10.0641 5.55734 9.87436 5.55779V5.55779Z" fill="#C4C4C4"/>
<path d="M29.0823 2.04395C25.7358 2.04395 23.0222 4.69301 23.0222 7.96105C23.0222 10.5754 24.7586 12.7934 27.1665 13.5759C27.4694 13.6306 27.5805 13.4475 27.5805 13.2912C27.5805 13.1501 27.5749 12.684 27.5723 12.1896C25.8864 12.5475 25.5306 11.4914 25.5306 11.4914C25.2549 10.8075 24.8577 10.6256 24.8577 10.6256C24.3079 10.2583 24.8992 10.2659 24.8992 10.2659C25.5077 10.3075 25.8282 10.8757 25.8282 10.8757C26.3687 11.7803 27.2459 11.5187 27.5917 11.3675C27.6461 10.9852 27.8031 10.724 27.9764 10.5763C26.6304 10.4267 25.2154 9.91931 25.2154 7.652C25.2154 7.00598 25.4521 6.47812 25.8398 6.06374C25.7769 5.9146 25.5694 5.31287 25.8985 4.49782C25.8985 4.49782 26.4074 4.33879 27.5655 5.10435C28.0489 4.97325 28.5673 4.9075 29.0823 4.90525C29.5974 4.9075 30.1162 4.97325 30.6005 5.10435C31.7572 4.33879 32.2654 4.49782 32.2654 4.49782C32.5952 5.31287 32.3877 5.9146 32.3248 6.06374C32.7134 6.47812 32.9485 7.00598 32.9485 7.652C32.9485 9.9247 31.5308 10.4251 30.1813 10.5716C30.3987 10.7552 30.5924 11.1153 30.5924 11.6674C30.5924 12.459 30.5853 13.0962 30.5853 13.2912C30.5853 13.4487 30.6944 13.6332 31.0016 13.5751C33.4082 12.7918 35.1424 10.5745 35.1424 7.96105C35.1424 4.69301 32.4292 2.04395 29.0823 2.04395Z" fill="#C4C4C4"/>
<path d="M25.3175 10.54C25.3041 10.5695 25.2567 10.5783 25.2136 10.558C25.1696 10.5387 25.1449 10.4985 25.1592 10.469C25.1722 10.4386 25.2197 10.4303 25.2636 10.4504C25.3076 10.4699 25.3327 10.5104 25.3175 10.54Z" fill="#C4C4C4"/>
<path d="M25.5629 10.8079C25.534 10.8342 25.4775 10.822 25.4392 10.7806C25.3995 10.7392 25.3921 10.6839 25.4214 10.6573C25.4512 10.6311 25.506 10.6434 25.5457 10.6847C25.5854 10.7266 25.5931 10.7814 25.5629 10.8079Z" fill="#C4C4C4"/>
<path d="M25.8019 11.1478C25.7647 11.173 25.704 11.1494 25.6665 11.0968C25.6294 11.0441 25.6294 10.981 25.6673 10.9557C25.7049 10.9304 25.7647 10.9531 25.8028 11.0054C25.8398 11.0588 25.8398 11.1221 25.8019 11.1478Z" fill="#C4C4C4"/>
<path d="M26.1292 11.4779C26.096 11.5137 26.0253 11.5041 25.9735 11.4552C25.9205 11.4074 25.9058 11.3396 25.9391 11.3037C25.9727 11.2678 26.0438 11.2779 26.096 11.3264C26.1486 11.3741 26.1647 11.4425 26.1292 11.4779Z" fill="#C4C4C4"/>
<path d="M26.5808 11.6685C26.5662 11.715 26.498 11.7361 26.4294 11.7164C26.3609 11.696 26.316 11.6417 26.3298 11.5947C26.3441 11.548 26.4125 11.526 26.4817 11.5471C26.5501 11.5673 26.5951 11.6213 26.5808 11.6685Z" fill="#C4C4C4"/>
<path d="M27.0768 11.7037C27.0785 11.7526 27.0203 11.7932 26.9483 11.7939C26.8758 11.7956 26.8172 11.756 26.8164 11.7079C26.8164 11.6586 26.8733 11.6184 26.9458 11.6172C27.0178 11.6158 27.0768 11.6551 27.0768 11.7037Z" fill="#C4C4C4"/>
<path d="M27.5383 11.6274C27.5469 11.6751 27.4968 11.7241 27.4253 11.737C27.3549 11.7497 27.2898 11.7202 27.2809 11.6729C27.2722 11.624 27.3231 11.575 27.3934 11.5624C27.465 11.5502 27.5292 11.5789 27.5383 11.6274Z" fill="#C4C4C4"/>
</svg>
